M48
INCH,TZ
T1C0.0157
T2C0.0276
T3C0.0295
T4C0.0315
T5C0.0394
T6C0.0433
T7C0.0472
T8C0.0591
%
G90
G05
T1
X45650Y-39300
X45650Y-44750
X48500Y-34850
X50850Y-37150
X55000Y-36950
X57350Y-44150
X68000Y-38000
T2
X62020Y-54250
X62028Y-48750
X62033Y-51550
X64020Y-54250
X64028Y-48750
X64033Y-51550
X65431Y-54200
X65470Y-48700
X65470Y-51450
X67431Y-54200
X67470Y-48700
X67470Y-51450
X69120Y-48700
X69120Y-51450
X69120Y-54200
X71120Y-48700
X71120Y-51450
X71120Y-54200
X72670Y-48650
X72670Y-51400
X72670Y-54150
X74670Y-48650
X74670Y-51400
X74670Y-54150
X76374Y-48650
X76391Y-51350
X76399Y-54100
X78374Y-48650
X78391Y-51350
X78399Y-54100
T3
X59008Y-50550
X59008Y-51050
X59008Y-51550
X59008Y-53300
X59008Y-53800
X59008Y-54300
X59058Y-47800
X59058Y-48300
X59058Y-48800
T4
X47346Y-39154
X47346Y-42154
X48346Y-39154
X48346Y-42154
X49346Y-39154
X49346Y-42154
X50346Y-39154
X50346Y-42154
X50846Y-34094
X51346Y-39154
X51346Y-42154
X52346Y-39154
X52346Y-42154
X52768Y-34094
X53346Y-39154
X53346Y-42154
X54346Y-39154
X54346Y-42154
X55346Y-39154
X55346Y-42154
X56346Y-39154
X56346Y-42154
X57346Y-39154
X57346Y-42154
X57480Y-28157
X57480Y-32157
X58346Y-39154
X58346Y-42154
X59346Y-39154
X59346Y-42154
X60079Y-28200
X60079Y-32200
X60346Y-39154
X60346Y-42154
X63400Y-36950
X63400Y-40950
X65400Y-41450
X65400Y-45450
X67950Y-41450
X67950Y-45450
X70650Y-41450
X70650Y-45450
X73400Y-41450
X73400Y-45450
X73900Y-29100
X73900Y-33100
X73900Y-34700
X73900Y-38700
X76250Y-41450
X76250Y-45450
T5
X42810Y-28154
X42810Y-29154
X42810Y-30154
X42810Y-31154
X42840Y-39746
X42840Y-40746
X42840Y-41746
X42840Y-42746
X42850Y-51704
X42850Y-52704
X42850Y-53704
X42850Y-54704
X42860Y-45904
X42860Y-46904
X42860Y-47904
X42860Y-48904
X42910Y-34254
X42910Y-35254
X42910Y-36254
X42910Y-37254
X46969Y-37087
X48616Y-30650
X48937Y-37087
X49050Y-54750
X50050Y-45650
X50050Y-46650
X50050Y-54750
X50584Y-30650
X51050Y-45650
X51050Y-46650
X51050Y-54750
X52050Y-45650
X52050Y-46650
X53089Y-30671
X55058Y-30671
X58370Y-37402
X58816Y-45400
X59370Y-37402
X60784Y-45400
X66108Y-26240
X67108Y-26240
X70706Y-26240
X71706Y-26240
X72706Y-26240
X76016Y-26250
X77984Y-26250
T6
X77772Y-34750
X77772Y-35750
X77772Y-36750
T7
X56800Y-49600
X56800Y-52400
X56800Y-55200
X78800Y-40000
X78800Y-41800
X78800Y-43600
X78800Y-45400
X78800Y-47200
T8
X62985Y-31004
X69685Y-31004
T0
M30
