M48
INCH,TZ
T1C0.0157
T2C0.0315
T3C0.0394
T4C0.0433
T5C0.0472
%
G90
G05
T1
X55398Y-52346
X65898Y-42346
X66548Y-40696
T2
X52300Y-30850
X54150Y-33600
X54150Y-35500
X55464Y-41446
X55464Y-43346
X56300Y-30850
X56448Y-41446
X56448Y-43346
X58150Y-33600
X58150Y-35500
X59048Y-41446
X59048Y-43367
X59448Y-49246
X59448Y-51246
X59514Y-47546
X60498Y-47546
X61502Y-32350
X61502Y-33350
X61502Y-34350
X61502Y-35350
X61502Y-36350
X61502Y-37350
X61502Y-38350
X61502Y-39350
X61502Y-40350
X61502Y-41350
X61502Y-42350
X61502Y-43350
X61502Y-44350
X61502Y-45350
X62998Y-47496
X63448Y-49246
X63448Y-51246
X63982Y-47496
X64502Y-32350
X64502Y-33350
X64502Y-34350
X64502Y-35350
X64502Y-36350
X64502Y-37350
X64502Y-38350
X64502Y-39350
X64502Y-40350
X64502Y-41350
X64502Y-42350
X64502Y-43350
X64502Y-44350
X64502Y-45350
X67048Y-36212
X67048Y-37196
X73748Y-34546
X73748Y-38546
T3
X50800Y-30850
X50800Y-31850
X50800Y-32850
X52460Y-36850
X52460Y-37850
X52460Y-38850
X52460Y-39850
X52948Y-48946
X53948Y-48946
X53948Y-51296
X53948Y-52296
X54948Y-48946
X68750Y-31450
X69194Y-36198
X69194Y-37198
X69194Y-38198
X69750Y-31450
X70194Y-36198
X70194Y-37198
X70194Y-38198
X74648Y-44146
X74648Y-45146
X74648Y-46146
X74648Y-47146
X74648Y-48146
X74648Y-49146
X74648Y-50146
X74648Y-51146
T4
X57498Y-47946
X57498Y-48946
X57498Y-49946
T5
X52098Y-52296
X57300Y-36900
X58150Y-32200
X66448Y-46746
X76498Y-45546
X76498Y-47146
X76498Y-48696
T0
M30
