G04 #@! TF.GenerationSoftware,KiCad,Pcbnew,(6.0.10-0)*
G04 #@! TF.CreationDate,2023-03-01T17:49:14-06:00*
G04 #@! TF.ProjectId,monitor_subsystem,6d6f6e69-746f-4725-9f73-756273797374,rev?*
G04 #@! TF.SameCoordinates,Original*
G04 #@! TF.FileFunction,Legend,Top*
G04 #@! TF.FilePolarity,Positive*
%FSLAX46Y46*%
G04 Gerber Fmt 4.6, Leading zero omitted, Abs format (unit mm)*
G04 Created by KiCad (PCBNEW (6.0.10-0)) date 2023-03-01 17:49:14*
%MOMM*%
%LPD*%
G01*
G04 APERTURE LIST*
%ADD10C,0.200000*%
%ADD11C,0.150000*%
%ADD12C,0.120000*%
G04 APERTURE END LIST*
D10*
X127335857Y-115186857D02*
X127335857Y-113986857D01*
X127735857Y-114844000D01*
X128135857Y-113986857D01*
X128135857Y-115186857D01*
X128878714Y-115186857D02*
X128764428Y-115129714D01*
X128707285Y-115072571D01*
X128650142Y-114958285D01*
X128650142Y-114615428D01*
X128707285Y-114501142D01*
X128764428Y-114444000D01*
X128878714Y-114386857D01*
X129050142Y-114386857D01*
X129164428Y-114444000D01*
X129221571Y-114501142D01*
X129278714Y-114615428D01*
X129278714Y-114958285D01*
X129221571Y-115072571D01*
X129164428Y-115129714D01*
X129050142Y-115186857D01*
X128878714Y-115186857D01*
X129793000Y-114386857D02*
X129793000Y-115186857D01*
X129793000Y-114501142D02*
X129850142Y-114444000D01*
X129964428Y-114386857D01*
X130135857Y-114386857D01*
X130250142Y-114444000D01*
X130307285Y-114558285D01*
X130307285Y-115186857D01*
X130878714Y-115186857D02*
X130878714Y-114386857D01*
X130878714Y-113986857D02*
X130821571Y-114044000D01*
X130878714Y-114101142D01*
X130935857Y-114044000D01*
X130878714Y-113986857D01*
X130878714Y-114101142D01*
X131278714Y-114386857D02*
X131735857Y-114386857D01*
X131450142Y-113986857D02*
X131450142Y-115015428D01*
X131507285Y-115129714D01*
X131621571Y-115186857D01*
X131735857Y-115186857D01*
X132307285Y-115186857D02*
X132193000Y-115129714D01*
X132135857Y-115072571D01*
X132078714Y-114958285D01*
X132078714Y-114615428D01*
X132135857Y-114501142D01*
X132193000Y-114444000D01*
X132307285Y-114386857D01*
X132478714Y-114386857D01*
X132593000Y-114444000D01*
X132650142Y-114501142D01*
X132707285Y-114615428D01*
X132707285Y-114958285D01*
X132650142Y-115072571D01*
X132593000Y-115129714D01*
X132478714Y-115186857D01*
X132307285Y-115186857D01*
X133221571Y-115186857D02*
X133221571Y-114386857D01*
X133221571Y-114615428D02*
X133278714Y-114501142D01*
X133335857Y-114444000D01*
X133450142Y-114386857D01*
X133564428Y-114386857D01*
X134821571Y-115129714D02*
X134993000Y-115186857D01*
X135278714Y-115186857D01*
X135393000Y-115129714D01*
X135450142Y-115072571D01*
X135507285Y-114958285D01*
X135507285Y-114844000D01*
X135450142Y-114729714D01*
X135393000Y-114672571D01*
X135278714Y-114615428D01*
X135050142Y-114558285D01*
X134935857Y-114501142D01*
X134878714Y-114444000D01*
X134821571Y-114329714D01*
X134821571Y-114215428D01*
X134878714Y-114101142D01*
X134935857Y-114044000D01*
X135050142Y-113986857D01*
X135335857Y-113986857D01*
X135507285Y-114044000D01*
X135907285Y-114386857D02*
X136193000Y-115186857D01*
X136478714Y-114386857D02*
X136193000Y-115186857D01*
X136078714Y-115472571D01*
X136021571Y-115529714D01*
X135907285Y-115586857D01*
X136878714Y-115129714D02*
X136993000Y-115186857D01*
X137221571Y-115186857D01*
X137335857Y-115129714D01*
X137393000Y-115015428D01*
X137393000Y-114958285D01*
X137335857Y-114844000D01*
X137221571Y-114786857D01*
X137050142Y-114786857D01*
X136935857Y-114729714D01*
X136878714Y-114615428D01*
X136878714Y-114558285D01*
X136935857Y-114444000D01*
X137050142Y-114386857D01*
X137221571Y-114386857D01*
X137335857Y-114444000D01*
X137735857Y-114386857D02*
X138193000Y-114386857D01*
X137907285Y-113986857D02*
X137907285Y-115015428D01*
X137964428Y-115129714D01*
X138078714Y-115186857D01*
X138193000Y-115186857D01*
X139050142Y-115129714D02*
X138935857Y-115186857D01*
X138707285Y-115186857D01*
X138593000Y-115129714D01*
X138535857Y-115015428D01*
X138535857Y-114558285D01*
X138593000Y-114444000D01*
X138707285Y-114386857D01*
X138935857Y-114386857D01*
X139050142Y-114444000D01*
X139107285Y-114558285D01*
X139107285Y-114672571D01*
X138535857Y-114786857D01*
X139621571Y-115186857D02*
X139621571Y-114386857D01*
X139621571Y-114501142D02*
X139678714Y-114444000D01*
X139793000Y-114386857D01*
X139964428Y-114386857D01*
X140078714Y-114444000D01*
X140135857Y-114558285D01*
X140135857Y-115186857D01*
X140135857Y-114558285D02*
X140193000Y-114444000D01*
X140307285Y-114386857D01*
X140478714Y-114386857D01*
X140593000Y-114444000D01*
X140650142Y-114558285D01*
X140650142Y-115186857D01*
X141964428Y-113986857D02*
X142364428Y-115186857D01*
X142764428Y-113986857D01*
X143793000Y-115186857D02*
X143107285Y-115186857D01*
X143450142Y-115186857D02*
X143450142Y-113986857D01*
X143335857Y-114158285D01*
X143221571Y-114272571D01*
X143107285Y-114329714D01*
X144307285Y-115072571D02*
X144364428Y-115129714D01*
X144307285Y-115186857D01*
X144250142Y-115129714D01*
X144307285Y-115072571D01*
X144307285Y-115186857D01*
X145107285Y-113986857D02*
X145221571Y-113986857D01*
X145335857Y-114044000D01*
X145393000Y-114101142D01*
X145450142Y-114215428D01*
X145507285Y-114444000D01*
X145507285Y-114729714D01*
X145450142Y-114958285D01*
X145393000Y-115072571D01*
X145335857Y-115129714D01*
X145221571Y-115186857D01*
X145107285Y-115186857D01*
X144993000Y-115129714D01*
X144935857Y-115072571D01*
X144878714Y-114958285D01*
X144821571Y-114729714D01*
X144821571Y-114444000D01*
X144878714Y-114215428D01*
X144935857Y-114101142D01*
X144993000Y-114044000D01*
X145107285Y-113986857D01*
X131078714Y-115918857D02*
X131193000Y-115918857D01*
X131307285Y-115976000D01*
X131364428Y-116033142D01*
X131421571Y-116147428D01*
X131478714Y-116376000D01*
X131478714Y-116661714D01*
X131421571Y-116890285D01*
X131364428Y-117004571D01*
X131307285Y-117061714D01*
X131193000Y-117118857D01*
X131078714Y-117118857D01*
X130964428Y-117061714D01*
X130907285Y-117004571D01*
X130850142Y-116890285D01*
X130793000Y-116661714D01*
X130793000Y-116376000D01*
X130850142Y-116147428D01*
X130907285Y-116033142D01*
X130964428Y-115976000D01*
X131078714Y-115918857D01*
X131935857Y-116033142D02*
X131993000Y-115976000D01*
X132107285Y-115918857D01*
X132393000Y-115918857D01*
X132507285Y-115976000D01*
X132564428Y-116033142D01*
X132621571Y-116147428D01*
X132621571Y-116261714D01*
X132564428Y-116433142D01*
X131878714Y-117118857D01*
X132621571Y-117118857D01*
X133993000Y-115861714D02*
X132964428Y-117404571D01*
X134335857Y-116033142D02*
X134393000Y-115976000D01*
X134507285Y-115918857D01*
X134793000Y-115918857D01*
X134907285Y-115976000D01*
X134964428Y-116033142D01*
X135021571Y-116147428D01*
X135021571Y-116261714D01*
X134964428Y-116433142D01*
X134278714Y-117118857D01*
X135021571Y-117118857D01*
X135707285Y-116433142D02*
X135593000Y-116376000D01*
X135535857Y-116318857D01*
X135478714Y-116204571D01*
X135478714Y-116147428D01*
X135535857Y-116033142D01*
X135593000Y-115976000D01*
X135707285Y-115918857D01*
X135935857Y-115918857D01*
X136050142Y-115976000D01*
X136107285Y-116033142D01*
X136164428Y-116147428D01*
X136164428Y-116204571D01*
X136107285Y-116318857D01*
X136050142Y-116376000D01*
X135935857Y-116433142D01*
X135707285Y-116433142D01*
X135593000Y-116490285D01*
X135535857Y-116547428D01*
X135478714Y-116661714D01*
X135478714Y-116890285D01*
X135535857Y-117004571D01*
X135593000Y-117061714D01*
X135707285Y-117118857D01*
X135935857Y-117118857D01*
X136050142Y-117061714D01*
X136107285Y-117004571D01*
X136164428Y-116890285D01*
X136164428Y-116661714D01*
X136107285Y-116547428D01*
X136050142Y-116490285D01*
X135935857Y-116433142D01*
X137535857Y-115861714D02*
X136507285Y-117404571D01*
X137878714Y-116033142D02*
X137935857Y-115976000D01*
X138050142Y-115918857D01*
X138335857Y-115918857D01*
X138450142Y-115976000D01*
X138507285Y-116033142D01*
X138564428Y-116147428D01*
X138564428Y-116261714D01*
X138507285Y-116433142D01*
X137821571Y-117118857D01*
X138564428Y-117118857D01*
X139307285Y-115918857D02*
X139421571Y-115918857D01*
X139535857Y-115976000D01*
X139593000Y-116033142D01*
X139650142Y-116147428D01*
X139707285Y-116376000D01*
X139707285Y-116661714D01*
X139650142Y-116890285D01*
X139593000Y-117004571D01*
X139535857Y-117061714D01*
X139421571Y-117118857D01*
X139307285Y-117118857D01*
X139193000Y-117061714D01*
X139135857Y-117004571D01*
X139078714Y-116890285D01*
X139021571Y-116661714D01*
X139021571Y-116376000D01*
X139078714Y-116147428D01*
X139135857Y-116033142D01*
X139193000Y-115976000D01*
X139307285Y-115918857D01*
X140164428Y-116033142D02*
X140221571Y-115976000D01*
X140335857Y-115918857D01*
X140621571Y-115918857D01*
X140735857Y-115976000D01*
X140793000Y-116033142D01*
X140850142Y-116147428D01*
X140850142Y-116261714D01*
X140793000Y-116433142D01*
X140107285Y-117118857D01*
X140850142Y-117118857D01*
X141250142Y-115918857D02*
X141993000Y-115918857D01*
X141593000Y-116376000D01*
X141764428Y-116376000D01*
X141878714Y-116433142D01*
X141935857Y-116490285D01*
X141993000Y-116604571D01*
X141993000Y-116890285D01*
X141935857Y-117004571D01*
X141878714Y-117061714D01*
X141764428Y-117118857D01*
X141421571Y-117118857D01*
X141307285Y-117061714D01*
X141250142Y-117004571D01*
X132593000Y-117850857D02*
X133278714Y-117850857D01*
X132935857Y-119050857D02*
X132935857Y-117850857D01*
X134135857Y-118993714D02*
X134021571Y-119050857D01*
X133793000Y-119050857D01*
X133678714Y-118993714D01*
X133621571Y-118879428D01*
X133621571Y-118422285D01*
X133678714Y-118308000D01*
X133793000Y-118250857D01*
X134021571Y-118250857D01*
X134135857Y-118308000D01*
X134193000Y-118422285D01*
X134193000Y-118536571D01*
X133621571Y-118650857D01*
X135221571Y-119050857D02*
X135221571Y-118422285D01*
X135164428Y-118308000D01*
X135050142Y-118250857D01*
X134821571Y-118250857D01*
X134707285Y-118308000D01*
X135221571Y-118993714D02*
X135107285Y-119050857D01*
X134821571Y-119050857D01*
X134707285Y-118993714D01*
X134650142Y-118879428D01*
X134650142Y-118765142D01*
X134707285Y-118650857D01*
X134821571Y-118593714D01*
X135107285Y-118593714D01*
X135221571Y-118536571D01*
X135793000Y-119050857D02*
X135793000Y-118250857D01*
X135793000Y-118365142D02*
X135850142Y-118308000D01*
X135964428Y-118250857D01*
X136135857Y-118250857D01*
X136250142Y-118308000D01*
X136307285Y-118422285D01*
X136307285Y-119050857D01*
X136307285Y-118422285D02*
X136364428Y-118308000D01*
X136478714Y-118250857D01*
X136650142Y-118250857D01*
X136764428Y-118308000D01*
X136821571Y-118422285D01*
X136821571Y-119050857D01*
X138935857Y-119050857D02*
X138250142Y-119050857D01*
X138593000Y-119050857D02*
X138593000Y-117850857D01*
X138478714Y-118022285D01*
X138364428Y-118136571D01*
X138250142Y-118193714D01*
X139335857Y-117850857D02*
X140078714Y-117850857D01*
X139678714Y-118308000D01*
X139850142Y-118308000D01*
X139964428Y-118365142D01*
X140021571Y-118422285D01*
X140078714Y-118536571D01*
X140078714Y-118822285D01*
X140021571Y-118936571D01*
X139964428Y-118993714D01*
X139850142Y-119050857D01*
X139507285Y-119050857D01*
X139393000Y-118993714D01*
X139335857Y-118936571D01*
D11*
X163277333Y-125537380D02*
X162944000Y-125061190D01*
X162705904Y-125537380D02*
X162705904Y-124537380D01*
X163086857Y-124537380D01*
X163182095Y-124585000D01*
X163229714Y-124632619D01*
X163277333Y-124727857D01*
X163277333Y-124870714D01*
X163229714Y-124965952D01*
X163182095Y-125013571D01*
X163086857Y-125061190D01*
X162705904Y-125061190D01*
X164229714Y-125537380D02*
X163658285Y-125537380D01*
X163944000Y-125537380D02*
X163944000Y-124537380D01*
X163848761Y-124680238D01*
X163753523Y-124775476D01*
X163658285Y-124823095D01*
X143264095Y-80224380D02*
X143835523Y-80224380D01*
X143549809Y-81224380D02*
X143549809Y-80224380D01*
X144168857Y-81224380D02*
X144168857Y-80224380D01*
X144549809Y-80224380D01*
X144645047Y-80272000D01*
X144692666Y-80319619D01*
X144740285Y-80414857D01*
X144740285Y-80557714D01*
X144692666Y-80652952D01*
X144645047Y-80700571D01*
X144549809Y-80748190D01*
X144168857Y-80748190D01*
X145597428Y-80557714D02*
X145597428Y-81224380D01*
X145359333Y-80176761D02*
X145121238Y-80891047D01*
X145740285Y-80891047D01*
X131067095Y-129871380D02*
X131638523Y-129871380D01*
X131352809Y-130871380D02*
X131352809Y-129871380D01*
X131971857Y-130871380D02*
X131971857Y-129871380D01*
X132352809Y-129871380D01*
X132448047Y-129919000D01*
X132495666Y-129966619D01*
X132543285Y-130061857D01*
X132543285Y-130204714D01*
X132495666Y-130299952D01*
X132448047Y-130347571D01*
X132352809Y-130395190D01*
X131971857Y-130395190D01*
X132876619Y-129871380D02*
X133543285Y-129871380D01*
X133114714Y-130871380D01*
X171307380Y-80216333D02*
X172021666Y-80216333D01*
X172164523Y-80263952D01*
X172259761Y-80359190D01*
X172307380Y-80502047D01*
X172307380Y-80597285D01*
X171307380Y-79835380D02*
X171307380Y-79168714D01*
X172307380Y-79597285D01*
X196345095Y-123140380D02*
X196916523Y-123140380D01*
X196630809Y-124140380D02*
X196630809Y-123140380D01*
X197249857Y-124140380D02*
X197249857Y-123140380D01*
X197630809Y-123140380D01*
X197726047Y-123188000D01*
X197773666Y-123235619D01*
X197821285Y-123330857D01*
X197821285Y-123473714D01*
X197773666Y-123568952D01*
X197726047Y-123616571D01*
X197630809Y-123664190D01*
X197249857Y-123664190D01*
X198773666Y-124140380D02*
X198202238Y-124140380D01*
X198487952Y-124140380D02*
X198487952Y-123140380D01*
X198392714Y-123283238D01*
X198297476Y-123378476D01*
X198202238Y-123426095D01*
X189272666Y-108813380D02*
X189272666Y-109527666D01*
X189225047Y-109670523D01*
X189129809Y-109765761D01*
X188986952Y-109813380D01*
X188891714Y-109813380D01*
X190225047Y-108813380D02*
X189748857Y-108813380D01*
X189701238Y-109289571D01*
X189748857Y-109241952D01*
X189844095Y-109194333D01*
X190082190Y-109194333D01*
X190177428Y-109241952D01*
X190225047Y-109289571D01*
X190272666Y-109384809D01*
X190272666Y-109622904D01*
X190225047Y-109718142D01*
X190177428Y-109765761D01*
X190082190Y-109813380D01*
X189844095Y-109813380D01*
X189748857Y-109765761D01*
X189701238Y-109718142D01*
X165354095Y-82764380D02*
X165354095Y-83573904D01*
X165401714Y-83669142D01*
X165449333Y-83716761D01*
X165544571Y-83764380D01*
X165735047Y-83764380D01*
X165830285Y-83716761D01*
X165877904Y-83669142D01*
X165925523Y-83573904D01*
X165925523Y-82764380D01*
X166925523Y-83764380D02*
X166354095Y-83764380D01*
X166639809Y-83764380D02*
X166639809Y-82764380D01*
X166544571Y-82907238D01*
X166449333Y-83002476D01*
X166354095Y-83050095D01*
X144481380Y-131307904D02*
X145290904Y-131307904D01*
X145386142Y-131260285D01*
X145433761Y-131212666D01*
X145481380Y-131117428D01*
X145481380Y-130926952D01*
X145433761Y-130831714D01*
X145386142Y-130784095D01*
X145290904Y-130736476D01*
X144481380Y-130736476D01*
X144576619Y-130307904D02*
X144529000Y-130260285D01*
X144481380Y-130165047D01*
X144481380Y-129926952D01*
X144529000Y-129831714D01*
X144576619Y-129784095D01*
X144671857Y-129736476D01*
X144767095Y-129736476D01*
X144909952Y-129784095D01*
X145481380Y-130355523D01*
X145481380Y-129736476D01*
X196596095Y-137349380D02*
X196596095Y-136349380D01*
X196596095Y-136825571D02*
X197167523Y-136825571D01*
X197167523Y-137349380D02*
X197167523Y-136349380D01*
X198072285Y-136682714D02*
X198072285Y-137349380D01*
X197834190Y-136301761D02*
X197596095Y-137016047D01*
X198215142Y-137016047D01*
X128698666Y-85812380D02*
X128698666Y-86526666D01*
X128651047Y-86669523D01*
X128555809Y-86764761D01*
X128412952Y-86812380D01*
X128317714Y-86812380D01*
X129603428Y-85812380D02*
X129412952Y-85812380D01*
X129317714Y-85860000D01*
X129270095Y-85907619D01*
X129174857Y-86050476D01*
X129127238Y-86240952D01*
X129127238Y-86621904D01*
X129174857Y-86717142D01*
X129222476Y-86764761D01*
X129317714Y-86812380D01*
X129508190Y-86812380D01*
X129603428Y-86764761D01*
X129651047Y-86717142D01*
X129698666Y-86621904D01*
X129698666Y-86383809D01*
X129651047Y-86288571D01*
X129603428Y-86240952D01*
X129508190Y-86193333D01*
X129317714Y-86193333D01*
X129222476Y-86240952D01*
X129174857Y-86288571D01*
X129127238Y-86383809D01*
X164547333Y-120997142D02*
X164499714Y-121044761D01*
X164356857Y-121092380D01*
X164261619Y-121092380D01*
X164118761Y-121044761D01*
X164023523Y-120949523D01*
X163975904Y-120854285D01*
X163928285Y-120663809D01*
X163928285Y-120520952D01*
X163975904Y-120330476D01*
X164023523Y-120235238D01*
X164118761Y-120140000D01*
X164261619Y-120092380D01*
X164356857Y-120092380D01*
X164499714Y-120140000D01*
X164547333Y-120187619D01*
X165452095Y-120092380D02*
X164975904Y-120092380D01*
X164928285Y-120568571D01*
X164975904Y-120520952D01*
X165071142Y-120473333D01*
X165309238Y-120473333D01*
X165404476Y-120520952D01*
X165452095Y-120568571D01*
X165499714Y-120663809D01*
X165499714Y-120901904D01*
X165452095Y-120997142D01*
X165404476Y-121044761D01*
X165309238Y-121092380D01*
X165071142Y-121092380D01*
X164975904Y-121044761D01*
X164928285Y-120997142D01*
X168609142Y-93394666D02*
X168656761Y-93442285D01*
X168704380Y-93585142D01*
X168704380Y-93680380D01*
X168656761Y-93823238D01*
X168561523Y-93918476D01*
X168466285Y-93966095D01*
X168275809Y-94013714D01*
X168132952Y-94013714D01*
X167942476Y-93966095D01*
X167847238Y-93918476D01*
X167752000Y-93823238D01*
X167704380Y-93680380D01*
X167704380Y-93585142D01*
X167752000Y-93442285D01*
X167799619Y-93394666D01*
X168704380Y-92442285D02*
X168704380Y-93013714D01*
X168704380Y-92728000D02*
X167704380Y-92728000D01*
X167847238Y-92823238D01*
X167942476Y-92918476D01*
X167990095Y-93013714D01*
X141961333Y-112506142D02*
X141913714Y-112553761D01*
X141770857Y-112601380D01*
X141675619Y-112601380D01*
X141532761Y-112553761D01*
X141437523Y-112458523D01*
X141389904Y-112363285D01*
X141342285Y-112172809D01*
X141342285Y-112029952D01*
X141389904Y-111839476D01*
X141437523Y-111744238D01*
X141532761Y-111649000D01*
X141675619Y-111601380D01*
X141770857Y-111601380D01*
X141913714Y-111649000D01*
X141961333Y-111696619D01*
X142818476Y-111934714D02*
X142818476Y-112601380D01*
X142580380Y-111553761D02*
X142342285Y-112268047D01*
X142961333Y-112268047D01*
X152248333Y-119074142D02*
X152200714Y-119121761D01*
X152057857Y-119169380D01*
X151962619Y-119169380D01*
X151819761Y-119121761D01*
X151724523Y-119026523D01*
X151676904Y-118931285D01*
X151629285Y-118740809D01*
X151629285Y-118597952D01*
X151676904Y-118407476D01*
X151724523Y-118312238D01*
X151819761Y-118217000D01*
X151962619Y-118169380D01*
X152057857Y-118169380D01*
X152200714Y-118217000D01*
X152248333Y-118264619D01*
X152629285Y-118264619D02*
X152676904Y-118217000D01*
X152772142Y-118169380D01*
X153010238Y-118169380D01*
X153105476Y-118217000D01*
X153153095Y-118264619D01*
X153200714Y-118359857D01*
X153200714Y-118455095D01*
X153153095Y-118597952D01*
X152581666Y-119169380D01*
X153200714Y-119169380D01*
X196596095Y-67626380D02*
X196596095Y-66626380D01*
X196596095Y-67102571D02*
X197167523Y-67102571D01*
X197167523Y-67626380D02*
X197167523Y-66626380D01*
X197596095Y-66721619D02*
X197643714Y-66674000D01*
X197738952Y-66626380D01*
X197977047Y-66626380D01*
X198072285Y-66674000D01*
X198119904Y-66721619D01*
X198167523Y-66816857D01*
X198167523Y-66912095D01*
X198119904Y-67054952D01*
X197548476Y-67626380D01*
X198167523Y-67626380D01*
X126873095Y-67626380D02*
X126873095Y-66626380D01*
X126873095Y-67102571D02*
X127444523Y-67102571D01*
X127444523Y-67626380D02*
X127444523Y-66626380D01*
X128444523Y-67626380D02*
X127873095Y-67626380D01*
X128158809Y-67626380D02*
X128158809Y-66626380D01*
X128063571Y-66769238D01*
X127968333Y-66864476D01*
X127873095Y-66912095D01*
X179263380Y-106518095D02*
X178263380Y-106518095D01*
X178263380Y-106280000D01*
X178311000Y-106137142D01*
X178406238Y-106041904D01*
X178501476Y-105994285D01*
X178691952Y-105946666D01*
X178834809Y-105946666D01*
X179025285Y-105994285D01*
X179120523Y-106041904D01*
X179215761Y-106137142D01*
X179263380Y-106280000D01*
X179263380Y-106518095D01*
X179263380Y-104994285D02*
X179263380Y-105565714D01*
X179263380Y-105280000D02*
X178263380Y-105280000D01*
X178406238Y-105375238D01*
X178501476Y-105470476D01*
X178549095Y-105565714D01*
X182454380Y-94557333D02*
X183168666Y-94557333D01*
X183311523Y-94604952D01*
X183406761Y-94700190D01*
X183454380Y-94843047D01*
X183454380Y-94938285D01*
X182454380Y-94176380D02*
X182454380Y-93557333D01*
X182835333Y-93890666D01*
X182835333Y-93747809D01*
X182882952Y-93652571D01*
X182930571Y-93604952D01*
X183025809Y-93557333D01*
X183263904Y-93557333D01*
X183359142Y-93604952D01*
X183406761Y-93652571D01*
X183454380Y-93747809D01*
X183454380Y-94033523D01*
X183406761Y-94128761D01*
X183359142Y-94176380D01*
X196345095Y-119203380D02*
X196916523Y-119203380D01*
X196630809Y-120203380D02*
X196630809Y-119203380D01*
X197249857Y-120203380D02*
X197249857Y-119203380D01*
X197630809Y-119203380D01*
X197726047Y-119251000D01*
X197773666Y-119298619D01*
X197821285Y-119393857D01*
X197821285Y-119536714D01*
X197773666Y-119631952D01*
X197726047Y-119679571D01*
X197630809Y-119727190D01*
X197249857Y-119727190D01*
X198202238Y-119298619D02*
X198249857Y-119251000D01*
X198345095Y-119203380D01*
X198583190Y-119203380D01*
X198678428Y-119251000D01*
X198726047Y-119298619D01*
X198773666Y-119393857D01*
X198773666Y-119489095D01*
X198726047Y-119631952D01*
X198154619Y-120203380D01*
X198773666Y-120203380D01*
X137755333Y-81097380D02*
X137422000Y-80621190D01*
X137183904Y-81097380D02*
X137183904Y-80097380D01*
X137564857Y-80097380D01*
X137660095Y-80145000D01*
X137707714Y-80192619D01*
X137755333Y-80287857D01*
X137755333Y-80430714D01*
X137707714Y-80525952D01*
X137660095Y-80573571D01*
X137564857Y-80621190D01*
X137183904Y-80621190D01*
X138612476Y-80097380D02*
X138422000Y-80097380D01*
X138326761Y-80145000D01*
X138279142Y-80192619D01*
X138183904Y-80335476D01*
X138136285Y-80525952D01*
X138136285Y-80906904D01*
X138183904Y-81002142D01*
X138231523Y-81049761D01*
X138326761Y-81097380D01*
X138517238Y-81097380D01*
X138612476Y-81049761D01*
X138660095Y-81002142D01*
X138707714Y-80906904D01*
X138707714Y-80668809D01*
X138660095Y-80573571D01*
X138612476Y-80525952D01*
X138517238Y-80478333D01*
X138326761Y-80478333D01*
X138231523Y-80525952D01*
X138183904Y-80573571D01*
X138136285Y-80668809D01*
X142454333Y-88252380D02*
X142121000Y-87776190D01*
X141882904Y-88252380D02*
X141882904Y-87252380D01*
X142263857Y-87252380D01*
X142359095Y-87300000D01*
X142406714Y-87347619D01*
X142454333Y-87442857D01*
X142454333Y-87585714D01*
X142406714Y-87680952D01*
X142359095Y-87728571D01*
X142263857Y-87776190D01*
X141882904Y-87776190D01*
X143311476Y-87585714D02*
X143311476Y-88252380D01*
X143073380Y-87204761D02*
X142835285Y-87919047D01*
X143454333Y-87919047D01*
X136694666Y-135054380D02*
X136694666Y-135768666D01*
X136647047Y-135911523D01*
X136551809Y-136006761D01*
X136408952Y-136054380D01*
X136313714Y-136054380D01*
X137694666Y-136054380D02*
X137123238Y-136054380D01*
X137408952Y-136054380D02*
X137408952Y-135054380D01*
X137313714Y-135197238D01*
X137218476Y-135292476D01*
X137123238Y-135340095D01*
X132914666Y-90281380D02*
X132914666Y-90995666D01*
X132867047Y-91138523D01*
X132771809Y-91233761D01*
X132628952Y-91281380D01*
X132533714Y-91281380D01*
X133819428Y-90614714D02*
X133819428Y-91281380D01*
X133581333Y-90233761D02*
X133343238Y-90948047D01*
X133962285Y-90948047D01*
X185402380Y-92993666D02*
X184926190Y-93327000D01*
X185402380Y-93565095D02*
X184402380Y-93565095D01*
X184402380Y-93184142D01*
X184450000Y-93088904D01*
X184497619Y-93041285D01*
X184592857Y-92993666D01*
X184735714Y-92993666D01*
X184830952Y-93041285D01*
X184878571Y-93088904D01*
X184926190Y-93184142D01*
X184926190Y-93565095D01*
X184402380Y-92088904D02*
X184402380Y-92565095D01*
X184878571Y-92612714D01*
X184830952Y-92565095D01*
X184783333Y-92469857D01*
X184783333Y-92231761D01*
X184830952Y-92136523D01*
X184878571Y-92088904D01*
X184973809Y-92041285D01*
X185211904Y-92041285D01*
X185307142Y-92088904D01*
X185354761Y-92136523D01*
X185402380Y-92231761D01*
X185402380Y-92469857D01*
X185354761Y-92565095D01*
X185307142Y-92612714D01*
X196345095Y-115139380D02*
X196916523Y-115139380D01*
X196630809Y-116139380D02*
X196630809Y-115139380D01*
X197249857Y-116139380D02*
X197249857Y-115139380D01*
X197630809Y-115139380D01*
X197726047Y-115187000D01*
X197773666Y-115234619D01*
X197821285Y-115329857D01*
X197821285Y-115472714D01*
X197773666Y-115567952D01*
X197726047Y-115615571D01*
X197630809Y-115663190D01*
X197249857Y-115663190D01*
X198154619Y-115139380D02*
X198773666Y-115139380D01*
X198440333Y-115520333D01*
X198583190Y-115520333D01*
X198678428Y-115567952D01*
X198726047Y-115615571D01*
X198773666Y-115710809D01*
X198773666Y-115948904D01*
X198726047Y-116044142D01*
X198678428Y-116091761D01*
X198583190Y-116139380D01*
X198297476Y-116139380D01*
X198202238Y-116091761D01*
X198154619Y-116044142D01*
X131170380Y-124656333D02*
X131884666Y-124656333D01*
X132027523Y-124703952D01*
X132122761Y-124799190D01*
X132170380Y-124942047D01*
X132170380Y-125037285D01*
X131265619Y-124227761D02*
X131218000Y-124180142D01*
X131170380Y-124084904D01*
X131170380Y-123846809D01*
X131218000Y-123751571D01*
X131265619Y-123703952D01*
X131360857Y-123656333D01*
X131456095Y-123656333D01*
X131598952Y-123703952D01*
X132170380Y-124275380D01*
X132170380Y-123656333D01*
X167516095Y-115774380D02*
X168087523Y-115774380D01*
X167801809Y-116774380D02*
X167801809Y-115774380D01*
X168420857Y-116774380D02*
X168420857Y-115774380D01*
X168801809Y-115774380D01*
X168897047Y-115822000D01*
X168944666Y-115869619D01*
X168992285Y-115964857D01*
X168992285Y-116107714D01*
X168944666Y-116202952D01*
X168897047Y-116250571D01*
X168801809Y-116298190D01*
X168420857Y-116298190D01*
X169849428Y-115774380D02*
X169658952Y-115774380D01*
X169563714Y-115822000D01*
X169516095Y-115869619D01*
X169420857Y-116012476D01*
X169373238Y-116202952D01*
X169373238Y-116583904D01*
X169420857Y-116679142D01*
X169468476Y-116726761D01*
X169563714Y-116774380D01*
X169754190Y-116774380D01*
X169849428Y-116726761D01*
X169897047Y-116679142D01*
X169944666Y-116583904D01*
X169944666Y-116345809D01*
X169897047Y-116250571D01*
X169849428Y-116202952D01*
X169754190Y-116155333D01*
X169563714Y-116155333D01*
X169468476Y-116202952D01*
X169420857Y-116250571D01*
X169373238Y-116345809D01*
X146402190Y-108035190D02*
X146878380Y-108035190D01*
X145878380Y-108368523D02*
X146402190Y-108035190D01*
X145878380Y-107701857D01*
X146878380Y-106844714D02*
X146878380Y-107416142D01*
X146878380Y-107130428D02*
X145878380Y-107130428D01*
X146021238Y-107225666D01*
X146116476Y-107320904D01*
X146164095Y-107416142D01*
X163277333Y-130617380D02*
X162944000Y-130141190D01*
X162705904Y-130617380D02*
X162705904Y-129617380D01*
X163086857Y-129617380D01*
X163182095Y-129665000D01*
X163229714Y-129712619D01*
X163277333Y-129807857D01*
X163277333Y-129950714D01*
X163229714Y-130045952D01*
X163182095Y-130093571D01*
X163086857Y-130141190D01*
X162705904Y-130141190D01*
X163658285Y-129712619D02*
X163705904Y-129665000D01*
X163801142Y-129617380D01*
X164039238Y-129617380D01*
X164134476Y-129665000D01*
X164182095Y-129712619D01*
X164229714Y-129807857D01*
X164229714Y-129903095D01*
X164182095Y-130045952D01*
X163610666Y-130617380D01*
X164229714Y-130617380D01*
X140089095Y-93178380D02*
X140660523Y-93178380D01*
X140374809Y-94178380D02*
X140374809Y-93178380D01*
X140993857Y-94178380D02*
X140993857Y-93178380D01*
X141374809Y-93178380D01*
X141470047Y-93226000D01*
X141517666Y-93273619D01*
X141565285Y-93368857D01*
X141565285Y-93511714D01*
X141517666Y-93606952D01*
X141470047Y-93654571D01*
X141374809Y-93702190D01*
X140993857Y-93702190D01*
X142470047Y-93178380D02*
X141993857Y-93178380D01*
X141946238Y-93654571D01*
X141993857Y-93606952D01*
X142089095Y-93559333D01*
X142327190Y-93559333D01*
X142422428Y-93606952D01*
X142470047Y-93654571D01*
X142517666Y-93749809D01*
X142517666Y-93987904D01*
X142470047Y-94083142D01*
X142422428Y-94130761D01*
X142327190Y-94178380D01*
X142089095Y-94178380D01*
X141993857Y-94130761D01*
X141946238Y-94083142D01*
X142454333Y-83426380D02*
X142121000Y-82950190D01*
X141882904Y-83426380D02*
X141882904Y-82426380D01*
X142263857Y-82426380D01*
X142359095Y-82474000D01*
X142406714Y-82521619D01*
X142454333Y-82616857D01*
X142454333Y-82759714D01*
X142406714Y-82854952D01*
X142359095Y-82902571D01*
X142263857Y-82950190D01*
X141882904Y-82950190D01*
X142787666Y-82426380D02*
X143406714Y-82426380D01*
X143073380Y-82807333D01*
X143216238Y-82807333D01*
X143311476Y-82854952D01*
X143359095Y-82902571D01*
X143406714Y-82997809D01*
X143406714Y-83235904D01*
X143359095Y-83331142D01*
X143311476Y-83378761D01*
X143216238Y-83426380D01*
X142930523Y-83426380D01*
X142835285Y-83378761D01*
X142787666Y-83331142D01*
X141961333Y-107680142D02*
X141913714Y-107727761D01*
X141770857Y-107775380D01*
X141675619Y-107775380D01*
X141532761Y-107727761D01*
X141437523Y-107632523D01*
X141389904Y-107537285D01*
X141342285Y-107346809D01*
X141342285Y-107203952D01*
X141389904Y-107013476D01*
X141437523Y-106918238D01*
X141532761Y-106823000D01*
X141675619Y-106775380D01*
X141770857Y-106775380D01*
X141913714Y-106823000D01*
X141961333Y-106870619D01*
X142294666Y-106775380D02*
X142913714Y-106775380D01*
X142580380Y-107156333D01*
X142723238Y-107156333D01*
X142818476Y-107203952D01*
X142866095Y-107251571D01*
X142913714Y-107346809D01*
X142913714Y-107584904D01*
X142866095Y-107680142D01*
X142818476Y-107727761D01*
X142723238Y-107775380D01*
X142437523Y-107775380D01*
X142342285Y-107727761D01*
X142294666Y-107680142D01*
X126873095Y-137349380D02*
X126873095Y-136349380D01*
X126873095Y-136825571D02*
X127444523Y-136825571D01*
X127444523Y-137349380D02*
X127444523Y-136349380D01*
X127825476Y-136349380D02*
X128444523Y-136349380D01*
X128111190Y-136730333D01*
X128254047Y-136730333D01*
X128349285Y-136777952D01*
X128396904Y-136825571D01*
X128444523Y-136920809D01*
X128444523Y-137158904D01*
X128396904Y-137254142D01*
X128349285Y-137301761D01*
X128254047Y-137349380D01*
X127968333Y-137349380D01*
X127873095Y-137301761D01*
X127825476Y-137254142D01*
D12*
X159348000Y-123715000D02*
X152808000Y-123715000D01*
X152808000Y-123715000D02*
X152808000Y-126455000D01*
X159348000Y-126455000D02*
X159348000Y-123715000D01*
X152038000Y-125085000D02*
X152808000Y-125085000D01*
X152808000Y-126455000D02*
X159348000Y-126455000D01*
X160118000Y-125085000D02*
X159348000Y-125085000D01*
X149151000Y-83238000D02*
X146251000Y-83238000D01*
X146251000Y-83238000D02*
X146251000Y-80338000D01*
X149151000Y-80338000D02*
X149151000Y-83238000D01*
X146251000Y-80338000D02*
X149151000Y-80338000D01*
X133779000Y-131382000D02*
X133779000Y-134282000D01*
X130879000Y-131382000D02*
X133779000Y-131382000D01*
X133779000Y-134282000D02*
X130879000Y-134282000D01*
X130879000Y-134282000D02*
X130879000Y-131382000D01*
X178495000Y-81213000D02*
X178495000Y-78553000D01*
X173295000Y-79883000D02*
X173295000Y-78553000D01*
X173295000Y-78553000D02*
X174625000Y-78553000D01*
X175895000Y-78553000D02*
X178495000Y-78553000D01*
X175895000Y-81213000D02*
X178495000Y-81213000D01*
X175895000Y-81213000D02*
X175895000Y-78553000D01*
X195755000Y-125138000D02*
X192855000Y-125138000D01*
X195755000Y-122238000D02*
X195755000Y-125138000D01*
X192855000Y-125138000D02*
X192855000Y-122238000D01*
X192855000Y-122238000D02*
X195755000Y-122238000D01*
X188276000Y-131241000D02*
X190936000Y-131241000D01*
X190936000Y-110801000D02*
X190936000Y-112131000D01*
X188276000Y-113401000D02*
X188276000Y-131241000D01*
X189606000Y-110801000D02*
X190936000Y-110801000D01*
X188276000Y-113401000D02*
X190936000Y-113401000D01*
X190936000Y-113401000D02*
X190936000Y-131241000D01*
X162675000Y-116519000D02*
X162675000Y-80839000D01*
X162675000Y-80839000D02*
X161025000Y-80839000D01*
X157375000Y-80839000D02*
X157375000Y-116519000D01*
X157375000Y-116519000D02*
X162675000Y-116519000D01*
X159025000Y-80839000D02*
X157375000Y-80839000D01*
X159025000Y-80839000D02*
G75*
G03*
X161025000Y-80839000I1000000J0D01*
G01*
X142775000Y-126173000D02*
X144285000Y-126173000D01*
X142775000Y-129443000D02*
X147416000Y-129443000D01*
X144285000Y-129443000D02*
X144285000Y-119203000D01*
X142775000Y-129443000D02*
X142775000Y-119203000D01*
X142775000Y-122472000D02*
X144285000Y-122472000D01*
X142775000Y-119203000D02*
X147416000Y-119203000D01*
X147416000Y-129443000D02*
X147416000Y-119203000D01*
X129032000Y-77029000D02*
X130362000Y-77029000D01*
X130362000Y-79629000D02*
X130362000Y-84769000D01*
X127702000Y-84769000D02*
X130362000Y-84769000D01*
X127702000Y-79629000D02*
X130362000Y-79629000D01*
X130362000Y-77029000D02*
X130362000Y-78359000D01*
X127702000Y-79629000D02*
X127702000Y-84769000D01*
X160636000Y-121560000D02*
X161894000Y-121560000D01*
X160636000Y-119720000D02*
X161894000Y-119720000D01*
X169382000Y-93857000D02*
X169382000Y-92599000D01*
X171222000Y-93857000D02*
X171222000Y-92599000D01*
X142757000Y-111019000D02*
X141499000Y-111019000D01*
X142757000Y-109179000D02*
X141499000Y-109179000D01*
X151786000Y-121687000D02*
X153044000Y-121687000D01*
X151786000Y-119847000D02*
X153044000Y-119847000D01*
X177906000Y-108030000D02*
X177906000Y-104130000D01*
X175906000Y-108030000D02*
X175906000Y-104130000D01*
X175906000Y-108030000D02*
X177906000Y-108030000D01*
X173773500Y-88033000D02*
X180273500Y-88033000D01*
X173773500Y-100933000D02*
X173773500Y-88033000D01*
X180273500Y-88033000D02*
X180273500Y-92433000D01*
X180273500Y-92433000D02*
X181583500Y-92433000D01*
X172463500Y-102233000D02*
X172463500Y-86733000D01*
X180273500Y-96533000D02*
X180273500Y-100933000D01*
X181583500Y-102233000D02*
X172463500Y-102233000D01*
X180273500Y-100933000D02*
X173773500Y-100933000D01*
X182973500Y-97523000D02*
X182973500Y-96523000D01*
X181583500Y-86733000D02*
X181583500Y-102233000D01*
X182973500Y-96523000D02*
X181973500Y-97023000D01*
X181583500Y-96533000D02*
X180273500Y-96533000D01*
X180273500Y-92433000D02*
X180273500Y-92433000D01*
X181973500Y-97023000D02*
X182973500Y-97523000D01*
X172463500Y-86733000D02*
X181583500Y-86733000D01*
X192855000Y-118301000D02*
X195755000Y-118301000D01*
X195755000Y-118301000D02*
X195755000Y-121201000D01*
X192855000Y-121201000D02*
X192855000Y-118301000D01*
X195755000Y-121201000D02*
X192855000Y-121201000D01*
X134652000Y-79729000D02*
X141192000Y-79729000D01*
X141962000Y-78359000D02*
X141192000Y-78359000D01*
X133882000Y-78359000D02*
X134652000Y-78359000D01*
X141192000Y-79729000D02*
X141192000Y-76989000D01*
X134652000Y-76989000D02*
X134652000Y-79729000D01*
X141192000Y-76989000D02*
X134652000Y-76989000D01*
X145891000Y-88800000D02*
X139351000Y-88800000D01*
X139351000Y-91540000D02*
X145891000Y-91540000D01*
X138581000Y-90170000D02*
X139351000Y-90170000D01*
X139351000Y-88800000D02*
X139351000Y-91540000D01*
X145891000Y-91540000D02*
X145891000Y-88800000D01*
X146661000Y-90170000D02*
X145891000Y-90170000D01*
X138358000Y-131562000D02*
X138358000Y-128962000D01*
X135698000Y-134162000D02*
X135698000Y-132832000D01*
X135698000Y-131562000D02*
X135698000Y-128962000D01*
X138358000Y-131562000D02*
X135698000Y-131562000D01*
X138358000Y-128962000D02*
X135698000Y-128962000D01*
X137028000Y-134162000D02*
X135698000Y-134162000D01*
X134578000Y-92269000D02*
X134578000Y-93599000D01*
X131918000Y-94869000D02*
X131918000Y-102549000D01*
X131918000Y-94869000D02*
X134578000Y-94869000D01*
X131918000Y-102549000D02*
X134578000Y-102549000D01*
X134578000Y-94869000D02*
X134578000Y-102549000D01*
X133248000Y-92269000D02*
X134578000Y-92269000D01*
X185950000Y-96097000D02*
X188690000Y-96097000D01*
X187320000Y-96867000D02*
X187320000Y-96097000D01*
X188690000Y-96097000D02*
X188690000Y-89557000D01*
X185950000Y-89557000D02*
X185950000Y-96097000D01*
X187320000Y-88787000D02*
X187320000Y-89557000D01*
X188690000Y-89557000D02*
X185950000Y-89557000D01*
X195755000Y-117137000D02*
X192855000Y-117137000D01*
X192855000Y-114237000D02*
X195755000Y-114237000D01*
X195755000Y-114237000D02*
X195755000Y-117137000D01*
X192855000Y-117137000D02*
X192855000Y-114237000D01*
X135758000Y-125653000D02*
X135758000Y-122993000D01*
X135758000Y-125653000D02*
X140898000Y-125653000D01*
X140898000Y-125653000D02*
X140898000Y-122993000D01*
X135758000Y-122993000D02*
X140898000Y-122993000D01*
X133158000Y-122993000D02*
X134488000Y-122993000D01*
X133158000Y-124323000D02*
X133158000Y-122993000D01*
X167328000Y-117285000D02*
X170228000Y-117285000D01*
X170228000Y-120185000D02*
X167328000Y-120185000D01*
X167328000Y-120185000D02*
X167328000Y-117285000D01*
X170228000Y-117285000D02*
X170228000Y-120185000D01*
X152507000Y-104588000D02*
X152507000Y-110838000D01*
X147457000Y-104588000D02*
X147457000Y-110838000D01*
X152507000Y-104588000D02*
G75*
G03*
X147457000Y-104588000I-2525000J0D01*
G01*
X147457000Y-110838000D02*
G75*
G03*
X152507000Y-110838000I2525000J0D01*
G01*
X160118000Y-130165000D02*
X159348000Y-130165000D01*
X152038000Y-130165000D02*
X152808000Y-130165000D01*
X159348000Y-131535000D02*
X159348000Y-128795000D01*
X152808000Y-131535000D02*
X159348000Y-131535000D01*
X159348000Y-128795000D02*
X152808000Y-128795000D01*
X152808000Y-128795000D02*
X152808000Y-131535000D01*
X144092000Y-92276000D02*
X146992000Y-92276000D01*
X144092000Y-95176000D02*
X144092000Y-92276000D01*
X146992000Y-95176000D02*
X144092000Y-95176000D01*
X146992000Y-92276000D02*
X146992000Y-95176000D01*
X145891000Y-86714000D02*
X145891000Y-83974000D01*
X146661000Y-85344000D02*
X145891000Y-85344000D01*
X139351000Y-83974000D02*
X139351000Y-86714000D01*
X138581000Y-85344000D02*
X139351000Y-85344000D01*
X145891000Y-83974000D02*
X139351000Y-83974000D01*
X139351000Y-86714000D02*
X145891000Y-86714000D01*
X142757000Y-104353000D02*
X141499000Y-104353000D01*
X142757000Y-106193000D02*
X141499000Y-106193000D01*
M02*
