G04 #@! TF.GenerationSoftware,KiCad,Pcbnew,(6.0.10-0)*
G04 #@! TF.CreationDate,2023-03-01T17:49:14-06:00*
G04 #@! TF.ProjectId,monitor_subsystem,6d6f6e69-746f-4725-9f73-756273797374,rev?*
G04 #@! TF.SameCoordinates,Original*
G04 #@! TF.FileFunction,Copper,L2,Bot*
G04 #@! TF.FilePolarity,Positive*
%FSLAX46Y46*%
G04 Gerber Fmt 4.6, Leading zero omitted, Abs format (unit mm)*
G04 Created by KiCad (PCBNEW (6.0.10-0)) date 2023-03-01 17:49:14*
%MOMM*%
%LPD*%
G01*
G04 APERTURE LIST*
G04 Aperture macros list*
%AMRoundRect*
0 Rectangle with rounded corners*
0 $1 Rounding radius*
0 $2 $3 $4 $5 $6 $7 $8 $9 X,Y pos of 4 corners*
0 Add a 4 corners polygon primitive as box body*
4,1,4,$2,$3,$4,$5,$6,$7,$8,$9,$2,$3,0*
0 Add four circle primitives for the rounded corners*
1,1,$1+$1,$2,$3*
1,1,$1+$1,$4,$5*
1,1,$1+$1,$6,$7*
1,1,$1+$1,$8,$9*
0 Add four rect primitives between the rounded corners*
20,1,$1+$1,$2,$3,$4,$5,0*
20,1,$1+$1,$4,$5,$6,$7,0*
20,1,$1+$1,$6,$7,$8,$9,0*
20,1,$1+$1,$8,$9,$2,$3,0*%
G04 Aperture macros list end*
G04 #@! TA.AperFunction,ComponentPad*
%ADD10C,1.600000*%
G04 #@! TD*
G04 #@! TA.AperFunction,ComponentPad*
%ADD11O,1.600000X1.600000*%
G04 #@! TD*
G04 #@! TA.AperFunction,ComponentPad*
%ADD12R,2.500000X2.500000*%
G04 #@! TD*
G04 #@! TA.AperFunction,ComponentPad*
%ADD13R,1.700000X1.700000*%
G04 #@! TD*
G04 #@! TA.AperFunction,ComponentPad*
%ADD14O,1.700000X1.700000*%
G04 #@! TD*
G04 #@! TA.AperFunction,ComponentPad*
%ADD15R,1.600000X1.600000*%
G04 #@! TD*
G04 #@! TA.AperFunction,ComponentPad*
%ADD16R,2.000000X1.905000*%
G04 #@! TD*
G04 #@! TA.AperFunction,ComponentPad*
%ADD17O,2.000000X1.905000*%
G04 #@! TD*
G04 #@! TA.AperFunction,ComponentPad*
%ADD18RoundRect,0.250000X0.600000X0.600000X-0.600000X0.600000X-0.600000X-0.600000X0.600000X-0.600000X0*%
G04 #@! TD*
G04 #@! TA.AperFunction,ComponentPad*
%ADD19C,1.700000*%
G04 #@! TD*
G04 #@! TA.AperFunction,ComponentPad*
%ADD20C,1.500000*%
G04 #@! TD*
G04 #@! TA.AperFunction,ViaPad*
%ADD21C,0.800000*%
G04 #@! TD*
G04 #@! TA.AperFunction,Conductor*
%ADD22C,0.254000*%
G04 #@! TD*
G04 #@! TA.AperFunction,Conductor*
%ADD23C,0.250000*%
G04 #@! TD*
G04 APERTURE END LIST*
D10*
X150998000Y-125085000D03*
D11*
X161158000Y-125085000D03*
D12*
X147701000Y-81788000D03*
X132329000Y-132832000D03*
D13*
X174625000Y-79883000D03*
D14*
X177165000Y-79883000D03*
D12*
X194305000Y-123688000D03*
D13*
X189606000Y-112131000D03*
D14*
X189606000Y-114671000D03*
X189606000Y-117211000D03*
X189606000Y-119751000D03*
X189606000Y-122291000D03*
X189606000Y-124831000D03*
X189606000Y-127371000D03*
X189606000Y-129911000D03*
D15*
X156215000Y-82169000D03*
D11*
X156215000Y-84709000D03*
X156215000Y-87249000D03*
X156215000Y-89789000D03*
X156215000Y-92329000D03*
X156215000Y-94869000D03*
X156215000Y-97409000D03*
X156215000Y-99949000D03*
X156215000Y-102489000D03*
X156215000Y-105029000D03*
X156215000Y-107569000D03*
X156215000Y-110109000D03*
X156215000Y-112649000D03*
X156215000Y-115189000D03*
X163835000Y-115189000D03*
X163835000Y-112649000D03*
X163835000Y-110109000D03*
X163835000Y-107569000D03*
X163835000Y-105029000D03*
X163835000Y-102489000D03*
X163835000Y-99949000D03*
X163835000Y-97409000D03*
X163835000Y-94869000D03*
X163835000Y-92329000D03*
X163835000Y-89789000D03*
X163835000Y-87249000D03*
X163835000Y-84709000D03*
X163835000Y-82169000D03*
D16*
X146045000Y-126863000D03*
D17*
X146045000Y-124323000D03*
X146045000Y-121783000D03*
D13*
X129032000Y-78359000D03*
D14*
X129032000Y-80899000D03*
X129032000Y-83439000D03*
D10*
X160015000Y-120640000D03*
X162515000Y-120640000D03*
X170302000Y-94478000D03*
X170302000Y-91978000D03*
X143378000Y-110099000D03*
X140878000Y-110099000D03*
X151165000Y-120767000D03*
X153665000Y-120767000D03*
D18*
X178293500Y-97023000D03*
D19*
X175753500Y-97023000D03*
X178293500Y-94483000D03*
X175753500Y-94483000D03*
X178293500Y-91943000D03*
X175753500Y-91943000D03*
D12*
X194305000Y-119751000D03*
D10*
X143002000Y-78359000D03*
D11*
X132842000Y-78359000D03*
D10*
X137541000Y-90170000D03*
D11*
X147701000Y-90170000D03*
D13*
X137028000Y-132832000D03*
D14*
X137028000Y-130292000D03*
D13*
X133248000Y-93599000D03*
D14*
X133248000Y-96139000D03*
X133248000Y-98679000D03*
X133248000Y-101219000D03*
D10*
X187320000Y-97907000D03*
D11*
X187320000Y-87747000D03*
D12*
X194305000Y-115687000D03*
D13*
X134488000Y-124323000D03*
D14*
X137028000Y-124323000D03*
X139568000Y-124323000D03*
D12*
X168778000Y-118735000D03*
D20*
X149982000Y-105273000D03*
X149982000Y-110153000D03*
D10*
X150998000Y-130165000D03*
D11*
X161158000Y-130165000D03*
D12*
X145542000Y-93726000D03*
D10*
X137541000Y-85344000D03*
D11*
X147701000Y-85344000D03*
D10*
X143378000Y-105273000D03*
X140878000Y-105273000D03*
D21*
X167381000Y-107559000D03*
X169032000Y-103368000D03*
X140711000Y-132959000D03*
D22*
X171953000Y-108956000D02*
X175382000Y-108956000D01*
X170556000Y-107559000D02*
X167381000Y-107559000D01*
X175382000Y-108956000D02*
X186177000Y-119751000D01*
X178303000Y-99812000D02*
X178303000Y-97032500D01*
X186177000Y-119751000D02*
X189606000Y-119751000D01*
X170556000Y-107559000D02*
X171953000Y-108956000D01*
X178303000Y-99812000D02*
X170556000Y-107559000D01*
X183383000Y-113274000D02*
X183383000Y-99572500D01*
X174229000Y-95758000D02*
X169032000Y-100955000D01*
X189606000Y-117211000D02*
X187315000Y-117211000D01*
X187315000Y-117206000D02*
X187315000Y-117211000D01*
X183383000Y-99572500D02*
X178293500Y-94483000D01*
X183383000Y-113274000D02*
X187315000Y-117206000D01*
X169032000Y-100955000D02*
X169032000Y-103368000D01*
X177018500Y-95758000D02*
X174229000Y-95758000D01*
X178293500Y-94483000D02*
X177018500Y-95758000D01*
X173101000Y-110109000D02*
X185293000Y-122301000D01*
X166238000Y-109479000D02*
X165608000Y-110109000D01*
X166238000Y-102098000D02*
X166238000Y-108321000D01*
X166238000Y-108321000D02*
X166238000Y-109479000D01*
X185303000Y-122291000D02*
X189606000Y-122291000D01*
X173853000Y-94483000D02*
X175753500Y-94483000D01*
X166238000Y-102098000D02*
X173853000Y-94483000D01*
X163835000Y-110109000D02*
X173101000Y-110109000D01*
D23*
X161661000Y-111369000D02*
X157861000Y-107569000D01*
X184907000Y-124831000D02*
X171445000Y-111369000D01*
X171445000Y-111369000D02*
X161661000Y-111369000D01*
X157861000Y-107569000D02*
X156215000Y-107569000D01*
X189606000Y-124831000D02*
X184907000Y-124831000D01*
X171572000Y-113909000D02*
X161788000Y-113909000D01*
X161788000Y-113909000D02*
X157988000Y-110109000D01*
X157988000Y-110109000D02*
X156215000Y-110109000D01*
X189606000Y-127371000D02*
X185034000Y-127371000D01*
X185034000Y-127371000D02*
X171572000Y-113909000D01*
X185796000Y-129911000D02*
X177541000Y-121656000D01*
X166995000Y-121656000D02*
X157988000Y-112649000D01*
X157988000Y-112649000D02*
X156215000Y-112649000D01*
X177541000Y-121656000D02*
X166995000Y-121656000D01*
X189606000Y-129911000D02*
X185796000Y-129911000D01*
G04 #@! TA.AperFunction,Conductor*
G36*
X200983121Y-75712002D02*
G01*
X201029614Y-75765658D01*
X201041000Y-75818000D01*
X201041000Y-137161000D01*
X201020998Y-137229121D01*
X200967342Y-137275614D01*
X200915000Y-137287000D01*
X124967000Y-137287000D01*
X124898879Y-137266998D01*
X124852386Y-137213342D01*
X124841000Y-137161000D01*
X124841000Y-134126669D01*
X130571001Y-134126669D01*
X130571371Y-134133490D01*
X130576895Y-134184352D01*
X130580521Y-134199604D01*
X130625676Y-134320054D01*
X130634214Y-134335649D01*
X130710715Y-134437724D01*
X130723276Y-134450285D01*
X130825351Y-134526786D01*
X130840946Y-134535324D01*
X130961394Y-134580478D01*
X130976649Y-134584105D01*
X131027514Y-134589631D01*
X131034328Y-134590000D01*
X132056885Y-134590000D01*
X132072124Y-134585525D01*
X132073329Y-134584135D01*
X132075000Y-134576452D01*
X132075000Y-134571884D01*
X132583000Y-134571884D01*
X132587475Y-134587123D01*
X132588865Y-134588328D01*
X132596548Y-134589999D01*
X133623669Y-134589999D01*
X133630490Y-134589629D01*
X133681352Y-134584105D01*
X133696604Y-134580479D01*
X133817054Y-134535324D01*
X133832649Y-134526786D01*
X133934724Y-134450285D01*
X133947285Y-134437724D01*
X134023786Y-134335649D01*
X134032324Y-134320054D01*
X134077478Y-134199606D01*
X134081105Y-134184351D01*
X134086631Y-134133486D01*
X134087000Y-134126672D01*
X134087000Y-133726669D01*
X135670001Y-133726669D01*
X135670371Y-133733490D01*
X135675895Y-133784352D01*
X135679521Y-133799604D01*
X135724676Y-133920054D01*
X135733214Y-133935649D01*
X135809715Y-134037724D01*
X135822276Y-134050285D01*
X135924351Y-134126786D01*
X135939946Y-134135324D01*
X136060394Y-134180478D01*
X136075649Y-134184105D01*
X136126514Y-134189631D01*
X136133328Y-134190000D01*
X136755885Y-134190000D01*
X136771124Y-134185525D01*
X136772329Y-134184135D01*
X136774000Y-134176452D01*
X136774000Y-134171884D01*
X137282000Y-134171884D01*
X137286475Y-134187123D01*
X137287865Y-134188328D01*
X137295548Y-134189999D01*
X137922669Y-134189999D01*
X137929490Y-134189629D01*
X137980352Y-134184105D01*
X137995604Y-134180479D01*
X138116054Y-134135324D01*
X138131649Y-134126786D01*
X138233724Y-134050285D01*
X138246285Y-134037724D01*
X138322786Y-133935649D01*
X138331324Y-133920054D01*
X138376478Y-133799606D01*
X138380105Y-133784351D01*
X138385631Y-133733486D01*
X138386000Y-133726672D01*
X138386000Y-133104115D01*
X138381525Y-133088876D01*
X138380135Y-133087671D01*
X138372452Y-133086000D01*
X137300115Y-133086000D01*
X137284876Y-133090475D01*
X137283671Y-133091865D01*
X137282000Y-133099548D01*
X137282000Y-134171884D01*
X136774000Y-134171884D01*
X136774000Y-133104115D01*
X136769525Y-133088876D01*
X136768135Y-133087671D01*
X136760452Y-133086000D01*
X135688116Y-133086000D01*
X135672877Y-133090475D01*
X135671672Y-133091865D01*
X135670001Y-133099548D01*
X135670001Y-133726669D01*
X134087000Y-133726669D01*
X134087000Y-133104115D01*
X134082525Y-133088876D01*
X134081135Y-133087671D01*
X134073452Y-133086000D01*
X132601115Y-133086000D01*
X132585876Y-133090475D01*
X132584671Y-133091865D01*
X132583000Y-133099548D01*
X132583000Y-134571884D01*
X132075000Y-134571884D01*
X132075000Y-133104115D01*
X132070525Y-133088876D01*
X132069135Y-133087671D01*
X132061452Y-133086000D01*
X130589116Y-133086000D01*
X130573877Y-133090475D01*
X130572672Y-133091865D01*
X130571001Y-133099548D01*
X130571001Y-134126669D01*
X124841000Y-134126669D01*
X124841000Y-132559885D01*
X130571000Y-132559885D01*
X130575475Y-132575124D01*
X130576865Y-132576329D01*
X130584548Y-132578000D01*
X132056885Y-132578000D01*
X132072124Y-132573525D01*
X132073329Y-132572135D01*
X132075000Y-132564452D01*
X132075000Y-132559885D01*
X132583000Y-132559885D01*
X132587475Y-132575124D01*
X132588865Y-132576329D01*
X132596548Y-132578000D01*
X134068884Y-132578000D01*
X134084123Y-132573525D01*
X134085328Y-132572135D01*
X134086999Y-132564452D01*
X134086999Y-131537331D01*
X134086629Y-131530510D01*
X134081105Y-131479648D01*
X134077479Y-131464396D01*
X134032324Y-131343946D01*
X134023786Y-131328351D01*
X133947285Y-131226276D01*
X133934724Y-131213715D01*
X133832649Y-131137214D01*
X133817054Y-131128676D01*
X133696606Y-131083522D01*
X133681351Y-131079895D01*
X133630486Y-131074369D01*
X133623672Y-131074000D01*
X132601115Y-131074000D01*
X132585876Y-131078475D01*
X132584671Y-131079865D01*
X132583000Y-131087548D01*
X132583000Y-132559885D01*
X132075000Y-132559885D01*
X132075000Y-131092116D01*
X132070525Y-131076877D01*
X132069135Y-131075672D01*
X132061452Y-131074001D01*
X131034331Y-131074001D01*
X131027510Y-131074371D01*
X130976648Y-131079895D01*
X130961396Y-131083521D01*
X130840946Y-131128676D01*
X130825351Y-131137214D01*
X130723276Y-131213715D01*
X130710715Y-131226276D01*
X130634214Y-131328351D01*
X130625676Y-131343946D01*
X130580522Y-131464394D01*
X130576895Y-131479649D01*
X130571369Y-131530514D01*
X130571000Y-131537328D01*
X130571000Y-132559885D01*
X124841000Y-132559885D01*
X124841000Y-130258695D01*
X135665251Y-130258695D01*
X135665548Y-130263848D01*
X135665548Y-130263851D01*
X135676613Y-130455758D01*
X135678110Y-130481715D01*
X135679247Y-130486761D01*
X135679248Y-130486767D01*
X135693155Y-130548474D01*
X135727222Y-130699639D01*
X135774780Y-130816762D01*
X135802464Y-130884938D01*
X135811266Y-130906616D01*
X135862019Y-130989438D01*
X135920073Y-131084173D01*
X135927987Y-131097088D01*
X136074250Y-131265938D01*
X136078225Y-131269238D01*
X136078231Y-131269244D01*
X136083425Y-131273556D01*
X136123059Y-131332460D01*
X136124555Y-131403441D01*
X136087439Y-131463962D01*
X136047168Y-131488480D01*
X135939946Y-131528676D01*
X135924351Y-131537214D01*
X135822276Y-131613715D01*
X135809715Y-131626276D01*
X135733214Y-131728351D01*
X135724676Y-131743946D01*
X135679522Y-131864394D01*
X135675895Y-131879649D01*
X135670369Y-131930514D01*
X135670000Y-131937328D01*
X135670000Y-132559885D01*
X135674475Y-132575124D01*
X135675865Y-132576329D01*
X135683548Y-132578000D01*
X138367884Y-132578000D01*
X138383123Y-132573525D01*
X138384328Y-132572135D01*
X138385999Y-132564452D01*
X138385999Y-131937331D01*
X138385629Y-131930510D01*
X138380105Y-131879648D01*
X138376479Y-131864396D01*
X138331324Y-131743946D01*
X138322786Y-131728351D01*
X138246285Y-131626276D01*
X138233724Y-131613715D01*
X138131649Y-131537214D01*
X138116054Y-131528676D01*
X138005813Y-131487348D01*
X137949049Y-131444706D01*
X137924349Y-131378145D01*
X137939557Y-131308796D01*
X137961104Y-131280115D01*
X138062430Y-131179144D01*
X138062440Y-131179132D01*
X138066096Y-131175489D01*
X138069180Y-131171198D01*
X138193435Y-130998277D01*
X138196453Y-130994077D01*
X138215682Y-130955171D01*
X138293136Y-130798453D01*
X138293137Y-130798451D01*
X138295430Y-130793811D01*
X138327900Y-130686940D01*
X138358865Y-130585023D01*
X138358865Y-130585021D01*
X138360370Y-130580069D01*
X138389529Y-130358590D01*
X138390667Y-130312032D01*
X138391074Y-130295365D01*
X138391074Y-130295361D01*
X138391156Y-130292000D01*
X138380715Y-130165000D01*
X149684502Y-130165000D01*
X149704457Y-130393087D01*
X149705881Y-130398400D01*
X149705881Y-130398402D01*
X149762161Y-130608438D01*
X149763716Y-130614243D01*
X149766039Y-130619224D01*
X149766039Y-130619225D01*
X149858151Y-130816762D01*
X149858154Y-130816767D01*
X149860477Y-130821749D01*
X149863634Y-130826257D01*
X149984084Y-130998277D01*
X149991802Y-131009300D01*
X150153700Y-131171198D01*
X150158208Y-131174355D01*
X150158211Y-131174357D01*
X150214420Y-131213715D01*
X150341251Y-131302523D01*
X150346233Y-131304846D01*
X150346238Y-131304849D01*
X150430083Y-131343946D01*
X150548757Y-131399284D01*
X150554065Y-131400706D01*
X150554067Y-131400707D01*
X150764598Y-131457119D01*
X150764600Y-131457119D01*
X150769913Y-131458543D01*
X150998000Y-131478498D01*
X151226087Y-131458543D01*
X151231400Y-131457119D01*
X151231402Y-131457119D01*
X151441933Y-131400707D01*
X151441935Y-131400706D01*
X151447243Y-131399284D01*
X151565917Y-131343946D01*
X151649762Y-131304849D01*
X151649767Y-131304846D01*
X151654749Y-131302523D01*
X151781580Y-131213715D01*
X151837789Y-131174357D01*
X151837792Y-131174355D01*
X151842300Y-131171198D01*
X152004198Y-131009300D01*
X152011917Y-130998277D01*
X152132366Y-130826257D01*
X152135523Y-130821749D01*
X152137846Y-130816767D01*
X152137849Y-130816762D01*
X152229961Y-130619225D01*
X152229961Y-130619224D01*
X152232284Y-130614243D01*
X152233840Y-130608438D01*
X152281245Y-130431522D01*
X159875273Y-130431522D01*
X159922764Y-130608761D01*
X159926510Y-130619053D01*
X160018586Y-130816511D01*
X160024069Y-130826007D01*
X160149028Y-131004467D01*
X160156084Y-131012875D01*
X160310125Y-131166916D01*
X160318533Y-131173972D01*
X160496993Y-131298931D01*
X160506489Y-131304414D01*
X160703947Y-131396490D01*
X160714239Y-131400236D01*
X160886503Y-131446394D01*
X160900599Y-131446058D01*
X160904000Y-131438116D01*
X160904000Y-131432967D01*
X161412000Y-131432967D01*
X161415973Y-131446498D01*
X161424522Y-131447727D01*
X161601761Y-131400236D01*
X161612053Y-131396490D01*
X161809511Y-131304414D01*
X161819007Y-131298931D01*
X161997467Y-131173972D01*
X162005875Y-131166916D01*
X162159916Y-131012875D01*
X162166972Y-131004467D01*
X162291931Y-130826007D01*
X162297414Y-130816511D01*
X162389490Y-130619053D01*
X162393236Y-130608761D01*
X162439394Y-130436497D01*
X162439058Y-130422401D01*
X162431116Y-130419000D01*
X161430115Y-130419000D01*
X161414876Y-130423475D01*
X161413671Y-130424865D01*
X161412000Y-130432548D01*
X161412000Y-131432967D01*
X160904000Y-131432967D01*
X160904000Y-130437115D01*
X160899525Y-130421876D01*
X160898135Y-130420671D01*
X160890452Y-130419000D01*
X159890033Y-130419000D01*
X159876502Y-130422973D01*
X159875273Y-130431522D01*
X152281245Y-130431522D01*
X152290119Y-130398402D01*
X152290119Y-130398400D01*
X152291543Y-130393087D01*
X152311498Y-130165000D01*
X152291543Y-129936913D01*
X152281244Y-129898478D01*
X152279911Y-129893503D01*
X159876606Y-129893503D01*
X159876942Y-129907599D01*
X159884884Y-129911000D01*
X160885885Y-129911000D01*
X160901124Y-129906525D01*
X160902329Y-129905135D01*
X160904000Y-129897452D01*
X160904000Y-129892885D01*
X161412000Y-129892885D01*
X161416475Y-129908124D01*
X161417865Y-129909329D01*
X161425548Y-129911000D01*
X162425967Y-129911000D01*
X162439498Y-129907027D01*
X162440727Y-129898478D01*
X162393236Y-129721239D01*
X162389490Y-129710947D01*
X162297414Y-129513489D01*
X162291931Y-129503993D01*
X162166972Y-129325533D01*
X162159916Y-129317125D01*
X162005875Y-129163084D01*
X161997467Y-129156028D01*
X161819007Y-129031069D01*
X161809511Y-129025586D01*
X161612053Y-128933510D01*
X161601761Y-128929764D01*
X161429497Y-128883606D01*
X161415401Y-128883942D01*
X161412000Y-128891884D01*
X161412000Y-129892885D01*
X160904000Y-129892885D01*
X160904000Y-128897033D01*
X160900027Y-128883502D01*
X160891478Y-128882273D01*
X160714239Y-128929764D01*
X160703947Y-128933510D01*
X160506489Y-129025586D01*
X160496993Y-129031069D01*
X160318533Y-129156028D01*
X160310125Y-129163084D01*
X160156084Y-129317125D01*
X160149028Y-129325533D01*
X160024069Y-129503993D01*
X160018586Y-129513489D01*
X159926510Y-129710947D01*
X159922764Y-129721239D01*
X159876606Y-129893503D01*
X152279911Y-129893503D01*
X152233707Y-129721067D01*
X152233706Y-129721065D01*
X152232284Y-129715757D01*
X152200614Y-129647840D01*
X152137849Y-129513238D01*
X152137846Y-129513233D01*
X152135523Y-129508251D01*
X152004198Y-129320700D01*
X151842300Y-129158802D01*
X151837792Y-129155645D01*
X151837789Y-129155643D01*
X151697499Y-129057411D01*
X151654749Y-129027477D01*
X151649767Y-129025154D01*
X151649762Y-129025151D01*
X151452225Y-128933039D01*
X151452224Y-128933039D01*
X151447243Y-128930716D01*
X151441935Y-128929294D01*
X151441933Y-128929293D01*
X151231402Y-128872881D01*
X151231400Y-128872881D01*
X151226087Y-128871457D01*
X150998000Y-128851502D01*
X150769913Y-128871457D01*
X150764600Y-128872881D01*
X150764598Y-128872881D01*
X150554067Y-128929293D01*
X150554065Y-128929294D01*
X150548757Y-128930716D01*
X150543776Y-128933039D01*
X150543775Y-128933039D01*
X150346238Y-129025151D01*
X150346233Y-129025154D01*
X150341251Y-129027477D01*
X150298501Y-129057411D01*
X150158211Y-129155643D01*
X150158208Y-129155645D01*
X150153700Y-129158802D01*
X149991802Y-129320700D01*
X149860477Y-129508251D01*
X149858154Y-129513233D01*
X149858151Y-129513238D01*
X149795386Y-129647840D01*
X149763716Y-129715757D01*
X149762294Y-129721065D01*
X149762293Y-129721067D01*
X149714756Y-129898478D01*
X149704457Y-129936913D01*
X149684502Y-130165000D01*
X138380715Y-130165000D01*
X138372852Y-130069361D01*
X138318431Y-129852702D01*
X138229354Y-129647840D01*
X138189906Y-129586862D01*
X138110822Y-129464617D01*
X138110820Y-129464614D01*
X138108014Y-129460277D01*
X137957670Y-129295051D01*
X137953619Y-129291852D01*
X137953615Y-129291848D01*
X137786414Y-129159800D01*
X137786410Y-129159798D01*
X137782359Y-129156598D01*
X137586789Y-129048638D01*
X137581920Y-129046914D01*
X137581916Y-129046912D01*
X137381087Y-128975795D01*
X137381083Y-128975794D01*
X137376212Y-128974069D01*
X137371119Y-128973162D01*
X137371116Y-128973161D01*
X137161373Y-128935800D01*
X137161367Y-128935799D01*
X137156284Y-128934894D01*
X137082452Y-128933992D01*
X136938081Y-128932228D01*
X136938079Y-128932228D01*
X136932911Y-128932165D01*
X136712091Y-128965955D01*
X136499756Y-129035357D01*
X136301607Y-129138507D01*
X136297474Y-129141610D01*
X136297471Y-129141612D01*
X136127100Y-129269530D01*
X136122965Y-129272635D01*
X135968629Y-129434138D01*
X135965715Y-129438410D01*
X135965714Y-129438411D01*
X135914671Y-129513238D01*
X135842743Y-129618680D01*
X135748688Y-129821305D01*
X135688989Y-130036570D01*
X135665251Y-130258695D01*
X124841000Y-130258695D01*
X124841000Y-125221134D01*
X133129500Y-125221134D01*
X133136255Y-125283316D01*
X133187385Y-125419705D01*
X133274739Y-125536261D01*
X133391295Y-125623615D01*
X133527684Y-125674745D01*
X133589866Y-125681500D01*
X135386134Y-125681500D01*
X135448316Y-125674745D01*
X135584705Y-125623615D01*
X135701261Y-125536261D01*
X135788615Y-125419705D01*
X135797816Y-125395161D01*
X135832598Y-125302382D01*
X135875240Y-125245618D01*
X135941802Y-125220918D01*
X136011150Y-125236126D01*
X136045817Y-125264114D01*
X136074250Y-125296938D01*
X136246126Y-125439632D01*
X136439000Y-125552338D01*
X136443825Y-125554180D01*
X136443826Y-125554181D01*
X136516612Y-125581975D01*
X136647692Y-125632030D01*
X136652760Y-125633061D01*
X136652763Y-125633062D01*
X136760017Y-125654883D01*
X136866597Y-125676567D01*
X136871772Y-125676757D01*
X136871774Y-125676757D01*
X137084673Y-125684564D01*
X137084677Y-125684564D01*
X137089837Y-125684753D01*
X137094957Y-125684097D01*
X137094959Y-125684097D01*
X137306288Y-125657025D01*
X137306289Y-125657025D01*
X137311416Y-125656368D01*
X137316366Y-125654883D01*
X137520429Y-125593661D01*
X137520434Y-125593659D01*
X137525384Y-125592174D01*
X137725994Y-125493896D01*
X137907860Y-125364173D01*
X137928881Y-125343226D01*
X138029013Y-125243443D01*
X138066096Y-125206489D01*
X138125354Y-125124023D01*
X138196453Y-125025077D01*
X138197776Y-125026028D01*
X138244645Y-124982857D01*
X138314580Y-124970625D01*
X138380026Y-124998144D01*
X138407875Y-125029994D01*
X138467987Y-125128088D01*
X138614250Y-125296938D01*
X138786126Y-125439632D01*
X138979000Y-125552338D01*
X138983825Y-125554180D01*
X138983826Y-125554181D01*
X139056612Y-125581975D01*
X139187692Y-125632030D01*
X139192760Y-125633061D01*
X139192763Y-125633062D01*
X139300017Y-125654883D01*
X139406597Y-125676567D01*
X139411772Y-125676757D01*
X139411774Y-125676757D01*
X139624673Y-125684564D01*
X139624677Y-125684564D01*
X139629837Y-125684753D01*
X139634957Y-125684097D01*
X139634959Y-125684097D01*
X139846288Y-125657025D01*
X139846289Y-125657025D01*
X139851416Y-125656368D01*
X139856366Y-125654883D01*
X140060429Y-125593661D01*
X140060434Y-125593659D01*
X140065384Y-125592174D01*
X140265994Y-125493896D01*
X140447860Y-125364173D01*
X140468881Y-125343226D01*
X140569013Y-125243443D01*
X140606096Y-125206489D01*
X140665354Y-125124023D01*
X140733435Y-125029277D01*
X140736453Y-125025077D01*
X140757320Y-124982857D01*
X140833136Y-124829453D01*
X140833137Y-124829451D01*
X140835430Y-124824811D01*
X140900370Y-124611069D01*
X140924832Y-124425263D01*
X144535064Y-124425263D01*
X144571404Y-124662744D01*
X144608094Y-124774997D01*
X144644434Y-124886183D01*
X144644437Y-124886189D01*
X144646042Y-124891101D01*
X144648429Y-124895687D01*
X144648431Y-124895691D01*
X144723794Y-125040460D01*
X144756975Y-125104200D01*
X144873415Y-125259283D01*
X144898320Y-125325765D01*
X144883328Y-125395161D01*
X144833198Y-125445435D01*
X144816885Y-125452915D01*
X144806707Y-125456731D01*
X144806704Y-125456733D01*
X144798295Y-125459885D01*
X144681739Y-125547239D01*
X144594385Y-125663795D01*
X144543255Y-125800184D01*
X144536500Y-125862366D01*
X144536500Y-127863634D01*
X144543255Y-127925816D01*
X144594385Y-128062205D01*
X144681739Y-128178761D01*
X144798295Y-128266115D01*
X144934684Y-128317245D01*
X144996866Y-128324000D01*
X147093134Y-128324000D01*
X147155316Y-128317245D01*
X147291705Y-128266115D01*
X147408261Y-128178761D01*
X147495615Y-128062205D01*
X147546745Y-127925816D01*
X147553500Y-127863634D01*
X147553500Y-125862366D01*
X147546745Y-125800184D01*
X147495615Y-125663795D01*
X147408261Y-125547239D01*
X147291705Y-125459885D01*
X147271811Y-125452427D01*
X147215047Y-125409787D01*
X147190346Y-125343226D01*
X147205553Y-125273877D01*
X147217158Y-125256353D01*
X147310367Y-125138330D01*
X147310370Y-125138325D01*
X147313568Y-125134276D01*
X147327885Y-125108342D01*
X147340770Y-125085000D01*
X149684502Y-125085000D01*
X149704457Y-125313087D01*
X149705881Y-125318400D01*
X149705881Y-125318402D01*
X149762161Y-125528438D01*
X149763716Y-125534243D01*
X149766039Y-125539224D01*
X149766039Y-125539225D01*
X149858151Y-125736762D01*
X149858154Y-125736767D01*
X149860477Y-125741749D01*
X149863634Y-125746257D01*
X149949250Y-125868529D01*
X149991802Y-125929300D01*
X150153700Y-126091198D01*
X150158208Y-126094355D01*
X150158211Y-126094357D01*
X150236389Y-126149098D01*
X150341251Y-126222523D01*
X150346233Y-126224846D01*
X150346238Y-126224849D01*
X150543775Y-126316961D01*
X150548757Y-126319284D01*
X150554065Y-126320706D01*
X150554067Y-126320707D01*
X150764598Y-126377119D01*
X150764600Y-126377119D01*
X150769913Y-126378543D01*
X150998000Y-126398498D01*
X151226087Y-126378543D01*
X151231400Y-126377119D01*
X151231402Y-126377119D01*
X151441933Y-126320707D01*
X151441935Y-126320706D01*
X151447243Y-126319284D01*
X151452225Y-126316961D01*
X151649762Y-126224849D01*
X151649767Y-126224846D01*
X151654749Y-126222523D01*
X151759611Y-126149098D01*
X151837789Y-126094357D01*
X151837792Y-126094355D01*
X151842300Y-126091198D01*
X152004198Y-125929300D01*
X152046751Y-125868529D01*
X152132366Y-125746257D01*
X152135523Y-125741749D01*
X152137846Y-125736767D01*
X152137849Y-125736762D01*
X152229961Y-125539225D01*
X152229961Y-125539224D01*
X152232284Y-125534243D01*
X152233840Y-125528438D01*
X152290119Y-125318402D01*
X152290119Y-125318400D01*
X152291543Y-125313087D01*
X152311498Y-125085000D01*
X159844502Y-125085000D01*
X159864457Y-125313087D01*
X159865881Y-125318400D01*
X159865881Y-125318402D01*
X159922161Y-125528438D01*
X159923716Y-125534243D01*
X159926039Y-125539224D01*
X159926039Y-125539225D01*
X160018151Y-125736762D01*
X160018154Y-125736767D01*
X160020477Y-125741749D01*
X160023634Y-125746257D01*
X160109250Y-125868529D01*
X160151802Y-125929300D01*
X160313700Y-126091198D01*
X160318208Y-126094355D01*
X160318211Y-126094357D01*
X160396389Y-126149098D01*
X160501251Y-126222523D01*
X160506233Y-126224846D01*
X160506238Y-126224849D01*
X160703775Y-126316961D01*
X160708757Y-126319284D01*
X160714065Y-126320706D01*
X160714067Y-126320707D01*
X160924598Y-126377119D01*
X160924600Y-126377119D01*
X160929913Y-126378543D01*
X161158000Y-126398498D01*
X161386087Y-126378543D01*
X161391400Y-126377119D01*
X161391402Y-126377119D01*
X161601933Y-126320707D01*
X161601935Y-126320706D01*
X161607243Y-126319284D01*
X161612225Y-126316961D01*
X161809762Y-126224849D01*
X161809767Y-126224846D01*
X161814749Y-126222523D01*
X161919611Y-126149098D01*
X161997789Y-126094357D01*
X161997792Y-126094355D01*
X162002300Y-126091198D01*
X162164198Y-125929300D01*
X162206751Y-125868529D01*
X162292366Y-125746257D01*
X162295523Y-125741749D01*
X162297846Y-125736767D01*
X162297849Y-125736762D01*
X162389961Y-125539225D01*
X162389961Y-125539224D01*
X162392284Y-125534243D01*
X162393840Y-125528438D01*
X162450119Y-125318402D01*
X162450119Y-125318400D01*
X162451543Y-125313087D01*
X162471498Y-125085000D01*
X162451543Y-124856913D01*
X162439155Y-124810680D01*
X162393707Y-124641067D01*
X162393706Y-124641065D01*
X162392284Y-124635757D01*
X162308369Y-124455799D01*
X162297849Y-124433238D01*
X162297846Y-124433233D01*
X162295523Y-124428251D01*
X162164198Y-124240700D01*
X162002300Y-124078802D01*
X161997792Y-124075645D01*
X161997789Y-124075643D01*
X161883271Y-123995457D01*
X161814749Y-123947477D01*
X161809767Y-123945154D01*
X161809762Y-123945151D01*
X161612225Y-123853039D01*
X161612224Y-123853039D01*
X161607243Y-123850716D01*
X161601935Y-123849294D01*
X161601933Y-123849293D01*
X161391402Y-123792881D01*
X161391400Y-123792881D01*
X161386087Y-123791457D01*
X161158000Y-123771502D01*
X160929913Y-123791457D01*
X160924600Y-123792881D01*
X160924598Y-123792881D01*
X160714067Y-123849293D01*
X160714065Y-123849294D01*
X160708757Y-123850716D01*
X160703776Y-123853039D01*
X160703775Y-123853039D01*
X160506238Y-123945151D01*
X160506233Y-123945154D01*
X160501251Y-123947477D01*
X160432729Y-123995457D01*
X160318211Y-124075643D01*
X160318208Y-124075645D01*
X160313700Y-124078802D01*
X160151802Y-124240700D01*
X160020477Y-124428251D01*
X160018154Y-124433233D01*
X160018151Y-124433238D01*
X160007631Y-124455799D01*
X159923716Y-124635757D01*
X159922294Y-124641065D01*
X159922293Y-124641067D01*
X159876845Y-124810680D01*
X159864457Y-124856913D01*
X159844502Y-125085000D01*
X152311498Y-125085000D01*
X152291543Y-124856913D01*
X152279155Y-124810680D01*
X152233707Y-124641067D01*
X152233706Y-124641065D01*
X152232284Y-124635757D01*
X152148369Y-124455799D01*
X152137849Y-124433238D01*
X152137846Y-124433233D01*
X152135523Y-124428251D01*
X152004198Y-124240700D01*
X151842300Y-124078802D01*
X151837792Y-124075645D01*
X151837789Y-124075643D01*
X151723271Y-123995457D01*
X151654749Y-123947477D01*
X151649767Y-123945154D01*
X151649762Y-123945151D01*
X151452225Y-123853039D01*
X151452224Y-123853039D01*
X151447243Y-123850716D01*
X151441935Y-123849294D01*
X151441933Y-123849293D01*
X151231402Y-123792881D01*
X151231400Y-123792881D01*
X151226087Y-123791457D01*
X150998000Y-123771502D01*
X150769913Y-123791457D01*
X150764600Y-123792881D01*
X150764598Y-123792881D01*
X150554067Y-123849293D01*
X150554065Y-123849294D01*
X150548757Y-123850716D01*
X150543776Y-123853039D01*
X150543775Y-123853039D01*
X150346238Y-123945151D01*
X150346233Y-123945154D01*
X150341251Y-123947477D01*
X150272729Y-123995457D01*
X150158211Y-124075643D01*
X150158208Y-124075645D01*
X150153700Y-124078802D01*
X149991802Y-124240700D01*
X149860477Y-124428251D01*
X149858154Y-124433233D01*
X149858151Y-124433238D01*
X149847631Y-124455799D01*
X149763716Y-124635757D01*
X149762294Y-124641065D01*
X149762293Y-124641067D01*
X149716845Y-124810680D01*
X149704457Y-124856913D01*
X149684502Y-125085000D01*
X147340770Y-125085000D01*
X147427177Y-124928474D01*
X147427179Y-124928470D01*
X147429674Y-124923950D01*
X147453414Y-124856913D01*
X147508144Y-124702360D01*
X147508145Y-124702356D01*
X147509870Y-124697485D01*
X147515183Y-124667659D01*
X147551095Y-124466052D01*
X147551096Y-124466046D01*
X147552001Y-124460963D01*
X147553068Y-124373600D01*
X147554873Y-124225907D01*
X147554873Y-124225905D01*
X147554936Y-124220737D01*
X147518596Y-123983256D01*
X147475276Y-123850716D01*
X147445566Y-123759817D01*
X147445563Y-123759811D01*
X147443958Y-123754899D01*
X147411790Y-123693104D01*
X147335416Y-123546393D01*
X147333025Y-123541800D01*
X147278668Y-123469403D01*
X147191882Y-123353815D01*
X147191880Y-123353812D01*
X147188777Y-123349680D01*
X147059662Y-123226295D01*
X147018825Y-123187270D01*
X147018824Y-123187269D01*
X147015088Y-123183699D01*
X146978097Y-123158465D01*
X146933096Y-123103556D01*
X146924925Y-123033032D01*
X146956179Y-122969284D01*
X146980660Y-122948589D01*
X146982635Y-122947311D01*
X146986977Y-122944502D01*
X147164670Y-122782814D01*
X147225347Y-122705983D01*
X147310367Y-122598330D01*
X147310370Y-122598325D01*
X147313568Y-122594276D01*
X147327885Y-122568342D01*
X147427177Y-122388474D01*
X147427179Y-122388470D01*
X147429674Y-122383950D01*
X147461450Y-122294220D01*
X147508144Y-122162360D01*
X147508145Y-122162356D01*
X147509870Y-122157485D01*
X147513296Y-122138251D01*
X147551095Y-121926052D01*
X147551096Y-121926046D01*
X147552001Y-121920963D01*
X147553854Y-121769301D01*
X147554873Y-121685907D01*
X147554873Y-121685905D01*
X147554936Y-121680737D01*
X147518596Y-121443256D01*
X147471077Y-121297870D01*
X147445566Y-121219817D01*
X147445563Y-121219811D01*
X147443958Y-121214899D01*
X147411790Y-121153104D01*
X147335416Y-121006393D01*
X147333025Y-121001800D01*
X147236621Y-120873402D01*
X147191882Y-120813815D01*
X147191880Y-120813812D01*
X147188777Y-120809680D01*
X147144115Y-120767000D01*
X149851502Y-120767000D01*
X149871457Y-120995087D01*
X149872881Y-121000400D01*
X149872881Y-121000402D01*
X149922860Y-121186923D01*
X149930716Y-121216243D01*
X149933039Y-121221224D01*
X149933039Y-121221225D01*
X150025151Y-121418762D01*
X150025154Y-121418767D01*
X150027477Y-121423749D01*
X150082791Y-121502745D01*
X150151243Y-121600504D01*
X150158802Y-121611300D01*
X150320700Y-121773198D01*
X150325208Y-121776355D01*
X150325211Y-121776357D01*
X150403389Y-121831098D01*
X150508251Y-121904523D01*
X150513233Y-121906846D01*
X150513238Y-121906849D01*
X150709765Y-121998490D01*
X150715757Y-122001284D01*
X150721065Y-122002706D01*
X150721067Y-122002707D01*
X150931598Y-122059119D01*
X150931600Y-122059119D01*
X150936913Y-122060543D01*
X151165000Y-122080498D01*
X151393087Y-122060543D01*
X151398400Y-122059119D01*
X151398402Y-122059119D01*
X151608933Y-122002707D01*
X151608935Y-122002706D01*
X151614243Y-122001284D01*
X151620235Y-121998490D01*
X151816762Y-121906849D01*
X151816767Y-121906846D01*
X151821749Y-121904523D01*
X151895243Y-121853062D01*
X152943493Y-121853062D01*
X152952789Y-121865077D01*
X153003994Y-121900931D01*
X153013489Y-121906414D01*
X153210947Y-121998490D01*
X153221239Y-122002236D01*
X153431688Y-122058625D01*
X153442481Y-122060528D01*
X153659525Y-122079517D01*
X153670475Y-122079517D01*
X153887519Y-122060528D01*
X153898312Y-122058625D01*
X154108761Y-122002236D01*
X154119053Y-121998490D01*
X154316511Y-121906414D01*
X154326006Y-121900931D01*
X154378048Y-121864491D01*
X154386424Y-121854012D01*
X154379356Y-121840566D01*
X153677812Y-121139022D01*
X153663868Y-121131408D01*
X153662035Y-121131539D01*
X153655420Y-121135790D01*
X152949923Y-121841287D01*
X152943493Y-121853062D01*
X151895243Y-121853062D01*
X151926611Y-121831098D01*
X152004789Y-121776357D01*
X152004792Y-121776355D01*
X152009300Y-121773198D01*
X152171198Y-121611300D01*
X152178758Y-121600504D01*
X152288864Y-121443256D01*
X152302523Y-121423749D01*
X152304847Y-121418765D01*
X152306171Y-121416472D01*
X152357553Y-121367479D01*
X152427267Y-121354043D01*
X152493178Y-121380429D01*
X152524409Y-121416472D01*
X152531066Y-121428002D01*
X152567509Y-121480048D01*
X152577988Y-121488424D01*
X152591434Y-121481356D01*
X153292978Y-120779812D01*
X153299356Y-120768132D01*
X154029408Y-120768132D01*
X154029539Y-120769965D01*
X154033790Y-120776580D01*
X154739287Y-121482077D01*
X154751062Y-121488507D01*
X154763077Y-121479211D01*
X154798931Y-121428006D01*
X154804414Y-121418511D01*
X154896490Y-121221053D01*
X154900236Y-121210761D01*
X154956625Y-121000312D01*
X154958528Y-120989519D01*
X154977517Y-120772475D01*
X154977517Y-120761525D01*
X154966885Y-120640000D01*
X158701502Y-120640000D01*
X158721457Y-120868087D01*
X158722881Y-120873400D01*
X158722881Y-120873402D01*
X158768277Y-121042819D01*
X158780716Y-121089243D01*
X158783039Y-121094224D01*
X158783039Y-121094225D01*
X158875151Y-121291762D01*
X158875154Y-121291767D01*
X158877477Y-121296749D01*
X158936071Y-121380429D01*
X159005239Y-121479211D01*
X159008802Y-121484300D01*
X159170700Y-121646198D01*
X159175208Y-121649355D01*
X159175211Y-121649357D01*
X159227410Y-121685907D01*
X159358251Y-121777523D01*
X159363233Y-121779846D01*
X159363238Y-121779849D01*
X159546012Y-121865077D01*
X159565757Y-121874284D01*
X159571065Y-121875706D01*
X159571067Y-121875707D01*
X159781598Y-121932119D01*
X159781600Y-121932119D01*
X159786913Y-121933543D01*
X160015000Y-121953498D01*
X160243087Y-121933543D01*
X160248400Y-121932119D01*
X160248402Y-121932119D01*
X160458933Y-121875707D01*
X160458935Y-121875706D01*
X160464243Y-121874284D01*
X160483988Y-121865077D01*
X160666762Y-121779849D01*
X160666767Y-121779846D01*
X160671749Y-121777523D01*
X160745243Y-121726062D01*
X161793493Y-121726062D01*
X161802789Y-121738077D01*
X161853994Y-121773931D01*
X161863489Y-121779414D01*
X162060947Y-121871490D01*
X162071239Y-121875236D01*
X162281688Y-121931625D01*
X162292481Y-121933528D01*
X162509525Y-121952517D01*
X162520475Y-121952517D01*
X162737519Y-121933528D01*
X162748312Y-121931625D01*
X162958761Y-121875236D01*
X162969053Y-121871490D01*
X163166511Y-121779414D01*
X163176006Y-121773931D01*
X163228048Y-121737491D01*
X163236424Y-121727012D01*
X163229356Y-121713566D01*
X162527812Y-121012022D01*
X162513868Y-121004408D01*
X162512035Y-121004539D01*
X162505420Y-121008790D01*
X161799923Y-121714287D01*
X161793493Y-121726062D01*
X160745243Y-121726062D01*
X160802590Y-121685907D01*
X160854789Y-121649357D01*
X160854792Y-121649355D01*
X160859300Y-121646198D01*
X161021198Y-121484300D01*
X161024762Y-121479211D01*
X161149369Y-121301253D01*
X161152523Y-121296749D01*
X161154847Y-121291765D01*
X161156171Y-121289472D01*
X161207553Y-121240479D01*
X161277267Y-121227043D01*
X161343178Y-121253429D01*
X161374409Y-121289472D01*
X161381066Y-121301002D01*
X161417509Y-121353048D01*
X161427988Y-121361424D01*
X161441434Y-121354356D01*
X162142978Y-120652812D01*
X162149356Y-120641132D01*
X162879408Y-120641132D01*
X162879539Y-120642965D01*
X162883790Y-120649580D01*
X163589287Y-121355077D01*
X163601062Y-121361507D01*
X163613077Y-121352211D01*
X163648931Y-121301006D01*
X163654414Y-121291511D01*
X163746490Y-121094053D01*
X163750236Y-121083761D01*
X163806625Y-120873312D01*
X163808528Y-120862519D01*
X163827517Y-120645475D01*
X163827517Y-120634525D01*
X163808528Y-120417481D01*
X163806625Y-120406688D01*
X163750236Y-120196239D01*
X163746490Y-120185947D01*
X163654414Y-119988489D01*
X163648931Y-119978994D01*
X163612491Y-119926952D01*
X163602012Y-119918576D01*
X163588566Y-119925644D01*
X162887022Y-120627188D01*
X162879408Y-120641132D01*
X162149356Y-120641132D01*
X162150592Y-120638868D01*
X162150461Y-120637035D01*
X162146210Y-120630420D01*
X161440713Y-119924923D01*
X161428938Y-119918493D01*
X161416923Y-119927789D01*
X161381066Y-119978998D01*
X161374409Y-119990528D01*
X161323027Y-120039521D01*
X161253313Y-120052958D01*
X161187402Y-120026571D01*
X161156171Y-119990528D01*
X161154847Y-119988235D01*
X161152523Y-119983251D01*
X161021198Y-119795700D01*
X160859300Y-119633802D01*
X160854792Y-119630645D01*
X160854789Y-119630643D01*
X160743886Y-119552988D01*
X161793576Y-119552988D01*
X161800644Y-119566434D01*
X162502188Y-120267978D01*
X162516132Y-120275592D01*
X162517965Y-120275461D01*
X162524580Y-120271210D01*
X163230077Y-119565713D01*
X163236507Y-119553938D01*
X163227211Y-119541923D01*
X163176006Y-119506069D01*
X163166511Y-119500586D01*
X162969053Y-119408510D01*
X162958761Y-119404764D01*
X162748312Y-119348375D01*
X162737519Y-119346472D01*
X162520475Y-119327483D01*
X162509525Y-119327483D01*
X162292481Y-119346472D01*
X162281688Y-119348375D01*
X162071239Y-119404764D01*
X162060947Y-119408510D01*
X161863489Y-119500586D01*
X161853994Y-119506069D01*
X161801952Y-119542509D01*
X161793576Y-119552988D01*
X160743886Y-119552988D01*
X160728920Y-119542509D01*
X160671749Y-119502477D01*
X160666767Y-119500154D01*
X160666762Y-119500151D01*
X160469225Y-119408039D01*
X160469224Y-119408039D01*
X160464243Y-119405716D01*
X160458935Y-119404294D01*
X160458933Y-119404293D01*
X160248402Y-119347881D01*
X160248400Y-119347881D01*
X160243087Y-119346457D01*
X160015000Y-119326502D01*
X159786913Y-119346457D01*
X159781600Y-119347881D01*
X159781598Y-119347881D01*
X159571067Y-119404293D01*
X159571065Y-119404294D01*
X159565757Y-119405716D01*
X159560776Y-119408039D01*
X159560775Y-119408039D01*
X159363238Y-119500151D01*
X159363233Y-119500154D01*
X159358251Y-119502477D01*
X159301080Y-119542509D01*
X159175211Y-119630643D01*
X159175208Y-119630645D01*
X159170700Y-119633802D01*
X159008802Y-119795700D01*
X158877477Y-119983251D01*
X158875154Y-119988233D01*
X158875151Y-119988238D01*
X158783039Y-120185775D01*
X158780716Y-120190757D01*
X158779294Y-120196065D01*
X158779293Y-120196067D01*
X158722907Y-120406502D01*
X158721457Y-120411913D01*
X158701502Y-120640000D01*
X154966885Y-120640000D01*
X154958528Y-120544481D01*
X154956625Y-120533688D01*
X154900236Y-120323239D01*
X154896490Y-120312947D01*
X154804414Y-120115489D01*
X154798931Y-120105994D01*
X154762491Y-120053952D01*
X154752012Y-120045576D01*
X154738566Y-120052644D01*
X154037022Y-120754188D01*
X154029408Y-120768132D01*
X153299356Y-120768132D01*
X153300592Y-120765868D01*
X153300461Y-120764035D01*
X153296210Y-120757420D01*
X152590713Y-120051923D01*
X152578938Y-120045493D01*
X152566923Y-120054789D01*
X152531066Y-120105998D01*
X152524409Y-120117528D01*
X152473027Y-120166521D01*
X152403313Y-120179958D01*
X152337402Y-120153571D01*
X152306171Y-120117528D01*
X152304847Y-120115235D01*
X152302523Y-120110251D01*
X152217088Y-119988238D01*
X152174357Y-119927211D01*
X152174355Y-119927208D01*
X152171198Y-119922700D01*
X152009300Y-119760802D01*
X152004792Y-119757645D01*
X152004789Y-119757643D01*
X151893886Y-119679988D01*
X152943576Y-119679988D01*
X152950644Y-119693434D01*
X153652188Y-120394978D01*
X153666132Y-120402592D01*
X153667965Y-120402461D01*
X153674580Y-120398210D01*
X154380077Y-119692713D01*
X154386507Y-119680938D01*
X154377211Y-119668923D01*
X154326006Y-119633069D01*
X154316511Y-119627586D01*
X154119053Y-119535510D01*
X154108761Y-119531764D01*
X153898312Y-119475375D01*
X153887519Y-119473472D01*
X153670475Y-119454483D01*
X153659525Y-119454483D01*
X153442481Y-119473472D01*
X153431688Y-119475375D01*
X153221239Y-119531764D01*
X153210947Y-119535510D01*
X153013489Y-119627586D01*
X153003994Y-119633069D01*
X152951952Y-119669509D01*
X152943576Y-119679988D01*
X151893886Y-119679988D01*
X151878920Y-119669509D01*
X151821749Y-119629477D01*
X151816767Y-119627154D01*
X151816762Y-119627151D01*
X151619225Y-119535039D01*
X151619224Y-119535039D01*
X151614243Y-119532716D01*
X151608935Y-119531294D01*
X151608933Y-119531293D01*
X151398402Y-119474881D01*
X151398400Y-119474881D01*
X151393087Y-119473457D01*
X151165000Y-119453502D01*
X150936913Y-119473457D01*
X150931600Y-119474881D01*
X150931598Y-119474881D01*
X150721067Y-119531293D01*
X150721065Y-119531294D01*
X150715757Y-119532716D01*
X150710776Y-119535039D01*
X150710775Y-119535039D01*
X150513238Y-119627151D01*
X150513233Y-119627154D01*
X150508251Y-119629477D01*
X150451080Y-119669509D01*
X150325211Y-119757643D01*
X150325208Y-119757645D01*
X150320700Y-119760802D01*
X150158802Y-119922700D01*
X150155645Y-119927208D01*
X150155643Y-119927211D01*
X150116404Y-119983251D01*
X150027477Y-120110251D01*
X150025154Y-120115233D01*
X150025151Y-120115238D01*
X149953928Y-120267978D01*
X149930716Y-120317757D01*
X149929294Y-120323065D01*
X149929293Y-120323067D01*
X149883724Y-120493131D01*
X149871457Y-120538913D01*
X149851502Y-120767000D01*
X147144115Y-120767000D01*
X147015088Y-120643699D01*
X146816622Y-120508314D01*
X146811939Y-120506140D01*
X146811935Y-120506138D01*
X146603405Y-120409342D01*
X146603401Y-120409341D01*
X146598710Y-120407163D01*
X146367202Y-120342960D01*
X146349620Y-120341081D01*
X146174407Y-120322356D01*
X146174399Y-120322356D01*
X146171072Y-120322000D01*
X145936598Y-120322000D01*
X145934025Y-120322212D01*
X145934014Y-120322212D01*
X145833054Y-120330513D01*
X145758063Y-120336678D01*
X145567562Y-120384529D01*
X145545802Y-120389995D01*
X145525056Y-120395206D01*
X145424872Y-120438767D01*
X145309474Y-120488943D01*
X145309471Y-120488945D01*
X145304737Y-120491003D01*
X145103023Y-120621498D01*
X144925330Y-120783186D01*
X144901141Y-120813815D01*
X144779633Y-120967670D01*
X144779630Y-120967675D01*
X144776432Y-120971724D01*
X144773939Y-120976240D01*
X144773937Y-120976243D01*
X144662823Y-121177526D01*
X144660326Y-121182050D01*
X144658602Y-121186919D01*
X144658600Y-121186923D01*
X144581856Y-121403640D01*
X144580130Y-121408515D01*
X144579223Y-121413608D01*
X144579222Y-121413611D01*
X144545932Y-121600504D01*
X144537999Y-121645037D01*
X144537936Y-121650201D01*
X144535187Y-121875236D01*
X144535064Y-121885263D01*
X144571404Y-122122744D01*
X144608094Y-122234997D01*
X144644434Y-122346183D01*
X144644437Y-122346189D01*
X144646042Y-122351101D01*
X144648429Y-122355687D01*
X144648431Y-122355691D01*
X144754584Y-122559607D01*
X144756975Y-122564200D01*
X144901223Y-122756320D01*
X144924704Y-122778759D01*
X145065147Y-122912969D01*
X145074912Y-122922301D01*
X145111903Y-122947535D01*
X145156904Y-123002444D01*
X145165075Y-123072968D01*
X145133821Y-123136716D01*
X145109340Y-123157411D01*
X145107707Y-123158468D01*
X145103023Y-123161498D01*
X144925330Y-123323186D01*
X144887932Y-123370540D01*
X144779633Y-123507670D01*
X144779630Y-123507675D01*
X144776432Y-123511724D01*
X144773939Y-123516240D01*
X144773937Y-123516243D01*
X144662823Y-123717526D01*
X144660326Y-123722050D01*
X144658602Y-123726919D01*
X144658600Y-123726923D01*
X144581856Y-123943640D01*
X144580130Y-123948515D01*
X144579223Y-123953608D01*
X144579222Y-123953611D01*
X144539342Y-124177498D01*
X144537999Y-124185037D01*
X144535064Y-124425263D01*
X140924832Y-124425263D01*
X140929529Y-124389590D01*
X140931156Y-124323000D01*
X140912852Y-124100361D01*
X140858431Y-123883702D01*
X140769354Y-123678840D01*
X140701761Y-123574357D01*
X140650822Y-123495617D01*
X140650820Y-123495614D01*
X140648014Y-123491277D01*
X140497670Y-123326051D01*
X140493619Y-123322852D01*
X140493615Y-123322848D01*
X140326414Y-123190800D01*
X140326410Y-123190798D01*
X140322359Y-123187598D01*
X140305221Y-123178137D01*
X140230186Y-123136716D01*
X140126789Y-123079638D01*
X140121920Y-123077914D01*
X140121916Y-123077912D01*
X139921087Y-123006795D01*
X139921083Y-123006794D01*
X139916212Y-123005069D01*
X139911119Y-123004162D01*
X139911116Y-123004161D01*
X139701373Y-122966800D01*
X139701367Y-122966799D01*
X139696284Y-122965894D01*
X139622452Y-122964992D01*
X139478081Y-122963228D01*
X139478079Y-122963228D01*
X139472911Y-122963165D01*
X139252091Y-122996955D01*
X139039756Y-123066357D01*
X138841607Y-123169507D01*
X138837474Y-123172610D01*
X138837471Y-123172612D01*
X138667100Y-123300530D01*
X138662965Y-123303635D01*
X138623203Y-123345243D01*
X138551729Y-123420037D01*
X138508629Y-123465138D01*
X138401201Y-123622621D01*
X138346293Y-123667621D01*
X138275768Y-123675792D01*
X138212021Y-123644538D01*
X138191324Y-123620054D01*
X138110822Y-123495617D01*
X138110820Y-123495614D01*
X138108014Y-123491277D01*
X137957670Y-123326051D01*
X137953619Y-123322852D01*
X137953615Y-123322848D01*
X137786414Y-123190800D01*
X137786410Y-123190798D01*
X137782359Y-123187598D01*
X137765221Y-123178137D01*
X137690186Y-123136716D01*
X137586789Y-123079638D01*
X137581920Y-123077914D01*
X137581916Y-123077912D01*
X137381087Y-123006795D01*
X137381083Y-123006794D01*
X137376212Y-123005069D01*
X137371119Y-123004162D01*
X137371116Y-123004161D01*
X137161373Y-122966800D01*
X137161367Y-122966799D01*
X137156284Y-122965894D01*
X137082452Y-122964992D01*
X136938081Y-122963228D01*
X136938079Y-122963228D01*
X136932911Y-122963165D01*
X136712091Y-122996955D01*
X136499756Y-123066357D01*
X136301607Y-123169507D01*
X136297474Y-123172610D01*
X136297471Y-123172612D01*
X136127100Y-123300530D01*
X136122965Y-123303635D01*
X136066537Y-123362684D01*
X136042283Y-123388064D01*
X135980759Y-123423494D01*
X135909846Y-123420037D01*
X135852060Y-123378791D01*
X135833207Y-123345243D01*
X135791767Y-123234703D01*
X135788615Y-123226295D01*
X135701261Y-123109739D01*
X135584705Y-123022385D01*
X135448316Y-122971255D01*
X135386134Y-122964500D01*
X133589866Y-122964500D01*
X133527684Y-122971255D01*
X133391295Y-123022385D01*
X133274739Y-123109739D01*
X133187385Y-123226295D01*
X133136255Y-123362684D01*
X133129500Y-123424866D01*
X133129500Y-125221134D01*
X124841000Y-125221134D01*
X124841000Y-115189000D01*
X154901502Y-115189000D01*
X154921457Y-115417087D01*
X154980716Y-115638243D01*
X154983039Y-115643224D01*
X154983039Y-115643225D01*
X155075151Y-115840762D01*
X155075154Y-115840767D01*
X155077477Y-115845749D01*
X155208802Y-116033300D01*
X155370700Y-116195198D01*
X155375208Y-116198355D01*
X155375211Y-116198357D01*
X155403079Y-116217870D01*
X155558251Y-116326523D01*
X155563233Y-116328846D01*
X155563238Y-116328849D01*
X155680690Y-116383617D01*
X155765757Y-116423284D01*
X155771065Y-116424706D01*
X155771067Y-116424707D01*
X155981598Y-116481119D01*
X155981600Y-116481119D01*
X155986913Y-116482543D01*
X156215000Y-116502498D01*
X156443087Y-116482543D01*
X156448400Y-116481119D01*
X156448402Y-116481119D01*
X156658933Y-116424707D01*
X156658935Y-116424706D01*
X156664243Y-116423284D01*
X156749310Y-116383617D01*
X156866762Y-116328849D01*
X156866767Y-116328846D01*
X156871749Y-116326523D01*
X157026921Y-116217870D01*
X157054789Y-116198357D01*
X157054792Y-116198355D01*
X157059300Y-116195198D01*
X157221198Y-116033300D01*
X157352523Y-115845749D01*
X157354846Y-115840767D01*
X157354849Y-115840762D01*
X157446961Y-115643225D01*
X157446961Y-115643224D01*
X157449284Y-115638243D01*
X157508543Y-115417087D01*
X157528498Y-115189000D01*
X157508543Y-114960913D01*
X157499985Y-114928973D01*
X157450707Y-114745067D01*
X157450706Y-114745065D01*
X157449284Y-114739757D01*
X157440888Y-114721751D01*
X157354849Y-114537238D01*
X157354846Y-114537233D01*
X157352523Y-114532251D01*
X157254516Y-114392283D01*
X157224357Y-114349211D01*
X157224355Y-114349208D01*
X157221198Y-114344700D01*
X157059300Y-114182802D01*
X157054792Y-114179645D01*
X157054789Y-114179643D01*
X156895857Y-114068358D01*
X156871749Y-114051477D01*
X156866767Y-114049154D01*
X156866762Y-114049151D01*
X156832543Y-114033195D01*
X156779258Y-113986278D01*
X156759797Y-113918001D01*
X156780339Y-113850041D01*
X156832543Y-113804805D01*
X156866762Y-113788849D01*
X156866767Y-113788846D01*
X156871749Y-113786523D01*
X157001006Y-113696016D01*
X157054789Y-113658357D01*
X157054792Y-113658355D01*
X157059300Y-113655198D01*
X157221198Y-113493300D01*
X157224357Y-113488789D01*
X157331181Y-113336229D01*
X157386638Y-113291901D01*
X157434394Y-113282500D01*
X157673406Y-113282500D01*
X157741527Y-113302502D01*
X157762501Y-113319405D01*
X166491343Y-122048247D01*
X166498887Y-122056537D01*
X166503000Y-122063018D01*
X166508777Y-122068443D01*
X166552667Y-122109658D01*
X166555509Y-122112413D01*
X166575231Y-122132135D01*
X166578355Y-122134558D01*
X166578359Y-122134562D01*
X166578424Y-122134612D01*
X166587445Y-122142317D01*
X166619679Y-122172586D01*
X166626627Y-122176405D01*
X166626629Y-122176407D01*
X166637432Y-122182346D01*
X166653959Y-122193202D01*
X166663698Y-122200757D01*
X166663700Y-122200758D01*
X166669960Y-122205614D01*
X166710540Y-122223174D01*
X166721188Y-122228391D01*
X166759940Y-122249695D01*
X166767616Y-122251666D01*
X166767619Y-122251667D01*
X166779562Y-122254733D01*
X166798267Y-122261137D01*
X166816855Y-122269181D01*
X166824678Y-122270420D01*
X166824688Y-122270423D01*
X166860524Y-122276099D01*
X166872144Y-122278505D01*
X166907289Y-122287528D01*
X166914970Y-122289500D01*
X166935224Y-122289500D01*
X166954934Y-122291051D01*
X166974943Y-122294220D01*
X166982835Y-122293474D01*
X167018961Y-122290059D01*
X167030819Y-122289500D01*
X177226406Y-122289500D01*
X177294527Y-122309502D01*
X177315501Y-122326405D01*
X185292348Y-130303253D01*
X185299888Y-130311539D01*
X185304000Y-130318018D01*
X185309777Y-130323443D01*
X185353651Y-130364643D01*
X185356493Y-130367398D01*
X185376230Y-130387135D01*
X185379427Y-130389615D01*
X185388447Y-130397318D01*
X185420679Y-130427586D01*
X185427625Y-130431405D01*
X185427628Y-130431407D01*
X185438434Y-130437348D01*
X185454953Y-130448199D01*
X185470959Y-130460614D01*
X185478228Y-130463759D01*
X185478232Y-130463762D01*
X185511537Y-130478174D01*
X185522187Y-130483391D01*
X185560940Y-130504695D01*
X185568615Y-130506666D01*
X185568616Y-130506666D01*
X185580562Y-130509733D01*
X185599267Y-130516137D01*
X185617855Y-130524181D01*
X185625678Y-130525420D01*
X185625688Y-130525423D01*
X185661524Y-130531099D01*
X185673144Y-130533505D01*
X185708289Y-130542528D01*
X185715970Y-130544500D01*
X185736224Y-130544500D01*
X185755934Y-130546051D01*
X185775943Y-130549220D01*
X185783835Y-130548474D01*
X185819961Y-130545059D01*
X185831819Y-130544500D01*
X188330274Y-130544500D01*
X188398395Y-130564502D01*
X188437707Y-130604665D01*
X188505987Y-130716088D01*
X188652250Y-130884938D01*
X188824126Y-131027632D01*
X189017000Y-131140338D01*
X189225692Y-131220030D01*
X189230760Y-131221061D01*
X189230763Y-131221062D01*
X189338017Y-131242883D01*
X189444597Y-131264567D01*
X189449772Y-131264757D01*
X189449774Y-131264757D01*
X189662673Y-131272564D01*
X189662677Y-131272564D01*
X189667837Y-131272753D01*
X189672957Y-131272097D01*
X189672959Y-131272097D01*
X189884288Y-131245025D01*
X189884289Y-131245025D01*
X189889416Y-131244368D01*
X189894366Y-131242883D01*
X190098429Y-131181661D01*
X190098434Y-131181659D01*
X190103384Y-131180174D01*
X190303994Y-131081896D01*
X190485860Y-130952173D01*
X190531577Y-130906616D01*
X190612468Y-130826007D01*
X190644096Y-130794489D01*
X190774453Y-130613077D01*
X190778611Y-130604665D01*
X190871136Y-130417453D01*
X190871137Y-130417451D01*
X190873430Y-130412811D01*
X190938370Y-130199069D01*
X190967529Y-129977590D01*
X190969156Y-129911000D01*
X190950852Y-129688361D01*
X190896431Y-129471702D01*
X190807354Y-129266840D01*
X190736035Y-129156598D01*
X190688822Y-129083617D01*
X190688820Y-129083614D01*
X190686014Y-129079277D01*
X190535670Y-128914051D01*
X190531619Y-128910852D01*
X190531615Y-128910848D01*
X190364414Y-128778800D01*
X190364410Y-128778798D01*
X190360359Y-128775598D01*
X190319053Y-128752796D01*
X190269084Y-128702364D01*
X190254312Y-128632921D01*
X190279428Y-128566516D01*
X190306780Y-128539909D01*
X190350603Y-128508650D01*
X190485860Y-128412173D01*
X190644096Y-128254489D01*
X190774453Y-128073077D01*
X190778611Y-128064665D01*
X190871136Y-127877453D01*
X190871137Y-127877451D01*
X190873430Y-127872811D01*
X190938370Y-127659069D01*
X190967529Y-127437590D01*
X190969156Y-127371000D01*
X190950852Y-127148361D01*
X190896431Y-126931702D01*
X190807354Y-126726840D01*
X190686014Y-126539277D01*
X190535670Y-126374051D01*
X190531619Y-126370852D01*
X190531615Y-126370848D01*
X190364414Y-126238800D01*
X190364410Y-126238798D01*
X190360359Y-126235598D01*
X190319053Y-126212796D01*
X190269084Y-126162364D01*
X190254312Y-126092921D01*
X190279428Y-126026516D01*
X190306780Y-125999909D01*
X190350603Y-125968650D01*
X190485860Y-125872173D01*
X190492273Y-125865783D01*
X190612217Y-125746257D01*
X190644096Y-125714489D01*
X190665464Y-125684753D01*
X190771435Y-125537277D01*
X190774453Y-125533077D01*
X190778611Y-125524665D01*
X190871136Y-125337453D01*
X190871137Y-125337451D01*
X190873430Y-125332811D01*
X190938370Y-125119069D01*
X190955872Y-124986134D01*
X192546500Y-124986134D01*
X192553255Y-125048316D01*
X192604385Y-125184705D01*
X192691739Y-125301261D01*
X192808295Y-125388615D01*
X192944684Y-125439745D01*
X193006866Y-125446500D01*
X195603134Y-125446500D01*
X195665316Y-125439745D01*
X195801705Y-125388615D01*
X195918261Y-125301261D01*
X196005615Y-125184705D01*
X196056745Y-125048316D01*
X196063500Y-124986134D01*
X196063500Y-122389866D01*
X196056745Y-122327684D01*
X196005615Y-122191295D01*
X195918261Y-122074739D01*
X195801705Y-121987385D01*
X195665316Y-121936255D01*
X195603134Y-121929500D01*
X193006866Y-121929500D01*
X192944684Y-121936255D01*
X192808295Y-121987385D01*
X192691739Y-122074739D01*
X192604385Y-122191295D01*
X192553255Y-122327684D01*
X192546500Y-122389866D01*
X192546500Y-124986134D01*
X190955872Y-124986134D01*
X190967529Y-124897590D01*
X190969156Y-124831000D01*
X190950852Y-124608361D01*
X190896431Y-124391702D01*
X190807354Y-124186840D01*
X190737461Y-124078802D01*
X190688822Y-124003617D01*
X190688820Y-124003614D01*
X190686014Y-123999277D01*
X190535670Y-123834051D01*
X190531619Y-123830852D01*
X190531615Y-123830848D01*
X190364414Y-123698800D01*
X190364410Y-123698798D01*
X190360359Y-123695598D01*
X190319053Y-123672796D01*
X190269084Y-123622364D01*
X190254312Y-123552921D01*
X190279428Y-123486516D01*
X190306780Y-123459909D01*
X190362678Y-123420037D01*
X190485860Y-123332173D01*
X190490810Y-123327241D01*
X190640435Y-123178137D01*
X190644096Y-123174489D01*
X190655450Y-123158689D01*
X190771435Y-122997277D01*
X190774453Y-122993077D01*
X190777622Y-122986666D01*
X190871136Y-122797453D01*
X190871137Y-122797451D01*
X190873430Y-122792811D01*
X190938370Y-122579069D01*
X190967529Y-122357590D01*
X190968291Y-122326405D01*
X190969074Y-122294365D01*
X190969074Y-122294361D01*
X190969156Y-122291000D01*
X190950852Y-122068361D01*
X190896431Y-121851702D01*
X190807354Y-121646840D01*
X190700298Y-121481356D01*
X190688822Y-121463617D01*
X190688820Y-121463614D01*
X190686014Y-121459277D01*
X190535670Y-121294051D01*
X190531619Y-121290852D01*
X190531615Y-121290848D01*
X190364414Y-121158800D01*
X190364410Y-121158798D01*
X190360359Y-121155598D01*
X190319053Y-121132796D01*
X190269084Y-121082364D01*
X190262015Y-121049134D01*
X192546500Y-121049134D01*
X192553255Y-121111316D01*
X192604385Y-121247705D01*
X192691739Y-121364261D01*
X192808295Y-121451615D01*
X192944684Y-121502745D01*
X193006866Y-121509500D01*
X195603134Y-121509500D01*
X195665316Y-121502745D01*
X195801705Y-121451615D01*
X195918261Y-121364261D01*
X196005615Y-121247705D01*
X196056745Y-121111316D01*
X196063500Y-121049134D01*
X196063500Y-118452866D01*
X196056745Y-118390684D01*
X196005615Y-118254295D01*
X195918261Y-118137739D01*
X195801705Y-118050385D01*
X195665316Y-117999255D01*
X195603134Y-117992500D01*
X193006866Y-117992500D01*
X192944684Y-117999255D01*
X192808295Y-118050385D01*
X192691739Y-118137739D01*
X192604385Y-118254295D01*
X192553255Y-118390684D01*
X192546500Y-118452866D01*
X192546500Y-121049134D01*
X190262015Y-121049134D01*
X190254312Y-121012921D01*
X190279428Y-120946516D01*
X190306780Y-120919909D01*
X190372107Y-120873312D01*
X190485860Y-120792173D01*
X190490810Y-120787241D01*
X190631268Y-120647272D01*
X190644096Y-120634489D01*
X190716529Y-120533688D01*
X190771435Y-120457277D01*
X190774453Y-120453077D01*
X190777622Y-120446666D01*
X190871136Y-120257453D01*
X190871137Y-120257451D01*
X190873430Y-120252811D01*
X190938370Y-120039069D01*
X190967529Y-119817590D01*
X190969156Y-119751000D01*
X190950852Y-119528361D01*
X190896431Y-119311702D01*
X190807354Y-119106840D01*
X190686014Y-118919277D01*
X190535670Y-118754051D01*
X190531619Y-118750852D01*
X190531615Y-118750848D01*
X190364414Y-118618800D01*
X190364410Y-118618798D01*
X190360359Y-118615598D01*
X190319053Y-118592796D01*
X190269084Y-118542364D01*
X190254312Y-118472921D01*
X190279428Y-118406516D01*
X190306780Y-118379909D01*
X190350603Y-118348650D01*
X190485860Y-118252173D01*
X190644096Y-118094489D01*
X190774453Y-117913077D01*
X190777622Y-117906666D01*
X190871136Y-117717453D01*
X190871137Y-117717451D01*
X190873430Y-117712811D01*
X190938370Y-117499069D01*
X190967529Y-117277590D01*
X190969156Y-117211000D01*
X190950852Y-116988361D01*
X190950041Y-116985134D01*
X192546500Y-116985134D01*
X192553255Y-117047316D01*
X192604385Y-117183705D01*
X192691739Y-117300261D01*
X192808295Y-117387615D01*
X192944684Y-117438745D01*
X193006866Y-117445500D01*
X195603134Y-117445500D01*
X195665316Y-117438745D01*
X195801705Y-117387615D01*
X195918261Y-117300261D01*
X196005615Y-117183705D01*
X196056745Y-117047316D01*
X196063500Y-116985134D01*
X196063500Y-114388866D01*
X196056745Y-114326684D01*
X196005615Y-114190295D01*
X195918261Y-114073739D01*
X195801705Y-113986385D01*
X195665316Y-113935255D01*
X195603134Y-113928500D01*
X193006866Y-113928500D01*
X192944684Y-113935255D01*
X192808295Y-113986385D01*
X192691739Y-114073739D01*
X192604385Y-114190295D01*
X192553255Y-114326684D01*
X192546500Y-114388866D01*
X192546500Y-116985134D01*
X190950041Y-116985134D01*
X190896431Y-116771702D01*
X190807354Y-116566840D01*
X190715404Y-116424707D01*
X190688822Y-116383617D01*
X190688820Y-116383614D01*
X190686014Y-116379277D01*
X190535670Y-116214051D01*
X190531619Y-116210852D01*
X190531615Y-116210848D01*
X190364414Y-116078800D01*
X190364410Y-116078798D01*
X190360359Y-116075598D01*
X190318569Y-116052529D01*
X190268598Y-116002097D01*
X190253826Y-115932654D01*
X190278942Y-115866248D01*
X190306294Y-115839641D01*
X190481328Y-115714792D01*
X190489200Y-115708139D01*
X190640052Y-115557812D01*
X190646730Y-115549965D01*
X190771003Y-115377020D01*
X190776313Y-115368183D01*
X190870670Y-115177267D01*
X190874469Y-115167672D01*
X190936377Y-114963910D01*
X190938555Y-114953837D01*
X190939986Y-114942962D01*
X190937775Y-114928778D01*
X190924617Y-114925000D01*
X188289225Y-114925000D01*
X188275694Y-114928973D01*
X188274257Y-114938966D01*
X188304565Y-115073446D01*
X188307645Y-115083275D01*
X188387770Y-115280603D01*
X188392413Y-115289794D01*
X188503694Y-115471388D01*
X188509777Y-115479699D01*
X188649213Y-115640667D01*
X188656580Y-115647883D01*
X188820434Y-115783916D01*
X188828881Y-115789831D01*
X188897969Y-115830203D01*
X188946693Y-115881842D01*
X188959764Y-115951625D01*
X188933033Y-116017396D01*
X188892584Y-116050752D01*
X188879607Y-116057507D01*
X188875474Y-116060610D01*
X188875471Y-116060612D01*
X188851247Y-116078800D01*
X188700965Y-116191635D01*
X188546629Y-116353138D01*
X188445070Y-116502019D01*
X188432460Y-116520504D01*
X188377549Y-116565507D01*
X188328372Y-116575500D01*
X187635422Y-116575500D01*
X187567301Y-116555498D01*
X187546327Y-116538595D01*
X184055405Y-113047672D01*
X184045282Y-113029134D01*
X188247500Y-113029134D01*
X188254255Y-113091316D01*
X188305385Y-113227705D01*
X188392739Y-113344261D01*
X188509295Y-113431615D01*
X188517704Y-113434767D01*
X188517705Y-113434768D01*
X188626960Y-113475726D01*
X188683725Y-113518367D01*
X188708425Y-113584929D01*
X188693218Y-113654278D01*
X188673825Y-113680759D01*
X188550590Y-113809717D01*
X188544104Y-113817727D01*
X188424098Y-113993649D01*
X188419000Y-114002623D01*
X188329338Y-114195783D01*
X188325775Y-114205470D01*
X188270389Y-114405183D01*
X188271912Y-114413607D01*
X188284292Y-114417000D01*
X190924344Y-114417000D01*
X190937875Y-114413027D01*
X190939180Y-114403947D01*
X190897214Y-114236875D01*
X190893894Y-114227124D01*
X190808972Y-114031814D01*
X190804105Y-114022739D01*
X190688426Y-113843926D01*
X190682136Y-113835757D01*
X190538293Y-113677677D01*
X190507241Y-113613831D01*
X190515635Y-113543333D01*
X190560812Y-113488564D01*
X190587256Y-113474895D01*
X190694297Y-113434767D01*
X190702705Y-113431615D01*
X190819261Y-113344261D01*
X190906615Y-113227705D01*
X190957745Y-113091316D01*
X190964500Y-113029134D01*
X190964500Y-111232866D01*
X190957745Y-111170684D01*
X190906615Y-111034295D01*
X190819261Y-110917739D01*
X190702705Y-110830385D01*
X190566316Y-110779255D01*
X190504134Y-110772500D01*
X188707866Y-110772500D01*
X188645684Y-110779255D01*
X188509295Y-110830385D01*
X188392739Y-110917739D01*
X188305385Y-111034295D01*
X188254255Y-111170684D01*
X188247500Y-111232866D01*
X188247500Y-113029134D01*
X184045282Y-113029134D01*
X184021379Y-112985360D01*
X184018500Y-112958577D01*
X184018500Y-99651532D01*
X184019030Y-99640293D01*
X184020709Y-99632781D01*
X184018562Y-99564469D01*
X184018500Y-99560512D01*
X184018500Y-99532517D01*
X184017992Y-99528494D01*
X184017059Y-99516652D01*
X184016701Y-99505239D01*
X184015665Y-99472295D01*
X184009987Y-99452751D01*
X184005977Y-99433388D01*
X184004420Y-99421060D01*
X184004420Y-99421058D01*
X184003427Y-99413201D01*
X184000511Y-99405837D01*
X184000510Y-99405832D01*
X183987093Y-99371944D01*
X183983248Y-99360715D01*
X183973081Y-99325722D01*
X183970869Y-99318107D01*
X183966830Y-99311277D01*
X183960512Y-99300594D01*
X183951812Y-99282836D01*
X183947239Y-99271285D01*
X183947235Y-99271279D01*
X183944319Y-99263912D01*
X183918234Y-99228009D01*
X183911719Y-99218090D01*
X183893174Y-99186732D01*
X183893171Y-99186728D01*
X183889134Y-99179902D01*
X183874750Y-99165518D01*
X183861909Y-99150484D01*
X183854602Y-99140427D01*
X183849942Y-99134013D01*
X183815744Y-99105722D01*
X183806965Y-99097733D01*
X182616232Y-97907000D01*
X186006502Y-97907000D01*
X186026457Y-98135087D01*
X186027881Y-98140400D01*
X186027881Y-98140402D01*
X186079505Y-98333062D01*
X186085716Y-98356243D01*
X186088039Y-98361224D01*
X186088039Y-98361225D01*
X186180151Y-98558762D01*
X186180154Y-98558767D01*
X186182477Y-98563749D01*
X186232719Y-98635502D01*
X186310479Y-98746554D01*
X186313802Y-98751300D01*
X186475700Y-98913198D01*
X186480208Y-98916355D01*
X186480211Y-98916357D01*
X186524094Y-98947084D01*
X186663251Y-99044523D01*
X186668233Y-99046846D01*
X186668238Y-99046849D01*
X186802666Y-99109533D01*
X186870757Y-99141284D01*
X186876065Y-99142706D01*
X186876067Y-99142707D01*
X187086598Y-99199119D01*
X187086600Y-99199119D01*
X187091913Y-99200543D01*
X187320000Y-99220498D01*
X187548087Y-99200543D01*
X187553400Y-99199119D01*
X187553402Y-99199119D01*
X187763933Y-99142707D01*
X187763935Y-99142706D01*
X187769243Y-99141284D01*
X187837334Y-99109533D01*
X187971762Y-99046849D01*
X187971767Y-99046846D01*
X187976749Y-99044523D01*
X188115906Y-98947084D01*
X188159789Y-98916357D01*
X188159792Y-98916355D01*
X188164300Y-98913198D01*
X188326198Y-98751300D01*
X188329522Y-98746554D01*
X188407281Y-98635502D01*
X188457523Y-98563749D01*
X188459846Y-98558767D01*
X188459849Y-98558762D01*
X188551961Y-98361225D01*
X188551961Y-98361224D01*
X188554284Y-98356243D01*
X188560496Y-98333062D01*
X188612119Y-98140402D01*
X188612119Y-98140400D01*
X188613543Y-98135087D01*
X188633498Y-97907000D01*
X188613543Y-97678913D01*
X188610344Y-97666973D01*
X188555707Y-97463067D01*
X188555706Y-97463065D01*
X188554284Y-97457757D01*
X188549748Y-97448030D01*
X188459849Y-97255238D01*
X188459846Y-97255233D01*
X188457523Y-97250251D01*
X188361375Y-97112938D01*
X188329357Y-97067211D01*
X188329355Y-97067208D01*
X188326198Y-97062700D01*
X188164300Y-96900802D01*
X188159792Y-96897645D01*
X188159789Y-96897643D01*
X188072379Y-96836438D01*
X187976749Y-96769477D01*
X187971767Y-96767154D01*
X187971762Y-96767151D01*
X187774225Y-96675039D01*
X187774224Y-96675039D01*
X187769243Y-96672716D01*
X187763935Y-96671294D01*
X187763933Y-96671293D01*
X187553402Y-96614881D01*
X187553400Y-96614881D01*
X187548087Y-96613457D01*
X187320000Y-96593502D01*
X187091913Y-96613457D01*
X187086600Y-96614881D01*
X187086598Y-96614881D01*
X186876067Y-96671293D01*
X186876065Y-96671294D01*
X186870757Y-96672716D01*
X186865776Y-96675039D01*
X186865775Y-96675039D01*
X186668238Y-96767151D01*
X186668233Y-96767154D01*
X186663251Y-96769477D01*
X186567621Y-96836438D01*
X186480211Y-96897643D01*
X186480208Y-96897645D01*
X186475700Y-96900802D01*
X186313802Y-97062700D01*
X186310645Y-97067208D01*
X186310643Y-97067211D01*
X186278625Y-97112938D01*
X186182477Y-97250251D01*
X186180154Y-97255233D01*
X186180151Y-97255238D01*
X186090252Y-97448030D01*
X186085716Y-97457757D01*
X186084294Y-97463065D01*
X186084293Y-97463067D01*
X186029656Y-97666973D01*
X186026457Y-97678913D01*
X186006502Y-97907000D01*
X182616232Y-97907000D01*
X179645377Y-94936144D01*
X179611351Y-94873832D01*
X179613914Y-94810420D01*
X179624365Y-94776022D01*
X179625870Y-94771069D01*
X179655029Y-94549590D01*
X179656656Y-94483000D01*
X179638352Y-94260361D01*
X179583931Y-94043702D01*
X179494854Y-93838840D01*
X179373514Y-93651277D01*
X179223170Y-93486051D01*
X179219119Y-93482852D01*
X179219115Y-93482848D01*
X179051914Y-93350800D01*
X179051910Y-93350798D01*
X179047859Y-93347598D01*
X179006553Y-93324796D01*
X178956584Y-93274364D01*
X178941812Y-93204921D01*
X178966928Y-93138516D01*
X178994280Y-93111909D01*
X179061359Y-93064062D01*
X179173360Y-92984173D01*
X179331596Y-92826489D01*
X179461953Y-92645077D01*
X179464954Y-92639006D01*
X179558636Y-92449453D01*
X179558637Y-92449451D01*
X179560930Y-92444811D01*
X179606375Y-92295233D01*
X179624365Y-92236023D01*
X179624365Y-92236021D01*
X179625870Y-92231069D01*
X179655029Y-92009590D01*
X179655667Y-91983475D01*
X179656574Y-91946365D01*
X179656574Y-91946361D01*
X179656656Y-91943000D01*
X179638352Y-91720361D01*
X179583931Y-91503702D01*
X179494854Y-91298840D01*
X179373514Y-91111277D01*
X179223170Y-90946051D01*
X179219119Y-90942852D01*
X179219115Y-90942848D01*
X179051914Y-90810800D01*
X179051910Y-90810798D01*
X179047859Y-90807598D01*
X179025397Y-90795198D01*
X178995636Y-90778769D01*
X178852289Y-90699638D01*
X178847420Y-90697914D01*
X178847416Y-90697912D01*
X178646587Y-90626795D01*
X178646583Y-90626794D01*
X178641712Y-90625069D01*
X178636619Y-90624162D01*
X178636616Y-90624161D01*
X178426873Y-90586800D01*
X178426867Y-90586799D01*
X178421784Y-90585894D01*
X178347952Y-90584992D01*
X178203581Y-90583228D01*
X178203579Y-90583228D01*
X178198411Y-90583165D01*
X177977591Y-90616955D01*
X177765256Y-90686357D01*
X177567107Y-90789507D01*
X177562974Y-90792610D01*
X177562971Y-90792612D01*
X177414038Y-90904434D01*
X177388465Y-90923635D01*
X177234129Y-91085138D01*
X177161193Y-91192059D01*
X177126398Y-91243066D01*
X177071487Y-91288069D01*
X177000962Y-91296240D01*
X176937215Y-91264986D01*
X176916517Y-91240501D01*
X176886562Y-91194197D01*
X176875877Y-91184995D01*
X176866312Y-91189398D01*
X176125522Y-91930188D01*
X176117908Y-91944132D01*
X176118039Y-91945965D01*
X176122290Y-91952580D01*
X176863974Y-92694264D01*
X176875984Y-92700823D01*
X176887723Y-92691855D01*
X176921522Y-92644819D01*
X176922777Y-92645721D01*
X176969891Y-92602355D01*
X177039830Y-92590148D01*
X177105267Y-92617691D01*
X177133080Y-92649513D01*
X177190787Y-92743683D01*
X177190791Y-92743688D01*
X177193487Y-92748088D01*
X177339750Y-92916938D01*
X177511626Y-93059632D01*
X177540874Y-93076723D01*
X177584945Y-93102476D01*
X177633669Y-93154114D01*
X177646740Y-93223897D01*
X177620009Y-93289669D01*
X177579555Y-93323027D01*
X177567107Y-93329507D01*
X177562974Y-93332610D01*
X177562971Y-93332612D01*
X177538747Y-93350800D01*
X177388465Y-93463635D01*
X177234129Y-93625138D01*
X177126701Y-93782621D01*
X177071793Y-93827621D01*
X177001268Y-93835792D01*
X176937521Y-93804538D01*
X176916824Y-93780054D01*
X176836322Y-93655617D01*
X176836320Y-93655614D01*
X176833514Y-93651277D01*
X176683170Y-93486051D01*
X176679119Y-93482852D01*
X176679115Y-93482848D01*
X176511914Y-93350800D01*
X176511910Y-93350798D01*
X176507859Y-93347598D01*
X176466069Y-93324529D01*
X176416098Y-93274097D01*
X176401326Y-93204654D01*
X176426442Y-93138248D01*
X176453793Y-93111642D01*
X176502747Y-93076723D01*
X176511148Y-93066023D01*
X176504160Y-93052870D01*
X175766312Y-92315022D01*
X175752368Y-92307408D01*
X175750535Y-92307539D01*
X175743920Y-92311790D01*
X175000237Y-93055473D01*
X174993477Y-93067853D01*
X174998758Y-93074907D01*
X175045469Y-93102203D01*
X175094193Y-93153841D01*
X175107264Y-93223624D01*
X175080533Y-93289396D01*
X175040084Y-93322752D01*
X175027107Y-93329507D01*
X175022974Y-93332610D01*
X175022971Y-93332612D01*
X174998747Y-93350800D01*
X174848465Y-93463635D01*
X174694129Y-93625138D01*
X174586704Y-93782618D01*
X174579960Y-93792504D01*
X174525049Y-93837507D01*
X174475872Y-93847500D01*
X173932020Y-93847500D01*
X173920786Y-93846970D01*
X173913281Y-93845292D01*
X173845571Y-93847420D01*
X173844988Y-93847438D01*
X173841031Y-93847500D01*
X173813017Y-93847500D01*
X173809092Y-93847996D01*
X173809091Y-93847996D01*
X173808996Y-93848008D01*
X173797151Y-93848941D01*
X173767330Y-93849878D01*
X173760718Y-93850086D01*
X173760717Y-93850086D01*
X173752795Y-93850335D01*
X173733252Y-93856013D01*
X173713888Y-93860023D01*
X173701560Y-93861580D01*
X173701558Y-93861580D01*
X173693701Y-93862573D01*
X173686337Y-93865489D01*
X173686332Y-93865490D01*
X173652444Y-93878907D01*
X173641215Y-93882752D01*
X173627241Y-93886812D01*
X173598607Y-93895131D01*
X173591781Y-93899168D01*
X173581091Y-93905490D01*
X173563341Y-93914187D01*
X173544412Y-93921681D01*
X173537996Y-93926342D01*
X173537995Y-93926343D01*
X173508519Y-93947759D01*
X173498595Y-93954278D01*
X173467224Y-93972830D01*
X173467219Y-93972834D01*
X173460401Y-93976866D01*
X173446014Y-93991253D01*
X173430980Y-94004094D01*
X173414513Y-94016058D01*
X173409460Y-94022166D01*
X173386228Y-94050249D01*
X173378238Y-94059029D01*
X165844517Y-101592750D01*
X165836191Y-101600326D01*
X165829697Y-101604447D01*
X165824274Y-101610222D01*
X165782915Y-101654265D01*
X165780160Y-101657107D01*
X165760361Y-101676906D01*
X165757937Y-101680031D01*
X165757929Y-101680040D01*
X165757863Y-101680126D01*
X165750155Y-101689151D01*
X165719783Y-101721494D01*
X165715965Y-101728438D01*
X165715964Y-101728440D01*
X165709978Y-101739329D01*
X165699127Y-101755847D01*
X165686650Y-101771933D01*
X165669024Y-101812666D01*
X165663807Y-101823314D01*
X165642431Y-101862197D01*
X165640460Y-101869872D01*
X165640458Y-101869878D01*
X165637369Y-101881911D01*
X165630966Y-101900613D01*
X165622883Y-101919292D01*
X165621644Y-101927117D01*
X165615940Y-101963127D01*
X165613535Y-101974740D01*
X165602500Y-102017718D01*
X165602500Y-102038065D01*
X165600949Y-102057776D01*
X165597765Y-102077879D01*
X165598511Y-102085771D01*
X165601941Y-102122056D01*
X165602500Y-102133914D01*
X165602500Y-109163577D01*
X165582498Y-109231698D01*
X165565595Y-109252672D01*
X165381672Y-109436595D01*
X165319360Y-109470621D01*
X165292577Y-109473500D01*
X165052993Y-109473500D01*
X164984872Y-109453498D01*
X164949780Y-109419771D01*
X164944648Y-109412441D01*
X164841198Y-109264700D01*
X164679300Y-109102802D01*
X164674792Y-109099645D01*
X164674789Y-109099643D01*
X164568807Y-109025434D01*
X164491749Y-108971477D01*
X164486767Y-108969154D01*
X164486762Y-108969151D01*
X164452543Y-108953195D01*
X164399258Y-108906278D01*
X164379797Y-108838001D01*
X164400339Y-108770041D01*
X164452543Y-108724805D01*
X164486762Y-108708849D01*
X164486767Y-108708846D01*
X164491749Y-108706523D01*
X164596611Y-108633098D01*
X164674789Y-108578357D01*
X164674792Y-108578355D01*
X164679300Y-108575198D01*
X164841198Y-108413300D01*
X164845657Y-108406933D01*
X164920183Y-108300498D01*
X164972523Y-108225749D01*
X164974846Y-108220767D01*
X164974849Y-108220762D01*
X165066961Y-108023225D01*
X165066961Y-108023224D01*
X165069284Y-108018243D01*
X165128543Y-107797087D01*
X165148498Y-107569000D01*
X165128543Y-107340913D01*
X165069284Y-107119757D01*
X165055591Y-107090392D01*
X164974849Y-106917238D01*
X164974846Y-106917233D01*
X164972523Y-106912251D01*
X164874152Y-106771763D01*
X164844357Y-106729211D01*
X164844355Y-106729208D01*
X164841198Y-106724700D01*
X164679300Y-106562802D01*
X164674792Y-106559645D01*
X164674789Y-106559643D01*
X164596022Y-106504490D01*
X164491749Y-106431477D01*
X164486767Y-106429154D01*
X164486762Y-106429151D01*
X164452543Y-106413195D01*
X164399258Y-106366278D01*
X164379797Y-106298001D01*
X164400339Y-106230041D01*
X164452543Y-106184805D01*
X164486762Y-106168849D01*
X164486767Y-106168846D01*
X164491749Y-106166523D01*
X164614564Y-106080527D01*
X164674789Y-106038357D01*
X164674792Y-106038355D01*
X164679300Y-106035198D01*
X164841198Y-105873300D01*
X164850482Y-105860042D01*
X164943481Y-105727225D01*
X164972523Y-105685749D01*
X164974846Y-105680767D01*
X164974849Y-105680762D01*
X165066961Y-105483225D01*
X165066961Y-105483224D01*
X165069284Y-105478243D01*
X165124583Y-105271868D01*
X165127119Y-105262402D01*
X165127119Y-105262400D01*
X165128543Y-105257087D01*
X165148498Y-105029000D01*
X165128543Y-104800913D01*
X165127119Y-104795598D01*
X165070707Y-104585067D01*
X165070706Y-104585065D01*
X165069284Y-104579757D01*
X165056143Y-104551576D01*
X164974849Y-104377238D01*
X164974846Y-104377233D01*
X164972523Y-104372251D01*
X164896475Y-104263643D01*
X164844357Y-104189211D01*
X164844355Y-104189208D01*
X164841198Y-104184700D01*
X164679300Y-104022802D01*
X164674792Y-104019645D01*
X164674789Y-104019643D01*
X164517991Y-103909852D01*
X164491749Y-103891477D01*
X164486767Y-103889154D01*
X164486762Y-103889151D01*
X164452543Y-103873195D01*
X164399258Y-103826278D01*
X164379797Y-103758001D01*
X164400339Y-103690041D01*
X164452543Y-103644805D01*
X164486762Y-103628849D01*
X164486767Y-103628846D01*
X164491749Y-103626523D01*
X164599085Y-103551365D01*
X164674789Y-103498357D01*
X164674792Y-103498355D01*
X164679300Y-103495198D01*
X164841198Y-103333300D01*
X164972523Y-103145749D01*
X164974846Y-103140767D01*
X164974849Y-103140762D01*
X165066961Y-102943225D01*
X165066961Y-102943224D01*
X165069284Y-102938243D01*
X165128543Y-102717087D01*
X165148498Y-102489000D01*
X165128543Y-102260913D01*
X165109282Y-102189031D01*
X165070707Y-102045067D01*
X165070706Y-102045065D01*
X165069284Y-102039757D01*
X165062704Y-102025645D01*
X164974849Y-101837238D01*
X164974846Y-101837233D01*
X164972523Y-101832251D01*
X164866004Y-101680126D01*
X164844357Y-101649211D01*
X164844355Y-101649208D01*
X164841198Y-101644700D01*
X164679300Y-101482802D01*
X164674792Y-101479645D01*
X164674789Y-101479643D01*
X164566112Y-101403547D01*
X164491749Y-101351477D01*
X164486767Y-101349154D01*
X164486762Y-101349151D01*
X164452543Y-101333195D01*
X164399258Y-101286278D01*
X164379797Y-101218001D01*
X164400339Y-101150041D01*
X164452543Y-101104805D01*
X164486762Y-101088849D01*
X164486767Y-101088846D01*
X164491749Y-101086523D01*
X164636783Y-100984969D01*
X164674789Y-100958357D01*
X164674792Y-100958355D01*
X164679300Y-100955198D01*
X164841198Y-100793300D01*
X164850720Y-100779702D01*
X164969366Y-100610257D01*
X164972523Y-100605749D01*
X164974846Y-100600767D01*
X164974849Y-100600762D01*
X165066961Y-100403225D01*
X165066961Y-100403224D01*
X165069284Y-100398243D01*
X165071060Y-100391617D01*
X165127119Y-100182402D01*
X165127119Y-100182400D01*
X165128543Y-100177087D01*
X165148498Y-99949000D01*
X165128543Y-99720913D01*
X165107576Y-99642663D01*
X165070707Y-99505067D01*
X165070706Y-99505065D01*
X165069284Y-99499757D01*
X165059786Y-99479388D01*
X164974849Y-99297238D01*
X164974846Y-99297233D01*
X164972523Y-99292251D01*
X164883783Y-99165518D01*
X164844357Y-99109211D01*
X164844355Y-99109208D01*
X164841198Y-99104700D01*
X164679300Y-98942802D01*
X164674792Y-98939645D01*
X164674789Y-98939643D01*
X164596611Y-98884902D01*
X164491749Y-98811477D01*
X164486767Y-98809154D01*
X164486762Y-98809151D01*
X164451951Y-98792919D01*
X164398666Y-98746002D01*
X164379205Y-98677725D01*
X164399747Y-98609765D01*
X164451951Y-98564529D01*
X164486511Y-98548414D01*
X164496007Y-98542931D01*
X164674467Y-98417972D01*
X164682875Y-98410916D01*
X164836916Y-98256875D01*
X164843972Y-98248467D01*
X164968931Y-98070007D01*
X164974414Y-98060511D01*
X165066490Y-97863053D01*
X165070236Y-97852761D01*
X165116394Y-97680497D01*
X165116058Y-97666401D01*
X165108116Y-97663000D01*
X162567033Y-97663000D01*
X162553502Y-97666973D01*
X162552273Y-97675522D01*
X162599764Y-97852761D01*
X162603510Y-97863053D01*
X162695586Y-98060511D01*
X162701069Y-98070007D01*
X162826028Y-98248467D01*
X162833084Y-98256875D01*
X162987125Y-98410916D01*
X162995533Y-98417972D01*
X163173993Y-98542931D01*
X163183489Y-98548414D01*
X163218049Y-98564529D01*
X163271334Y-98611446D01*
X163290795Y-98679723D01*
X163270253Y-98747683D01*
X163218049Y-98792919D01*
X163183238Y-98809151D01*
X163183233Y-98809154D01*
X163178251Y-98811477D01*
X163073389Y-98884902D01*
X162995211Y-98939643D01*
X162995208Y-98939645D01*
X162990700Y-98942802D01*
X162828802Y-99104700D01*
X162825645Y-99109208D01*
X162825643Y-99109211D01*
X162786217Y-99165518D01*
X162697477Y-99292251D01*
X162695154Y-99297233D01*
X162695151Y-99297238D01*
X162610214Y-99479388D01*
X162600716Y-99499757D01*
X162599294Y-99505065D01*
X162599293Y-99505067D01*
X162562424Y-99642663D01*
X162541457Y-99720913D01*
X162521502Y-99949000D01*
X162541457Y-100177087D01*
X162542881Y-100182400D01*
X162542881Y-100182402D01*
X162598941Y-100391617D01*
X162600716Y-100398243D01*
X162603039Y-100403224D01*
X162603039Y-100403225D01*
X162695151Y-100600762D01*
X162695154Y-100600767D01*
X162697477Y-100605749D01*
X162700634Y-100610257D01*
X162819281Y-100779702D01*
X162828802Y-100793300D01*
X162990700Y-100955198D01*
X162995208Y-100958355D01*
X162995211Y-100958357D01*
X163033217Y-100984969D01*
X163178251Y-101086523D01*
X163183233Y-101088846D01*
X163183238Y-101088849D01*
X163217457Y-101104805D01*
X163270742Y-101151722D01*
X163290203Y-101219999D01*
X163269661Y-101287959D01*
X163217457Y-101333195D01*
X163183238Y-101349151D01*
X163183233Y-101349154D01*
X163178251Y-101351477D01*
X163103888Y-101403547D01*
X162995211Y-101479643D01*
X162995208Y-101479645D01*
X162990700Y-101482802D01*
X162828802Y-101644700D01*
X162825645Y-101649208D01*
X162825643Y-101649211D01*
X162803996Y-101680126D01*
X162697477Y-101832251D01*
X162695154Y-101837233D01*
X162695151Y-101837238D01*
X162607296Y-102025645D01*
X162600716Y-102039757D01*
X162599294Y-102045065D01*
X162599293Y-102045067D01*
X162560718Y-102189031D01*
X162541457Y-102260913D01*
X162521502Y-102489000D01*
X162541457Y-102717087D01*
X162600716Y-102938243D01*
X162603039Y-102943224D01*
X162603039Y-102943225D01*
X162695151Y-103140762D01*
X162695154Y-103140767D01*
X162697477Y-103145749D01*
X162828802Y-103333300D01*
X162990700Y-103495198D01*
X162995208Y-103498355D01*
X162995211Y-103498357D01*
X163070915Y-103551365D01*
X163178251Y-103626523D01*
X163183233Y-103628846D01*
X163183238Y-103628849D01*
X163217457Y-103644805D01*
X163270742Y-103691722D01*
X163290203Y-103759999D01*
X163269661Y-103827959D01*
X163217457Y-103873195D01*
X163183238Y-103889151D01*
X163183233Y-103889154D01*
X163178251Y-103891477D01*
X163152009Y-103909852D01*
X162995211Y-104019643D01*
X162995208Y-104019645D01*
X162990700Y-104022802D01*
X162828802Y-104184700D01*
X162825645Y-104189208D01*
X162825643Y-104189211D01*
X162773525Y-104263643D01*
X162697477Y-104372251D01*
X162695154Y-104377233D01*
X162695151Y-104377238D01*
X162613857Y-104551576D01*
X162600716Y-104579757D01*
X162599294Y-104585065D01*
X162599293Y-104585067D01*
X162542881Y-104795598D01*
X162541457Y-104800913D01*
X162521502Y-105029000D01*
X162541457Y-105257087D01*
X162542881Y-105262400D01*
X162542881Y-105262402D01*
X162545418Y-105271868D01*
X162600716Y-105478243D01*
X162603039Y-105483224D01*
X162603039Y-105483225D01*
X162695151Y-105680762D01*
X162695154Y-105680767D01*
X162697477Y-105685749D01*
X162726519Y-105727225D01*
X162819519Y-105860042D01*
X162828802Y-105873300D01*
X162990700Y-106035198D01*
X162995208Y-106038355D01*
X162995211Y-106038357D01*
X163055436Y-106080527D01*
X163178251Y-106166523D01*
X163183233Y-106168846D01*
X163183238Y-106168849D01*
X163217457Y-106184805D01*
X163270742Y-106231722D01*
X163290203Y-106299999D01*
X163269661Y-106367959D01*
X163217457Y-106413195D01*
X163183238Y-106429151D01*
X163183233Y-106429154D01*
X163178251Y-106431477D01*
X163073978Y-106504490D01*
X162995211Y-106559643D01*
X162995208Y-106559645D01*
X162990700Y-106562802D01*
X162828802Y-106724700D01*
X162825645Y-106729208D01*
X162825643Y-106729211D01*
X162795848Y-106771763D01*
X162697477Y-106912251D01*
X162695154Y-106917233D01*
X162695151Y-106917238D01*
X162614409Y-107090392D01*
X162600716Y-107119757D01*
X162541457Y-107340913D01*
X162521502Y-107569000D01*
X162541457Y-107797087D01*
X162600716Y-108018243D01*
X162603039Y-108023224D01*
X162603039Y-108023225D01*
X162695151Y-108220762D01*
X162695154Y-108220767D01*
X162697477Y-108225749D01*
X162749817Y-108300498D01*
X162824344Y-108406933D01*
X162828802Y-108413300D01*
X162990700Y-108575198D01*
X162995208Y-108578355D01*
X162995211Y-108578357D01*
X163073389Y-108633098D01*
X163178251Y-108706523D01*
X163183233Y-108708846D01*
X163183238Y-108708849D01*
X163217457Y-108724805D01*
X163270742Y-108771722D01*
X163290203Y-108839999D01*
X163269661Y-108907959D01*
X163217457Y-108953195D01*
X163183238Y-108969151D01*
X163183233Y-108969154D01*
X163178251Y-108971477D01*
X163101193Y-109025434D01*
X162995211Y-109099643D01*
X162995208Y-109099645D01*
X162990700Y-109102802D01*
X162828802Y-109264700D01*
X162697477Y-109452251D01*
X162695154Y-109457233D01*
X162695151Y-109457238D01*
X162614409Y-109630392D01*
X162600716Y-109659757D01*
X162599294Y-109665065D01*
X162599293Y-109665067D01*
X162542881Y-109875598D01*
X162541457Y-109880913D01*
X162521502Y-110109000D01*
X162541457Y-110337087D01*
X162600716Y-110558243D01*
X162603039Y-110563225D01*
X162604196Y-110566403D01*
X162608701Y-110637257D01*
X162574184Y-110699298D01*
X162511604Y-110732829D01*
X162485796Y-110735500D01*
X161975594Y-110735500D01*
X161907473Y-110715498D01*
X161886499Y-110698595D01*
X158364652Y-107176747D01*
X158357112Y-107168461D01*
X158353000Y-107161982D01*
X158303348Y-107115356D01*
X158300507Y-107112602D01*
X158280770Y-107092865D01*
X158277573Y-107090385D01*
X158268551Y-107082680D01*
X158242100Y-107057841D01*
X158236321Y-107052414D01*
X158229375Y-107048595D01*
X158229372Y-107048593D01*
X158218566Y-107042652D01*
X158202047Y-107031801D01*
X158201583Y-107031441D01*
X158186041Y-107019386D01*
X158178772Y-107016241D01*
X158178768Y-107016238D01*
X158145463Y-107001826D01*
X158134813Y-106996609D01*
X158096060Y-106975305D01*
X158076437Y-106970267D01*
X158057734Y-106963863D01*
X158046420Y-106958967D01*
X158046419Y-106958967D01*
X158039145Y-106955819D01*
X158031322Y-106954580D01*
X158031312Y-106954577D01*
X157995476Y-106948901D01*
X157983856Y-106946495D01*
X157948711Y-106937472D01*
X157948710Y-106937472D01*
X157941030Y-106935500D01*
X157920776Y-106935500D01*
X157901065Y-106933949D01*
X157888886Y-106932020D01*
X157881057Y-106930780D01*
X157873165Y-106931526D01*
X157837039Y-106934941D01*
X157825181Y-106935500D01*
X157434394Y-106935500D01*
X157366273Y-106915498D01*
X157331181Y-106881771D01*
X157224357Y-106729211D01*
X157224355Y-106729208D01*
X157221198Y-106724700D01*
X157059300Y-106562802D01*
X157054792Y-106559645D01*
X157054789Y-106559643D01*
X156976022Y-106504490D01*
X156871749Y-106431477D01*
X156866767Y-106429154D01*
X156866762Y-106429151D01*
X156832543Y-106413195D01*
X156779258Y-106366278D01*
X156759797Y-106298001D01*
X156780339Y-106230041D01*
X156832543Y-106184805D01*
X156866762Y-106168849D01*
X156866767Y-106168846D01*
X156871749Y-106166523D01*
X156994564Y-106080527D01*
X157054789Y-106038357D01*
X157054792Y-106038355D01*
X157059300Y-106035198D01*
X157221198Y-105873300D01*
X157230482Y-105860042D01*
X157323481Y-105727225D01*
X157352523Y-105685749D01*
X157354846Y-105680767D01*
X157354849Y-105680762D01*
X157446961Y-105483225D01*
X157446961Y-105483224D01*
X157449284Y-105478243D01*
X157504583Y-105271868D01*
X157507119Y-105262402D01*
X157507119Y-105262400D01*
X157508543Y-105257087D01*
X157528498Y-105029000D01*
X157508543Y-104800913D01*
X157507119Y-104795598D01*
X157450707Y-104585067D01*
X157450706Y-104585065D01*
X157449284Y-104579757D01*
X157436143Y-104551576D01*
X157354849Y-104377238D01*
X157354846Y-104377233D01*
X157352523Y-104372251D01*
X157276475Y-104263643D01*
X157224357Y-104189211D01*
X157224355Y-104189208D01*
X157221198Y-104184700D01*
X157059300Y-104022802D01*
X157054792Y-104019645D01*
X157054789Y-104019643D01*
X156897991Y-103909852D01*
X156871749Y-103891477D01*
X156866767Y-103889154D01*
X156866762Y-103889151D01*
X156832543Y-103873195D01*
X156779258Y-103826278D01*
X156759797Y-103758001D01*
X156780339Y-103690041D01*
X156832543Y-103644805D01*
X156866762Y-103628849D01*
X156866767Y-103628846D01*
X156871749Y-103626523D01*
X156979085Y-103551365D01*
X157054789Y-103498357D01*
X157054792Y-103498355D01*
X157059300Y-103495198D01*
X157221198Y-103333300D01*
X157352523Y-103145749D01*
X157354846Y-103140767D01*
X157354849Y-103140762D01*
X157446961Y-102943225D01*
X157446961Y-102943224D01*
X157449284Y-102938243D01*
X157508543Y-102717087D01*
X157528498Y-102489000D01*
X157508543Y-102260913D01*
X157489282Y-102189031D01*
X157450707Y-102045067D01*
X157450706Y-102045065D01*
X157449284Y-102039757D01*
X157442704Y-102025645D01*
X157354849Y-101837238D01*
X157354846Y-101837233D01*
X157352523Y-101832251D01*
X157246004Y-101680126D01*
X157224357Y-101649211D01*
X157224355Y-101649208D01*
X157221198Y-101644700D01*
X157059300Y-101482802D01*
X157054792Y-101479645D01*
X157054789Y-101479643D01*
X156946112Y-101403547D01*
X156871749Y-101351477D01*
X156866767Y-101349154D01*
X156866762Y-101349151D01*
X156831951Y-101332919D01*
X156778666Y-101286002D01*
X156759205Y-101217725D01*
X156779747Y-101149765D01*
X156831951Y-101104529D01*
X156866511Y-101088414D01*
X156876007Y-101082931D01*
X157054467Y-100957972D01*
X157062875Y-100950916D01*
X157216916Y-100796875D01*
X157223972Y-100788467D01*
X157348931Y-100610007D01*
X157354414Y-100600511D01*
X157446490Y-100403053D01*
X157450236Y-100392761D01*
X157496394Y-100220497D01*
X157496058Y-100206401D01*
X157488116Y-100203000D01*
X154947033Y-100203000D01*
X154933502Y-100206973D01*
X154932273Y-100215522D01*
X154979764Y-100392761D01*
X154983510Y-100403053D01*
X155075586Y-100600511D01*
X155081069Y-100610007D01*
X155206028Y-100788467D01*
X155213084Y-100796875D01*
X155367125Y-100950916D01*
X155375533Y-100957972D01*
X155553993Y-101082931D01*
X155563489Y-101088414D01*
X155598049Y-101104529D01*
X155651334Y-101151446D01*
X155670795Y-101219723D01*
X155650253Y-101287683D01*
X155598049Y-101332919D01*
X155563238Y-101349151D01*
X155563233Y-101349154D01*
X155558251Y-101351477D01*
X155483888Y-101403547D01*
X155375211Y-101479643D01*
X155375208Y-101479645D01*
X155370700Y-101482802D01*
X155208802Y-101644700D01*
X155205645Y-101649208D01*
X155205643Y-101649211D01*
X155183996Y-101680126D01*
X155077477Y-101832251D01*
X155075154Y-101837233D01*
X155075151Y-101837238D01*
X154987296Y-102025645D01*
X154980716Y-102039757D01*
X154979294Y-102045065D01*
X154979293Y-102045067D01*
X154940718Y-102189031D01*
X154921457Y-102260913D01*
X154901502Y-102489000D01*
X154921457Y-102717087D01*
X154980716Y-102938243D01*
X154983039Y-102943224D01*
X154983039Y-102943225D01*
X155075151Y-103140762D01*
X155075154Y-103140767D01*
X155077477Y-103145749D01*
X155208802Y-103333300D01*
X155370700Y-103495198D01*
X155375208Y-103498355D01*
X155375211Y-103498357D01*
X155450915Y-103551365D01*
X155558251Y-103626523D01*
X155563233Y-103628846D01*
X155563238Y-103628849D01*
X155597457Y-103644805D01*
X155650742Y-103691722D01*
X155670203Y-103759999D01*
X155649661Y-103827959D01*
X155597457Y-103873195D01*
X155563238Y-103889151D01*
X155563233Y-103889154D01*
X155558251Y-103891477D01*
X155532009Y-103909852D01*
X155375211Y-104019643D01*
X155375208Y-104019645D01*
X155370700Y-104022802D01*
X155208802Y-104184700D01*
X155205645Y-104189208D01*
X155205643Y-104189211D01*
X155153525Y-104263643D01*
X155077477Y-104372251D01*
X155075154Y-104377233D01*
X155075151Y-104377238D01*
X154993857Y-104551576D01*
X154980716Y-104579757D01*
X154979294Y-104585065D01*
X154979293Y-104585067D01*
X154922881Y-104795598D01*
X154921457Y-104800913D01*
X154901502Y-105029000D01*
X154921457Y-105257087D01*
X154922881Y-105262400D01*
X154922881Y-105262402D01*
X154925418Y-105271868D01*
X154980716Y-105478243D01*
X154983039Y-105483224D01*
X154983039Y-105483225D01*
X155075151Y-105680762D01*
X155075154Y-105680767D01*
X155077477Y-105685749D01*
X155106519Y-105727225D01*
X155199519Y-105860042D01*
X155208802Y-105873300D01*
X155370700Y-106035198D01*
X155375208Y-106038355D01*
X155375211Y-106038357D01*
X155435436Y-106080527D01*
X155558251Y-106166523D01*
X155563233Y-106168846D01*
X155563238Y-106168849D01*
X155597457Y-106184805D01*
X155650742Y-106231722D01*
X155670203Y-106299999D01*
X155649661Y-106367959D01*
X155597457Y-106413195D01*
X155563238Y-106429151D01*
X155563233Y-106429154D01*
X155558251Y-106431477D01*
X155453978Y-106504490D01*
X155375211Y-106559643D01*
X155375208Y-106559645D01*
X155370700Y-106562802D01*
X155208802Y-106724700D01*
X155205645Y-106729208D01*
X155205643Y-106729211D01*
X155175848Y-106771763D01*
X155077477Y-106912251D01*
X155075154Y-106917233D01*
X155075151Y-106917238D01*
X154994409Y-107090392D01*
X154980716Y-107119757D01*
X154921457Y-107340913D01*
X154901502Y-107569000D01*
X154921457Y-107797087D01*
X154980716Y-108018243D01*
X154983039Y-108023224D01*
X154983039Y-108023225D01*
X155075151Y-108220762D01*
X155075154Y-108220767D01*
X155077477Y-108225749D01*
X155129817Y-108300498D01*
X155204344Y-108406933D01*
X155208802Y-108413300D01*
X155370700Y-108575198D01*
X155375208Y-108578355D01*
X155375211Y-108578357D01*
X155453389Y-108633098D01*
X155558251Y-108706523D01*
X155563233Y-108708846D01*
X155563238Y-108708849D01*
X155597457Y-108724805D01*
X155650742Y-108771722D01*
X155670203Y-108839999D01*
X155649661Y-108907959D01*
X155597457Y-108953195D01*
X155563238Y-108969151D01*
X155563233Y-108969154D01*
X155558251Y-108971477D01*
X155481193Y-109025434D01*
X155375211Y-109099643D01*
X155375208Y-109099645D01*
X155370700Y-109102802D01*
X155208802Y-109264700D01*
X155077477Y-109452251D01*
X155075154Y-109457233D01*
X155075151Y-109457238D01*
X154994409Y-109630392D01*
X154980716Y-109659757D01*
X154979294Y-109665065D01*
X154979293Y-109665067D01*
X154922881Y-109875598D01*
X154921457Y-109880913D01*
X154901502Y-110109000D01*
X154921457Y-110337087D01*
X154922881Y-110342400D01*
X154922881Y-110342402D01*
X154976614Y-110542933D01*
X154980716Y-110558243D01*
X154983039Y-110563224D01*
X154983039Y-110563225D01*
X155075151Y-110760762D01*
X155075154Y-110760767D01*
X155077477Y-110765749D01*
X155101087Y-110799467D01*
X155204529Y-110947197D01*
X155208802Y-110953300D01*
X155370700Y-111115198D01*
X155375208Y-111118355D01*
X155375211Y-111118357D01*
X155383139Y-111123908D01*
X155558251Y-111246523D01*
X155563233Y-111248846D01*
X155563238Y-111248849D01*
X155597457Y-111264805D01*
X155650742Y-111311722D01*
X155670203Y-111379999D01*
X155649661Y-111447959D01*
X155597457Y-111493195D01*
X155563238Y-111509151D01*
X155563233Y-111509154D01*
X155558251Y-111511477D01*
X155453389Y-111584902D01*
X155375211Y-111639643D01*
X155375208Y-111639645D01*
X155370700Y-111642802D01*
X155208802Y-111804700D01*
X155205645Y-111809208D01*
X155205643Y-111809211D01*
X155173359Y-111855317D01*
X155077477Y-111992251D01*
X155075154Y-111997233D01*
X155075151Y-111997238D01*
X154994409Y-112170392D01*
X154980716Y-112199757D01*
X154921457Y-112420913D01*
X154901502Y-112649000D01*
X154921457Y-112877087D01*
X154922881Y-112882400D01*
X154922881Y-112882402D01*
X154961283Y-113025717D01*
X154980716Y-113098243D01*
X154983039Y-113103224D01*
X154983039Y-113103225D01*
X155075151Y-113300762D01*
X155075154Y-113300767D01*
X155077477Y-113305749D01*
X155119863Y-113366282D01*
X155205486Y-113488564D01*
X155208802Y-113493300D01*
X155370700Y-113655198D01*
X155375208Y-113658355D01*
X155375211Y-113658357D01*
X155428994Y-113696016D01*
X155558251Y-113786523D01*
X155563233Y-113788846D01*
X155563238Y-113788849D01*
X155597457Y-113804805D01*
X155650742Y-113851722D01*
X155670203Y-113919999D01*
X155649661Y-113987959D01*
X155597457Y-114033195D01*
X155563238Y-114049151D01*
X155563233Y-114049154D01*
X155558251Y-114051477D01*
X155534143Y-114068358D01*
X155375211Y-114179643D01*
X155375208Y-114179645D01*
X155370700Y-114182802D01*
X155208802Y-114344700D01*
X155205645Y-114349208D01*
X155205643Y-114349211D01*
X155175484Y-114392283D01*
X155077477Y-114532251D01*
X155075154Y-114537233D01*
X155075151Y-114537238D01*
X154989112Y-114721751D01*
X154980716Y-114739757D01*
X154979294Y-114745065D01*
X154979293Y-114745067D01*
X154930015Y-114928973D01*
X154921457Y-114960913D01*
X154901502Y-115189000D01*
X124841000Y-115189000D01*
X124841000Y-111185062D01*
X140156493Y-111185062D01*
X140165789Y-111197077D01*
X140216994Y-111232931D01*
X140226489Y-111238414D01*
X140423947Y-111330490D01*
X140434239Y-111334236D01*
X140644688Y-111390625D01*
X140655481Y-111392528D01*
X140872525Y-111411517D01*
X140883475Y-111411517D01*
X141100519Y-111392528D01*
X141111312Y-111390625D01*
X141321761Y-111334236D01*
X141332053Y-111330490D01*
X141529511Y-111238414D01*
X141539006Y-111232931D01*
X141591048Y-111196491D01*
X141599424Y-111186012D01*
X141592356Y-111172566D01*
X140890812Y-110471022D01*
X140876868Y-110463408D01*
X140875035Y-110463539D01*
X140868420Y-110467790D01*
X140162923Y-111173287D01*
X140156493Y-111185062D01*
X124841000Y-111185062D01*
X124841000Y-110104475D01*
X139565483Y-110104475D01*
X139584472Y-110321519D01*
X139586375Y-110332312D01*
X139642764Y-110542761D01*
X139646510Y-110553053D01*
X139738586Y-110750511D01*
X139744069Y-110760006D01*
X139780509Y-110812048D01*
X139790988Y-110820424D01*
X139804434Y-110813356D01*
X140505978Y-110111812D01*
X140512356Y-110100132D01*
X141242408Y-110100132D01*
X141242539Y-110101965D01*
X141246790Y-110108580D01*
X141952287Y-110814077D01*
X141964062Y-110820507D01*
X141976077Y-110811211D01*
X142011934Y-110760002D01*
X142018591Y-110748472D01*
X142069973Y-110699479D01*
X142139687Y-110686042D01*
X142205598Y-110712429D01*
X142236829Y-110748472D01*
X142238153Y-110750765D01*
X142240477Y-110755749D01*
X142271089Y-110799467D01*
X142332202Y-110886745D01*
X142371802Y-110943300D01*
X142533700Y-111105198D01*
X142538208Y-111108355D01*
X142538211Y-111108357D01*
X142616389Y-111163098D01*
X142721251Y-111236523D01*
X142726233Y-111238846D01*
X142726238Y-111238849D01*
X142922765Y-111330490D01*
X142928757Y-111333284D01*
X142934065Y-111334706D01*
X142934067Y-111334707D01*
X143144598Y-111391119D01*
X143144600Y-111391119D01*
X143149913Y-111392543D01*
X143378000Y-111412498D01*
X143606087Y-111392543D01*
X143611400Y-111391119D01*
X143611402Y-111391119D01*
X143821933Y-111334707D01*
X143821935Y-111334706D01*
X143827243Y-111333284D01*
X143833235Y-111330490D01*
X144029762Y-111238849D01*
X144029767Y-111238846D01*
X144034749Y-111236523D01*
X144139611Y-111163098D01*
X144217789Y-111108357D01*
X144217792Y-111108355D01*
X144222300Y-111105198D01*
X144384198Y-110943300D01*
X144515523Y-110755749D01*
X144517846Y-110750767D01*
X144517849Y-110750762D01*
X144609961Y-110553225D01*
X144609961Y-110553224D01*
X144612284Y-110548243D01*
X144632976Y-110471022D01*
X144670119Y-110332402D01*
X144670119Y-110332400D01*
X144671543Y-110327087D01*
X144686774Y-110153000D01*
X148718693Y-110153000D01*
X148737885Y-110372371D01*
X148794880Y-110585076D01*
X148838415Y-110678438D01*
X148885618Y-110779666D01*
X148885621Y-110779671D01*
X148887944Y-110784653D01*
X148891100Y-110789160D01*
X148891101Y-110789162D01*
X149008761Y-110957197D01*
X149014251Y-110965038D01*
X149169962Y-111120749D01*
X149350346Y-111247056D01*
X149549924Y-111340120D01*
X149762629Y-111397115D01*
X149982000Y-111416307D01*
X150201371Y-111397115D01*
X150414076Y-111340120D01*
X150613654Y-111247056D01*
X150794038Y-111120749D01*
X150949749Y-110965038D01*
X150955240Y-110957197D01*
X151072899Y-110789162D01*
X151072900Y-110789160D01*
X151076056Y-110784653D01*
X151078379Y-110779671D01*
X151078382Y-110779666D01*
X151125585Y-110678438D01*
X151169120Y-110585076D01*
X151226115Y-110372371D01*
X151245307Y-110153000D01*
X151226115Y-109933629D01*
X151169120Y-109720924D01*
X151109195Y-109592414D01*
X151078382Y-109526334D01*
X151078379Y-109526329D01*
X151076056Y-109521347D01*
X151072899Y-109516838D01*
X150952908Y-109345473D01*
X150952906Y-109345470D01*
X150949749Y-109340962D01*
X150794038Y-109185251D01*
X150613654Y-109058944D01*
X150414076Y-108965880D01*
X150201371Y-108908885D01*
X149982000Y-108889693D01*
X149762629Y-108908885D01*
X149549924Y-108965880D01*
X149474774Y-109000923D01*
X149355334Y-109056618D01*
X149355329Y-109056621D01*
X149350347Y-109058944D01*
X149345840Y-109062100D01*
X149345838Y-109062101D01*
X149174473Y-109182092D01*
X149174470Y-109182094D01*
X149169962Y-109185251D01*
X149014251Y-109340962D01*
X149011094Y-109345470D01*
X149011092Y-109345473D01*
X148891101Y-109516838D01*
X148887944Y-109521347D01*
X148885621Y-109526329D01*
X148885618Y-109526334D01*
X148854805Y-109592414D01*
X148794880Y-109720924D01*
X148737885Y-109933629D01*
X148718693Y-110153000D01*
X144686774Y-110153000D01*
X144691498Y-110099000D01*
X144671543Y-109870913D01*
X144654309Y-109806595D01*
X144613707Y-109655067D01*
X144613706Y-109655065D01*
X144612284Y-109649757D01*
X144603254Y-109630392D01*
X144517849Y-109447238D01*
X144517846Y-109447233D01*
X144515523Y-109442251D01*
X144391200Y-109264700D01*
X144387357Y-109259211D01*
X144387355Y-109259208D01*
X144384198Y-109254700D01*
X144222300Y-109092802D01*
X144217792Y-109089645D01*
X144217789Y-109089643D01*
X144091920Y-109001509D01*
X144034749Y-108961477D01*
X144029767Y-108959154D01*
X144029762Y-108959151D01*
X143832225Y-108867039D01*
X143832224Y-108867039D01*
X143827243Y-108864716D01*
X143821935Y-108863294D01*
X143821933Y-108863293D01*
X143611402Y-108806881D01*
X143611400Y-108806881D01*
X143606087Y-108805457D01*
X143378000Y-108785502D01*
X143149913Y-108805457D01*
X143144600Y-108806881D01*
X143144598Y-108806881D01*
X142934067Y-108863293D01*
X142934065Y-108863294D01*
X142928757Y-108864716D01*
X142923776Y-108867039D01*
X142923775Y-108867039D01*
X142726238Y-108959151D01*
X142726233Y-108959154D01*
X142721251Y-108961477D01*
X142664080Y-109001509D01*
X142538211Y-109089643D01*
X142538208Y-109089645D01*
X142533700Y-109092802D01*
X142371802Y-109254700D01*
X142368645Y-109259208D01*
X142368643Y-109259211D01*
X142308242Y-109345473D01*
X142240477Y-109442251D01*
X142238153Y-109447235D01*
X142236829Y-109449528D01*
X142185447Y-109498521D01*
X142115733Y-109511957D01*
X142049822Y-109485571D01*
X142018591Y-109449528D01*
X142011934Y-109437998D01*
X141975491Y-109385952D01*
X141965012Y-109377576D01*
X141951566Y-109384644D01*
X141250022Y-110086188D01*
X141242408Y-110100132D01*
X140512356Y-110100132D01*
X140513592Y-110097868D01*
X140513461Y-110096035D01*
X140509210Y-110089420D01*
X139803713Y-109383923D01*
X139791938Y-109377493D01*
X139779923Y-109386789D01*
X139744069Y-109437994D01*
X139738586Y-109447489D01*
X139646510Y-109644947D01*
X139642764Y-109655239D01*
X139586375Y-109865688D01*
X139584472Y-109876481D01*
X139565483Y-110093525D01*
X139565483Y-110104475D01*
X124841000Y-110104475D01*
X124841000Y-109011988D01*
X140156576Y-109011988D01*
X140163644Y-109025434D01*
X140865188Y-109726978D01*
X140879132Y-109734592D01*
X140880965Y-109734461D01*
X140887580Y-109730210D01*
X141593077Y-109024713D01*
X141599507Y-109012938D01*
X141590211Y-109000923D01*
X141539006Y-108965069D01*
X141529511Y-108959586D01*
X141332053Y-108867510D01*
X141321761Y-108863764D01*
X141111312Y-108807375D01*
X141100519Y-108805472D01*
X140883475Y-108786483D01*
X140872525Y-108786483D01*
X140655481Y-108805472D01*
X140644688Y-108807375D01*
X140434239Y-108863764D01*
X140423947Y-108867510D01*
X140226489Y-108959586D01*
X140216994Y-108965069D01*
X140164952Y-109001509D01*
X140156576Y-109011988D01*
X124841000Y-109011988D01*
X124841000Y-106359062D01*
X140156493Y-106359062D01*
X140165789Y-106371077D01*
X140216994Y-106406931D01*
X140226489Y-106412414D01*
X140423947Y-106504490D01*
X140434239Y-106508236D01*
X140644688Y-106564625D01*
X140655481Y-106566528D01*
X140872525Y-106585517D01*
X140883475Y-106585517D01*
X141100519Y-106566528D01*
X141111312Y-106564625D01*
X141321761Y-106508236D01*
X141332053Y-106504490D01*
X141529511Y-106412414D01*
X141539006Y-106406931D01*
X141591048Y-106370491D01*
X141599424Y-106360012D01*
X141592356Y-106346566D01*
X140890812Y-105645022D01*
X140876868Y-105637408D01*
X140875035Y-105637539D01*
X140868420Y-105641790D01*
X140162923Y-106347287D01*
X140156493Y-106359062D01*
X124841000Y-106359062D01*
X124841000Y-105278475D01*
X139565483Y-105278475D01*
X139584472Y-105495519D01*
X139586375Y-105506312D01*
X139642764Y-105716761D01*
X139646510Y-105727053D01*
X139738586Y-105924511D01*
X139744069Y-105934006D01*
X139780509Y-105986048D01*
X139790988Y-105994424D01*
X139804434Y-105987356D01*
X140505978Y-105285812D01*
X140512356Y-105274132D01*
X141242408Y-105274132D01*
X141242539Y-105275965D01*
X141246790Y-105282580D01*
X141952287Y-105988077D01*
X141964062Y-105994507D01*
X141976077Y-105985211D01*
X142011934Y-105934002D01*
X142018591Y-105922472D01*
X142069973Y-105873479D01*
X142139687Y-105860042D01*
X142205598Y-105886429D01*
X142236829Y-105922472D01*
X142238153Y-105924765D01*
X142240477Y-105929749D01*
X142243631Y-105934253D01*
X142351941Y-106088935D01*
X142371802Y-106117300D01*
X142533700Y-106279198D01*
X142538208Y-106282355D01*
X142538211Y-106282357D01*
X142612988Y-106334716D01*
X142721251Y-106410523D01*
X142726233Y-106412846D01*
X142726238Y-106412849D01*
X142830664Y-106461543D01*
X142928757Y-106507284D01*
X142934065Y-106508706D01*
X142934067Y-106508707D01*
X143144598Y-106565119D01*
X143144600Y-106565119D01*
X143149913Y-106566543D01*
X143378000Y-106586498D01*
X143606087Y-106566543D01*
X143611400Y-106565119D01*
X143611402Y-106565119D01*
X143821933Y-106508707D01*
X143821935Y-106508706D01*
X143827243Y-106507284D01*
X143925336Y-106461543D01*
X144029762Y-106412849D01*
X144029767Y-106412846D01*
X144034749Y-106410523D01*
X144143012Y-106334716D01*
X144217789Y-106282357D01*
X144217792Y-106282355D01*
X144222300Y-106279198D01*
X144384198Y-106117300D01*
X144404060Y-106088935D01*
X144512366Y-105934257D01*
X144515523Y-105929749D01*
X144517846Y-105924767D01*
X144517849Y-105924762D01*
X144609961Y-105727225D01*
X144609961Y-105727224D01*
X144612284Y-105722243D01*
X144632976Y-105645022D01*
X144670119Y-105506402D01*
X144670119Y-105506400D01*
X144671543Y-105501087D01*
X144691498Y-105273000D01*
X148718693Y-105273000D01*
X148737885Y-105492371D01*
X148794880Y-105705076D01*
X148838415Y-105798438D01*
X148885618Y-105899666D01*
X148885621Y-105899671D01*
X148887944Y-105904653D01*
X148891100Y-105909160D01*
X148891101Y-105909162D01*
X148981565Y-106038357D01*
X149014251Y-106085038D01*
X149169962Y-106240749D01*
X149174471Y-106243906D01*
X149174473Y-106243908D01*
X149229384Y-106282357D01*
X149350346Y-106367056D01*
X149549924Y-106460120D01*
X149762629Y-106517115D01*
X149982000Y-106536307D01*
X150201371Y-106517115D01*
X150414076Y-106460120D01*
X150613654Y-106367056D01*
X150734616Y-106282357D01*
X150789527Y-106243908D01*
X150789529Y-106243906D01*
X150794038Y-106240749D01*
X150949749Y-106085038D01*
X150982436Y-106038357D01*
X151072899Y-105909162D01*
X151072900Y-105909160D01*
X151076056Y-105904653D01*
X151078379Y-105899671D01*
X151078382Y-105899666D01*
X151125585Y-105798438D01*
X151169120Y-105705076D01*
X151226115Y-105492371D01*
X151245307Y-105273000D01*
X151226115Y-105053629D01*
X151169120Y-104840924D01*
X151084554Y-104659571D01*
X151078382Y-104646334D01*
X151078379Y-104646329D01*
X151076056Y-104641347D01*
X151063579Y-104623528D01*
X150952908Y-104465473D01*
X150952906Y-104465470D01*
X150949749Y-104460962D01*
X150794038Y-104305251D01*
X150739128Y-104266802D01*
X150692437Y-104234109D01*
X150613654Y-104178944D01*
X150414076Y-104085880D01*
X150201371Y-104028885D01*
X149982000Y-104009693D01*
X149762629Y-104028885D01*
X149549924Y-104085880D01*
X149456562Y-104129415D01*
X149355334Y-104176618D01*
X149355329Y-104176621D01*
X149350347Y-104178944D01*
X149345840Y-104182100D01*
X149345838Y-104182101D01*
X149174473Y-104302092D01*
X149174470Y-104302094D01*
X149169962Y-104305251D01*
X149014251Y-104460962D01*
X149011094Y-104465470D01*
X149011092Y-104465473D01*
X148900421Y-104623528D01*
X148887944Y-104641347D01*
X148885621Y-104646329D01*
X148885618Y-104646334D01*
X148879446Y-104659571D01*
X148794880Y-104840924D01*
X148737885Y-105053629D01*
X148718693Y-105273000D01*
X144691498Y-105273000D01*
X144671543Y-105044913D01*
X144634981Y-104908461D01*
X144613707Y-104829067D01*
X144613706Y-104829065D01*
X144612284Y-104823757D01*
X144601632Y-104800913D01*
X144517849Y-104621238D01*
X144517846Y-104621233D01*
X144515523Y-104616251D01*
X144406788Y-104460962D01*
X144387357Y-104433211D01*
X144387355Y-104433208D01*
X144384198Y-104428700D01*
X144222300Y-104266802D01*
X144217792Y-104263645D01*
X144217789Y-104263643D01*
X144106886Y-104185988D01*
X144034749Y-104135477D01*
X144029767Y-104133154D01*
X144029762Y-104133151D01*
X143832225Y-104041039D01*
X143832224Y-104041039D01*
X143827243Y-104038716D01*
X143821935Y-104037294D01*
X143821933Y-104037293D01*
X143611402Y-103980881D01*
X143611400Y-103980881D01*
X143606087Y-103979457D01*
X143378000Y-103959502D01*
X143149913Y-103979457D01*
X143144600Y-103980881D01*
X143144598Y-103980881D01*
X142934067Y-104037293D01*
X142934065Y-104037294D01*
X142928757Y-104038716D01*
X142923776Y-104041039D01*
X142923775Y-104041039D01*
X142726238Y-104133151D01*
X142726233Y-104133154D01*
X142721251Y-104135477D01*
X142649114Y-104185988D01*
X142538211Y-104263643D01*
X142538208Y-104263645D01*
X142533700Y-104266802D01*
X142371802Y-104428700D01*
X142368645Y-104433208D01*
X142368643Y-104433211D01*
X142349212Y-104460962D01*
X142240477Y-104616251D01*
X142238153Y-104621235D01*
X142236829Y-104623528D01*
X142185447Y-104672521D01*
X142115733Y-104685957D01*
X142049822Y-104659571D01*
X142018591Y-104623528D01*
X142011934Y-104611998D01*
X141975491Y-104559952D01*
X141965012Y-104551576D01*
X141951566Y-104558644D01*
X141250022Y-105260188D01*
X141242408Y-105274132D01*
X140512356Y-105274132D01*
X140513592Y-105271868D01*
X140513461Y-105270035D01*
X140509210Y-105263420D01*
X139803713Y-104557923D01*
X139791938Y-104551493D01*
X139779923Y-104560789D01*
X139744069Y-104611994D01*
X139738586Y-104621489D01*
X139646510Y-104818947D01*
X139642764Y-104829239D01*
X139586375Y-105039688D01*
X139584472Y-105050481D01*
X139565483Y-105267525D01*
X139565483Y-105278475D01*
X124841000Y-105278475D01*
X124841000Y-104185988D01*
X140156576Y-104185988D01*
X140163644Y-104199434D01*
X140865188Y-104900978D01*
X140879132Y-104908592D01*
X140880965Y-104908461D01*
X140887580Y-104904210D01*
X141593077Y-104198713D01*
X141599507Y-104186938D01*
X141590211Y-104174923D01*
X141539006Y-104139069D01*
X141529511Y-104133586D01*
X141332053Y-104041510D01*
X141321761Y-104037764D01*
X141111312Y-103981375D01*
X141100519Y-103979472D01*
X140883475Y-103960483D01*
X140872525Y-103960483D01*
X140655481Y-103979472D01*
X140644688Y-103981375D01*
X140434239Y-104037764D01*
X140423947Y-104041510D01*
X140226489Y-104133586D01*
X140216994Y-104139069D01*
X140164952Y-104175509D01*
X140156576Y-104185988D01*
X124841000Y-104185988D01*
X124841000Y-101185695D01*
X131885251Y-101185695D01*
X131885548Y-101190848D01*
X131885548Y-101190851D01*
X131891050Y-101286278D01*
X131898110Y-101408715D01*
X131899247Y-101413761D01*
X131899248Y-101413767D01*
X131914806Y-101482802D01*
X131947222Y-101626639D01*
X131987346Y-101725453D01*
X132024971Y-101818112D01*
X132031266Y-101833616D01*
X132147987Y-102024088D01*
X132294250Y-102192938D01*
X132466126Y-102335632D01*
X132659000Y-102448338D01*
X132867692Y-102528030D01*
X132872760Y-102529061D01*
X132872763Y-102529062D01*
X132980017Y-102550883D01*
X133086597Y-102572567D01*
X133091772Y-102572757D01*
X133091774Y-102572757D01*
X133304673Y-102580564D01*
X133304677Y-102580564D01*
X133309837Y-102580753D01*
X133314957Y-102580097D01*
X133314959Y-102580097D01*
X133526288Y-102553025D01*
X133526289Y-102553025D01*
X133531416Y-102552368D01*
X133536366Y-102550883D01*
X133740429Y-102489661D01*
X133740434Y-102489659D01*
X133745384Y-102488174D01*
X133945994Y-102389896D01*
X134127860Y-102260173D01*
X134286096Y-102102489D01*
X134345594Y-102019689D01*
X134413435Y-101925277D01*
X134416453Y-101921077D01*
X134420929Y-101912022D01*
X134513136Y-101725453D01*
X134513137Y-101725451D01*
X134515430Y-101720811D01*
X134580370Y-101507069D01*
X134609529Y-101285590D01*
X134609900Y-101270422D01*
X134611074Y-101222365D01*
X134611074Y-101222361D01*
X134611156Y-101219000D01*
X134592852Y-100996361D01*
X134538431Y-100779702D01*
X134449354Y-100574840D01*
X134409906Y-100513862D01*
X134330822Y-100391617D01*
X134330820Y-100391614D01*
X134328014Y-100387277D01*
X134177670Y-100222051D01*
X134173619Y-100218852D01*
X134173615Y-100218848D01*
X134006414Y-100086800D01*
X134006410Y-100086798D01*
X134002359Y-100083598D01*
X133960569Y-100060529D01*
X133910598Y-100010097D01*
X133895826Y-99940654D01*
X133920942Y-99874248D01*
X133948294Y-99847641D01*
X134123328Y-99722792D01*
X134131200Y-99716139D01*
X134282052Y-99565812D01*
X134288730Y-99557965D01*
X134413003Y-99385020D01*
X134418313Y-99376183D01*
X134512670Y-99185267D01*
X134516469Y-99175672D01*
X134578377Y-98971910D01*
X134580555Y-98961837D01*
X134581986Y-98950962D01*
X134579775Y-98936778D01*
X134566617Y-98933000D01*
X131931225Y-98933000D01*
X131917694Y-98936973D01*
X131916257Y-98946966D01*
X131946565Y-99081446D01*
X131949645Y-99091275D01*
X132029770Y-99288603D01*
X132034413Y-99297794D01*
X132145694Y-99479388D01*
X132151777Y-99487699D01*
X132291213Y-99648667D01*
X132298580Y-99655883D01*
X132462434Y-99791916D01*
X132470881Y-99797831D01*
X132539969Y-99838203D01*
X132588693Y-99889842D01*
X132601764Y-99959625D01*
X132575033Y-100025396D01*
X132534584Y-100058752D01*
X132521607Y-100065507D01*
X132517474Y-100068610D01*
X132517471Y-100068612D01*
X132365917Y-100182402D01*
X132342965Y-100199635D01*
X132313988Y-100229958D01*
X132230566Y-100317254D01*
X132188629Y-100361138D01*
X132185715Y-100365410D01*
X132185714Y-100365411D01*
X132159919Y-100403225D01*
X132062743Y-100545680D01*
X131968688Y-100748305D01*
X131908989Y-100963570D01*
X131885251Y-101185695D01*
X124841000Y-101185695D01*
X124841000Y-96105695D01*
X131885251Y-96105695D01*
X131885548Y-96110848D01*
X131885548Y-96110851D01*
X131894676Y-96269151D01*
X131898110Y-96328715D01*
X131899247Y-96333761D01*
X131899248Y-96333767D01*
X131914181Y-96400028D01*
X131947222Y-96546639D01*
X132031266Y-96753616D01*
X132033965Y-96758020D01*
X132133045Y-96919704D01*
X132147987Y-96944088D01*
X132294250Y-97112938D01*
X132378846Y-97183171D01*
X132459645Y-97250251D01*
X132466126Y-97255632D01*
X132539955Y-97298774D01*
X132588679Y-97350412D01*
X132601750Y-97420195D01*
X132575019Y-97485967D01*
X132534562Y-97519327D01*
X132526457Y-97523546D01*
X132517738Y-97529036D01*
X132347433Y-97656905D01*
X132339726Y-97663748D01*
X132192590Y-97817717D01*
X132186104Y-97825727D01*
X132066098Y-98001649D01*
X132061000Y-98010623D01*
X131971338Y-98203783D01*
X131967775Y-98213470D01*
X131912389Y-98413183D01*
X131913912Y-98421607D01*
X131926292Y-98425000D01*
X134566344Y-98425000D01*
X134579875Y-98421027D01*
X134581180Y-98411947D01*
X134539214Y-98244875D01*
X134535894Y-98235124D01*
X134450972Y-98039814D01*
X134446105Y-98030739D01*
X134330426Y-97851926D01*
X134324136Y-97843757D01*
X134180806Y-97686240D01*
X134173273Y-97679215D01*
X134006139Y-97547222D01*
X133997556Y-97541520D01*
X133960602Y-97521120D01*
X133910631Y-97470687D01*
X133897509Y-97409000D01*
X154901502Y-97409000D01*
X154921457Y-97637087D01*
X154922881Y-97642400D01*
X154922881Y-97642402D01*
X154959178Y-97777861D01*
X154980716Y-97858243D01*
X154983039Y-97863224D01*
X154983039Y-97863225D01*
X155075151Y-98060762D01*
X155075154Y-98060767D01*
X155077477Y-98065749D01*
X155129211Y-98139632D01*
X155202903Y-98244875D01*
X155208802Y-98253300D01*
X155370700Y-98415198D01*
X155375208Y-98418355D01*
X155375211Y-98418357D01*
X155388036Y-98427337D01*
X155558251Y-98546523D01*
X155563233Y-98548846D01*
X155563238Y-98548849D01*
X155598049Y-98565081D01*
X155651334Y-98611998D01*
X155670795Y-98680275D01*
X155650253Y-98748235D01*
X155598049Y-98793471D01*
X155563489Y-98809586D01*
X155553993Y-98815069D01*
X155375533Y-98940028D01*
X155367125Y-98947084D01*
X155213084Y-99101125D01*
X155206028Y-99109533D01*
X155081069Y-99287993D01*
X155075586Y-99297489D01*
X154983510Y-99494947D01*
X154979764Y-99505239D01*
X154933606Y-99677503D01*
X154933942Y-99691599D01*
X154941884Y-99695000D01*
X157482967Y-99695000D01*
X157496498Y-99691027D01*
X157497727Y-99682478D01*
X157450236Y-99505239D01*
X157446490Y-99494947D01*
X157354414Y-99297489D01*
X157348931Y-99287993D01*
X157223972Y-99109533D01*
X157216916Y-99101125D01*
X157062875Y-98947084D01*
X157054467Y-98940028D01*
X156876007Y-98815069D01*
X156866511Y-98809586D01*
X156831951Y-98793471D01*
X156778666Y-98746554D01*
X156759205Y-98678277D01*
X156779747Y-98610317D01*
X156831951Y-98565081D01*
X156866762Y-98548849D01*
X156866767Y-98548846D01*
X156871749Y-98546523D01*
X157041964Y-98427337D01*
X157054789Y-98418357D01*
X157054792Y-98418355D01*
X157059300Y-98415198D01*
X157221198Y-98253300D01*
X157227098Y-98244875D01*
X157300789Y-98139632D01*
X157352523Y-98065749D01*
X157354846Y-98060767D01*
X157354849Y-98060762D01*
X157446961Y-97863225D01*
X157446961Y-97863224D01*
X157449284Y-97858243D01*
X157470823Y-97777861D01*
X157507119Y-97642402D01*
X157507119Y-97642400D01*
X157508543Y-97637087D01*
X157528498Y-97409000D01*
X157508543Y-97180913D01*
X157489282Y-97109031D01*
X157450707Y-96965067D01*
X157450706Y-96965065D01*
X157449284Y-96959757D01*
X157443797Y-96947990D01*
X157354849Y-96757238D01*
X157354846Y-96757233D01*
X157352523Y-96752251D01*
X157241701Y-96593981D01*
X157224357Y-96569211D01*
X157224355Y-96569208D01*
X157221198Y-96564700D01*
X157059300Y-96402802D01*
X157054792Y-96399645D01*
X157054789Y-96399643D01*
X156946112Y-96323547D01*
X156871749Y-96271477D01*
X156866767Y-96269154D01*
X156866762Y-96269151D01*
X156832543Y-96253195D01*
X156779258Y-96206278D01*
X156759797Y-96138001D01*
X156780339Y-96070041D01*
X156832543Y-96024805D01*
X156866762Y-96008849D01*
X156866767Y-96008846D01*
X156871749Y-96006523D01*
X157007681Y-95911342D01*
X157054789Y-95878357D01*
X157054792Y-95878355D01*
X157059300Y-95875198D01*
X157221198Y-95713300D01*
X157230720Y-95699702D01*
X157349366Y-95530257D01*
X157352523Y-95525749D01*
X157354846Y-95520767D01*
X157354849Y-95520762D01*
X157446961Y-95323225D01*
X157446961Y-95323224D01*
X157449284Y-95318243D01*
X157451060Y-95311617D01*
X157507119Y-95102402D01*
X157507119Y-95102400D01*
X157508543Y-95097087D01*
X157528498Y-94869000D01*
X162521502Y-94869000D01*
X162541457Y-95097087D01*
X162542881Y-95102400D01*
X162542881Y-95102402D01*
X162598941Y-95311617D01*
X162600716Y-95318243D01*
X162603039Y-95323224D01*
X162603039Y-95323225D01*
X162695151Y-95520762D01*
X162695154Y-95520767D01*
X162697477Y-95525749D01*
X162700634Y-95530257D01*
X162819281Y-95699702D01*
X162828802Y-95713300D01*
X162990700Y-95875198D01*
X162995208Y-95878355D01*
X162995211Y-95878357D01*
X163042319Y-95911342D01*
X163178251Y-96006523D01*
X163183233Y-96008846D01*
X163183238Y-96008849D01*
X163218049Y-96025081D01*
X163271334Y-96071998D01*
X163290795Y-96140275D01*
X163270253Y-96208235D01*
X163218049Y-96253471D01*
X163183489Y-96269586D01*
X163173993Y-96275069D01*
X162995533Y-96400028D01*
X162987125Y-96407084D01*
X162833084Y-96561125D01*
X162826028Y-96569533D01*
X162701069Y-96747993D01*
X162695586Y-96757489D01*
X162603510Y-96954947D01*
X162599764Y-96965239D01*
X162553606Y-97137503D01*
X162553942Y-97151599D01*
X162561884Y-97155000D01*
X165102967Y-97155000D01*
X165116498Y-97151027D01*
X165117727Y-97142478D01*
X165070236Y-96965239D01*
X165066490Y-96954947D01*
X164974414Y-96757489D01*
X164968931Y-96747993D01*
X164843972Y-96569533D01*
X164836916Y-96561125D01*
X164682875Y-96407084D01*
X164674467Y-96400028D01*
X164496007Y-96275069D01*
X164486511Y-96269586D01*
X164451951Y-96253471D01*
X164398666Y-96206554D01*
X164379205Y-96138277D01*
X164399747Y-96070317D01*
X164451951Y-96025081D01*
X164486762Y-96008849D01*
X164486767Y-96008846D01*
X164491749Y-96006523D01*
X164627681Y-95911342D01*
X164674789Y-95878357D01*
X164674792Y-95878355D01*
X164679300Y-95875198D01*
X164841198Y-95713300D01*
X164850720Y-95699702D01*
X164969366Y-95530257D01*
X164972523Y-95525749D01*
X164974846Y-95520767D01*
X164974849Y-95520762D01*
X165066961Y-95323225D01*
X165066961Y-95323224D01*
X165069284Y-95318243D01*
X165071060Y-95311617D01*
X165127119Y-95102402D01*
X165127119Y-95102400D01*
X165128543Y-95097087D01*
X165148498Y-94869000D01*
X165128543Y-94640913D01*
X165103175Y-94546240D01*
X165084890Y-94478000D01*
X168988502Y-94478000D01*
X169008457Y-94706087D01*
X169009881Y-94711400D01*
X169009881Y-94711402D01*
X169061158Y-94902767D01*
X169067716Y-94927243D01*
X169070039Y-94932224D01*
X169070039Y-94932225D01*
X169162151Y-95129762D01*
X169162154Y-95129767D01*
X169164477Y-95134749D01*
X169220177Y-95214297D01*
X169288322Y-95311617D01*
X169295802Y-95322300D01*
X169457700Y-95484198D01*
X169462208Y-95487355D01*
X169462211Y-95487357D01*
X169517041Y-95525749D01*
X169645251Y-95615523D01*
X169650233Y-95617846D01*
X169650238Y-95617849D01*
X169836536Y-95704720D01*
X169852757Y-95712284D01*
X169858065Y-95713706D01*
X169858067Y-95713707D01*
X170068598Y-95770119D01*
X170068600Y-95770119D01*
X170073913Y-95771543D01*
X170302000Y-95791498D01*
X170530087Y-95771543D01*
X170535400Y-95770119D01*
X170535402Y-95770119D01*
X170745933Y-95713707D01*
X170745935Y-95713706D01*
X170751243Y-95712284D01*
X170767464Y-95704720D01*
X170953762Y-95617849D01*
X170953767Y-95617846D01*
X170958749Y-95615523D01*
X171086959Y-95525749D01*
X171141789Y-95487357D01*
X171141792Y-95487355D01*
X171146300Y-95484198D01*
X171308198Y-95322300D01*
X171315679Y-95311617D01*
X171383823Y-95214297D01*
X171439523Y-95134749D01*
X171441846Y-95129767D01*
X171441849Y-95129762D01*
X171533961Y-94932225D01*
X171533961Y-94932224D01*
X171536284Y-94927243D01*
X171542843Y-94902767D01*
X171594119Y-94711402D01*
X171594119Y-94711400D01*
X171595543Y-94706087D01*
X171615498Y-94478000D01*
X171595543Y-94249913D01*
X171586788Y-94217238D01*
X171537707Y-94034067D01*
X171537706Y-94034065D01*
X171536284Y-94028757D01*
X171532575Y-94020803D01*
X171441849Y-93826238D01*
X171441846Y-93826233D01*
X171439523Y-93821251D01*
X171363861Y-93713195D01*
X171311357Y-93638211D01*
X171311355Y-93638208D01*
X171308198Y-93633700D01*
X171146300Y-93471802D01*
X171141792Y-93468645D01*
X171141789Y-93468643D01*
X171038124Y-93396056D01*
X170958749Y-93340477D01*
X170953765Y-93338153D01*
X170951472Y-93336829D01*
X170902479Y-93285447D01*
X170889043Y-93215733D01*
X170915429Y-93149822D01*
X170951472Y-93118591D01*
X170963002Y-93111934D01*
X171015048Y-93075491D01*
X171023424Y-93065012D01*
X171016356Y-93051566D01*
X170314812Y-92350022D01*
X170300868Y-92342408D01*
X170299035Y-92342539D01*
X170292420Y-92346790D01*
X169586923Y-93052287D01*
X169580493Y-93064062D01*
X169589789Y-93076077D01*
X169640998Y-93111934D01*
X169652528Y-93118591D01*
X169701521Y-93169973D01*
X169714958Y-93239687D01*
X169688571Y-93305598D01*
X169652528Y-93336829D01*
X169650235Y-93338153D01*
X169645251Y-93340477D01*
X169565876Y-93396056D01*
X169462211Y-93468643D01*
X169462208Y-93468645D01*
X169457700Y-93471802D01*
X169295802Y-93633700D01*
X169292645Y-93638208D01*
X169292643Y-93638211D01*
X169240139Y-93713195D01*
X169164477Y-93821251D01*
X169162154Y-93826233D01*
X169162151Y-93826238D01*
X169071425Y-94020803D01*
X169067716Y-94028757D01*
X169066294Y-94034065D01*
X169066293Y-94034067D01*
X169017212Y-94217238D01*
X169008457Y-94249913D01*
X168988502Y-94478000D01*
X165084890Y-94478000D01*
X165070707Y-94425067D01*
X165070706Y-94425065D01*
X165069284Y-94419757D01*
X164994957Y-94260361D01*
X164974849Y-94217238D01*
X164974846Y-94217233D01*
X164972523Y-94212251D01*
X164899098Y-94107389D01*
X164844357Y-94029211D01*
X164844355Y-94029208D01*
X164841198Y-94024700D01*
X164679300Y-93862802D01*
X164674792Y-93859645D01*
X164674789Y-93859643D01*
X164561124Y-93780054D01*
X164491749Y-93731477D01*
X164486767Y-93729154D01*
X164486762Y-93729151D01*
X164452543Y-93713195D01*
X164399258Y-93666278D01*
X164379797Y-93598001D01*
X164400339Y-93530041D01*
X164452543Y-93484805D01*
X164486762Y-93468849D01*
X164486767Y-93468846D01*
X164491749Y-93466523D01*
X164665153Y-93345104D01*
X164674789Y-93338357D01*
X164674792Y-93338355D01*
X164679300Y-93335198D01*
X164841198Y-93173300D01*
X164846962Y-93165069D01*
X164920789Y-93059632D01*
X164972523Y-92985749D01*
X164974846Y-92980767D01*
X164974849Y-92980762D01*
X165066961Y-92783225D01*
X165066961Y-92783224D01*
X165069284Y-92778243D01*
X165078545Y-92743683D01*
X165127119Y-92562402D01*
X165127119Y-92562400D01*
X165128543Y-92557087D01*
X165148498Y-92329000D01*
X165128543Y-92100913D01*
X165127119Y-92095598D01*
X165097076Y-91983475D01*
X168989483Y-91983475D01*
X169008472Y-92200519D01*
X169010375Y-92211312D01*
X169066764Y-92421761D01*
X169070510Y-92432053D01*
X169162586Y-92629511D01*
X169168069Y-92639006D01*
X169204509Y-92691048D01*
X169214988Y-92699424D01*
X169228434Y-92692356D01*
X169929978Y-91990812D01*
X169936356Y-91979132D01*
X170666408Y-91979132D01*
X170666539Y-91980965D01*
X170670790Y-91987580D01*
X171376287Y-92693077D01*
X171388062Y-92699507D01*
X171400077Y-92690211D01*
X171435931Y-92639006D01*
X171441414Y-92629511D01*
X171533490Y-92432053D01*
X171537236Y-92421761D01*
X171593625Y-92211312D01*
X171595528Y-92200519D01*
X171614517Y-91983475D01*
X171614517Y-91972525D01*
X171609472Y-91914863D01*
X174391550Y-91914863D01*
X174403809Y-92127477D01*
X174405245Y-92137697D01*
X174452065Y-92345446D01*
X174455145Y-92355275D01*
X174535270Y-92552603D01*
X174539913Y-92561794D01*
X174619960Y-92692420D01*
X174630416Y-92701880D01*
X174639194Y-92698096D01*
X175381478Y-91955812D01*
X175389092Y-91941868D01*
X175388961Y-91940035D01*
X175384710Y-91933420D01*
X174643349Y-91192059D01*
X174631813Y-91185759D01*
X174619531Y-91195382D01*
X174571589Y-91265662D01*
X174566504Y-91274613D01*
X174476838Y-91467783D01*
X174473275Y-91477470D01*
X174416364Y-91682681D01*
X174414433Y-91692800D01*
X174391802Y-91904574D01*
X174391550Y-91914863D01*
X171609472Y-91914863D01*
X171595528Y-91755481D01*
X171593625Y-91744688D01*
X171537236Y-91534239D01*
X171533490Y-91523947D01*
X171441414Y-91326489D01*
X171435931Y-91316994D01*
X171399491Y-91264952D01*
X171389012Y-91256576D01*
X171375566Y-91263644D01*
X170674022Y-91965188D01*
X170666408Y-91979132D01*
X169936356Y-91979132D01*
X169937592Y-91976868D01*
X169937461Y-91975035D01*
X169933210Y-91968420D01*
X169227713Y-91262923D01*
X169215938Y-91256493D01*
X169203923Y-91265789D01*
X169168069Y-91316994D01*
X169162586Y-91326489D01*
X169070510Y-91523947D01*
X169066764Y-91534239D01*
X169010375Y-91744688D01*
X169008472Y-91755481D01*
X168989483Y-91972525D01*
X168989483Y-91983475D01*
X165097076Y-91983475D01*
X165070707Y-91885067D01*
X165070706Y-91885065D01*
X165069284Y-91879757D01*
X164992617Y-91715342D01*
X164974849Y-91677238D01*
X164974846Y-91677233D01*
X164972523Y-91672251D01*
X164858017Y-91508720D01*
X164844357Y-91489211D01*
X164844355Y-91489208D01*
X164841198Y-91484700D01*
X164679300Y-91322802D01*
X164674792Y-91319645D01*
X164674789Y-91319643D01*
X164584601Y-91256493D01*
X164491749Y-91191477D01*
X164486767Y-91189154D01*
X164486762Y-91189151D01*
X164452543Y-91173195D01*
X164399258Y-91126278D01*
X164379797Y-91058001D01*
X164400339Y-90990041D01*
X164452543Y-90944805D01*
X164486762Y-90928849D01*
X164486767Y-90928846D01*
X164491749Y-90926523D01*
X164542498Y-90890988D01*
X169580576Y-90890988D01*
X169587644Y-90904434D01*
X170289188Y-91605978D01*
X170303132Y-91613592D01*
X170304965Y-91613461D01*
X170311580Y-91609210D01*
X171017077Y-90903713D01*
X171023507Y-90891938D01*
X171014211Y-90879923D01*
X170963006Y-90844069D01*
X170953511Y-90838586D01*
X170912424Y-90819427D01*
X174994723Y-90819427D01*
X175001468Y-90831758D01*
X175740688Y-91570978D01*
X175754632Y-91578592D01*
X175756465Y-91578461D01*
X175763080Y-91574210D01*
X176506889Y-90830401D01*
X176513910Y-90817544D01*
X176507111Y-90808213D01*
X176503054Y-90805518D01*
X176316617Y-90702599D01*
X176307205Y-90698369D01*
X176106459Y-90627280D01*
X176096489Y-90624646D01*
X175886827Y-90587301D01*
X175876573Y-90586331D01*
X175663616Y-90583728D01*
X175653332Y-90584448D01*
X175442821Y-90616661D01*
X175432793Y-90619050D01*
X175230368Y-90685212D01*
X175220859Y-90689209D01*
X175031966Y-90787540D01*
X175023234Y-90793039D01*
X175003177Y-90808099D01*
X174994723Y-90819427D01*
X170912424Y-90819427D01*
X170756053Y-90746510D01*
X170745761Y-90742764D01*
X170535312Y-90686375D01*
X170524519Y-90684472D01*
X170307475Y-90665483D01*
X170296525Y-90665483D01*
X170079481Y-90684472D01*
X170068688Y-90686375D01*
X169858239Y-90742764D01*
X169847947Y-90746510D01*
X169650489Y-90838586D01*
X169640994Y-90844069D01*
X169588952Y-90880509D01*
X169580576Y-90890988D01*
X164542498Y-90890988D01*
X164641363Y-90821762D01*
X164674789Y-90798357D01*
X164674792Y-90798355D01*
X164679300Y-90795198D01*
X164841198Y-90633300D01*
X164845414Y-90627280D01*
X164969366Y-90450257D01*
X164972523Y-90445749D01*
X164974846Y-90440767D01*
X164974849Y-90440762D01*
X165066961Y-90243225D01*
X165066961Y-90243224D01*
X165069284Y-90238243D01*
X165128543Y-90017087D01*
X165148498Y-89789000D01*
X165128543Y-89560913D01*
X165127119Y-89555598D01*
X165070707Y-89345067D01*
X165070706Y-89345065D01*
X165069284Y-89339757D01*
X165060912Y-89321803D01*
X164974849Y-89137238D01*
X164974846Y-89137233D01*
X164972523Y-89132251D01*
X164867811Y-88982707D01*
X164844357Y-88949211D01*
X164844355Y-88949208D01*
X164841198Y-88944700D01*
X164679300Y-88782802D01*
X164674792Y-88779645D01*
X164674789Y-88779643D01*
X164596611Y-88724902D01*
X164491749Y-88651477D01*
X164486767Y-88649154D01*
X164486762Y-88649151D01*
X164452543Y-88633195D01*
X164399258Y-88586278D01*
X164379797Y-88518001D01*
X164400339Y-88450041D01*
X164452543Y-88404805D01*
X164486762Y-88388849D01*
X164486767Y-88388846D01*
X164491749Y-88386523D01*
X164596611Y-88313098D01*
X164674789Y-88258357D01*
X164674792Y-88258355D01*
X164679300Y-88255198D01*
X164841198Y-88093300D01*
X164972523Y-87905749D01*
X164974846Y-87900767D01*
X164974849Y-87900762D01*
X165046549Y-87747000D01*
X186006502Y-87747000D01*
X186026457Y-87975087D01*
X186027881Y-87980400D01*
X186027881Y-87980402D01*
X186059177Y-88097197D01*
X186085716Y-88196243D01*
X186088039Y-88201224D01*
X186088039Y-88201225D01*
X186180151Y-88398762D01*
X186180154Y-88398767D01*
X186182477Y-88403749D01*
X186185634Y-88408257D01*
X186310286Y-88586278D01*
X186313802Y-88591300D01*
X186475700Y-88753198D01*
X186480208Y-88756355D01*
X186480211Y-88756357D01*
X186513467Y-88779643D01*
X186663251Y-88884523D01*
X186668233Y-88886846D01*
X186668238Y-88886849D01*
X186865775Y-88978961D01*
X186870757Y-88981284D01*
X186876065Y-88982706D01*
X186876067Y-88982707D01*
X187086598Y-89039119D01*
X187086600Y-89039119D01*
X187091913Y-89040543D01*
X187320000Y-89060498D01*
X187548087Y-89040543D01*
X187553400Y-89039119D01*
X187553402Y-89039119D01*
X187763933Y-88982707D01*
X187763935Y-88982706D01*
X187769243Y-88981284D01*
X187774225Y-88978961D01*
X187971762Y-88886849D01*
X187971767Y-88886846D01*
X187976749Y-88884523D01*
X188126533Y-88779643D01*
X188159789Y-88756357D01*
X188159792Y-88756355D01*
X188164300Y-88753198D01*
X188326198Y-88591300D01*
X188329715Y-88586278D01*
X188454366Y-88408257D01*
X188457523Y-88403749D01*
X188459846Y-88398767D01*
X188459849Y-88398762D01*
X188551961Y-88201225D01*
X188551961Y-88201224D01*
X188554284Y-88196243D01*
X188580824Y-88097197D01*
X188612119Y-87980402D01*
X188612119Y-87980400D01*
X188613543Y-87975087D01*
X188633498Y-87747000D01*
X188613543Y-87518913D01*
X188554284Y-87297757D01*
X188551961Y-87292775D01*
X188459849Y-87095238D01*
X188459846Y-87095233D01*
X188457523Y-87090251D01*
X188326198Y-86902700D01*
X188164300Y-86740802D01*
X188159792Y-86737645D01*
X188159789Y-86737643D01*
X188016831Y-86637543D01*
X187976749Y-86609477D01*
X187971767Y-86607154D01*
X187971762Y-86607151D01*
X187774225Y-86515039D01*
X187774224Y-86515039D01*
X187769243Y-86512716D01*
X187763935Y-86511294D01*
X187763933Y-86511293D01*
X187553402Y-86454881D01*
X187553400Y-86454881D01*
X187548087Y-86453457D01*
X187320000Y-86433502D01*
X187091913Y-86453457D01*
X187086600Y-86454881D01*
X187086598Y-86454881D01*
X186876067Y-86511293D01*
X186876065Y-86511294D01*
X186870757Y-86512716D01*
X186865776Y-86515039D01*
X186865775Y-86515039D01*
X186668238Y-86607151D01*
X186668233Y-86607154D01*
X186663251Y-86609477D01*
X186623169Y-86637543D01*
X186480211Y-86737643D01*
X186480208Y-86737645D01*
X186475700Y-86740802D01*
X186313802Y-86902700D01*
X186182477Y-87090251D01*
X186180154Y-87095233D01*
X186180151Y-87095238D01*
X186088039Y-87292775D01*
X186085716Y-87297757D01*
X186026457Y-87518913D01*
X186006502Y-87747000D01*
X165046549Y-87747000D01*
X165066961Y-87703225D01*
X165066961Y-87703224D01*
X165069284Y-87698243D01*
X165128543Y-87477087D01*
X165148498Y-87249000D01*
X165128543Y-87020913D01*
X165127119Y-87015598D01*
X165070707Y-86805067D01*
X165070706Y-86805065D01*
X165069284Y-86799757D01*
X165002725Y-86657019D01*
X164974849Y-86597238D01*
X164974846Y-86597233D01*
X164972523Y-86592251D01*
X164861701Y-86433981D01*
X164844357Y-86409211D01*
X164844355Y-86409208D01*
X164841198Y-86404700D01*
X164679300Y-86242802D01*
X164674792Y-86239645D01*
X164674789Y-86239643D01*
X164595021Y-86183789D01*
X164491749Y-86111477D01*
X164486767Y-86109154D01*
X164486762Y-86109151D01*
X164452543Y-86093195D01*
X164399258Y-86046278D01*
X164379797Y-85978001D01*
X164400339Y-85910041D01*
X164452543Y-85864805D01*
X164486762Y-85848849D01*
X164486767Y-85848846D01*
X164491749Y-85846523D01*
X164596611Y-85773098D01*
X164674789Y-85718357D01*
X164674792Y-85718355D01*
X164679300Y-85715198D01*
X164841198Y-85553300D01*
X164972523Y-85365749D01*
X164974846Y-85360767D01*
X164974849Y-85360762D01*
X165066961Y-85163225D01*
X165066961Y-85163224D01*
X165069284Y-85158243D01*
X165080627Y-85115913D01*
X165127119Y-84942402D01*
X165127119Y-84942400D01*
X165128543Y-84937087D01*
X165148498Y-84709000D01*
X165128543Y-84480913D01*
X165109185Y-84408667D01*
X165070707Y-84265067D01*
X165070706Y-84265065D01*
X165069284Y-84259757D01*
X165059786Y-84239388D01*
X164974849Y-84057238D01*
X164974846Y-84057233D01*
X164972523Y-84052251D01*
X164841198Y-83864700D01*
X164679300Y-83702802D01*
X164674792Y-83699645D01*
X164674789Y-83699643D01*
X164596611Y-83644902D01*
X164491749Y-83571477D01*
X164486767Y-83569154D01*
X164486762Y-83569151D01*
X164452543Y-83553195D01*
X164399258Y-83506278D01*
X164379797Y-83438001D01*
X164400339Y-83370041D01*
X164452543Y-83324805D01*
X164486762Y-83308849D01*
X164486767Y-83308846D01*
X164491749Y-83306523D01*
X164633458Y-83207297D01*
X164674789Y-83178357D01*
X164674792Y-83178355D01*
X164679300Y-83175198D01*
X164841198Y-83013300D01*
X164847098Y-83004875D01*
X164969366Y-82830257D01*
X164972523Y-82825749D01*
X164974846Y-82820767D01*
X164974849Y-82820762D01*
X165066961Y-82623225D01*
X165066961Y-82623224D01*
X165069284Y-82618243D01*
X165115373Y-82446240D01*
X165127119Y-82402402D01*
X165127119Y-82402400D01*
X165128543Y-82397087D01*
X165148498Y-82169000D01*
X165128543Y-81940913D01*
X165069284Y-81719757D01*
X165063797Y-81707990D01*
X164974849Y-81517238D01*
X164974846Y-81517233D01*
X164972523Y-81512251D01*
X164841198Y-81324700D01*
X164679300Y-81162802D01*
X164674792Y-81159645D01*
X164674789Y-81159643D01*
X164527018Y-81056173D01*
X164491749Y-81031477D01*
X164486767Y-81029154D01*
X164486762Y-81029151D01*
X164289225Y-80937039D01*
X164289224Y-80937039D01*
X164284243Y-80934716D01*
X164278935Y-80933294D01*
X164278933Y-80933293D01*
X164068402Y-80876881D01*
X164068400Y-80876881D01*
X164063087Y-80875457D01*
X163835000Y-80855502D01*
X163606913Y-80875457D01*
X163601600Y-80876881D01*
X163601598Y-80876881D01*
X163391067Y-80933293D01*
X163391065Y-80933294D01*
X163385757Y-80934716D01*
X163380776Y-80937039D01*
X163380775Y-80937039D01*
X163183238Y-81029151D01*
X163183233Y-81029154D01*
X163178251Y-81031477D01*
X163142982Y-81056173D01*
X162995211Y-81159643D01*
X162995208Y-81159645D01*
X162990700Y-81162802D01*
X162828802Y-81324700D01*
X162697477Y-81512251D01*
X162695154Y-81517233D01*
X162695151Y-81517238D01*
X162606203Y-81707990D01*
X162600716Y-81719757D01*
X162541457Y-81940913D01*
X162521502Y-82169000D01*
X162541457Y-82397087D01*
X162542881Y-82402400D01*
X162542881Y-82402402D01*
X162554628Y-82446240D01*
X162600716Y-82618243D01*
X162603039Y-82623224D01*
X162603039Y-82623225D01*
X162695151Y-82820762D01*
X162695154Y-82820767D01*
X162697477Y-82825749D01*
X162700634Y-82830257D01*
X162822903Y-83004875D01*
X162828802Y-83013300D01*
X162990700Y-83175198D01*
X162995208Y-83178355D01*
X162995211Y-83178357D01*
X163036542Y-83207297D01*
X163178251Y-83306523D01*
X163183233Y-83308846D01*
X163183238Y-83308849D01*
X163217457Y-83324805D01*
X163270742Y-83371722D01*
X163290203Y-83439999D01*
X163269661Y-83507959D01*
X163217457Y-83553195D01*
X163183238Y-83569151D01*
X163183233Y-83569154D01*
X163178251Y-83571477D01*
X163073389Y-83644902D01*
X162995211Y-83699643D01*
X162995208Y-83699645D01*
X162990700Y-83702802D01*
X162828802Y-83864700D01*
X162697477Y-84052251D01*
X162695154Y-84057233D01*
X162695151Y-84057238D01*
X162610214Y-84239388D01*
X162600716Y-84259757D01*
X162599294Y-84265065D01*
X162599293Y-84265067D01*
X162560815Y-84408667D01*
X162541457Y-84480913D01*
X162521502Y-84709000D01*
X162541457Y-84937087D01*
X162542881Y-84942400D01*
X162542881Y-84942402D01*
X162589374Y-85115913D01*
X162600716Y-85158243D01*
X162603039Y-85163224D01*
X162603039Y-85163225D01*
X162695151Y-85360762D01*
X162695154Y-85360767D01*
X162697477Y-85365749D01*
X162828802Y-85553300D01*
X162990700Y-85715198D01*
X162995208Y-85718355D01*
X162995211Y-85718357D01*
X163073389Y-85773098D01*
X163178251Y-85846523D01*
X163183233Y-85848846D01*
X163183238Y-85848849D01*
X163217457Y-85864805D01*
X163270742Y-85911722D01*
X163290203Y-85979999D01*
X163269661Y-86047959D01*
X163217457Y-86093195D01*
X163183238Y-86109151D01*
X163183233Y-86109154D01*
X163178251Y-86111477D01*
X163074979Y-86183789D01*
X162995211Y-86239643D01*
X162995208Y-86239645D01*
X162990700Y-86242802D01*
X162828802Y-86404700D01*
X162825645Y-86409208D01*
X162825643Y-86409211D01*
X162808299Y-86433981D01*
X162697477Y-86592251D01*
X162695154Y-86597233D01*
X162695151Y-86597238D01*
X162667275Y-86657019D01*
X162600716Y-86799757D01*
X162599294Y-86805065D01*
X162599293Y-86805067D01*
X162542881Y-87015598D01*
X162541457Y-87020913D01*
X162521502Y-87249000D01*
X162541457Y-87477087D01*
X162600716Y-87698243D01*
X162603039Y-87703224D01*
X162603039Y-87703225D01*
X162695151Y-87900762D01*
X162695154Y-87900767D01*
X162697477Y-87905749D01*
X162828802Y-88093300D01*
X162990700Y-88255198D01*
X162995208Y-88258355D01*
X162995211Y-88258357D01*
X163073389Y-88313098D01*
X163178251Y-88386523D01*
X163183233Y-88388846D01*
X163183238Y-88388849D01*
X163217457Y-88404805D01*
X163270742Y-88451722D01*
X163290203Y-88519999D01*
X163269661Y-88587959D01*
X163217457Y-88633195D01*
X163183238Y-88649151D01*
X163183233Y-88649154D01*
X163178251Y-88651477D01*
X163073389Y-88724902D01*
X162995211Y-88779643D01*
X162995208Y-88779645D01*
X162990700Y-88782802D01*
X162828802Y-88944700D01*
X162825645Y-88949208D01*
X162825643Y-88949211D01*
X162802189Y-88982707D01*
X162697477Y-89132251D01*
X162695154Y-89137233D01*
X162695151Y-89137238D01*
X162609088Y-89321803D01*
X162600716Y-89339757D01*
X162599294Y-89345065D01*
X162599293Y-89345067D01*
X162542881Y-89555598D01*
X162541457Y-89560913D01*
X162521502Y-89789000D01*
X162541457Y-90017087D01*
X162600716Y-90238243D01*
X162603039Y-90243224D01*
X162603039Y-90243225D01*
X162695151Y-90440762D01*
X162695154Y-90440767D01*
X162697477Y-90445749D01*
X162700634Y-90450257D01*
X162824587Y-90627280D01*
X162828802Y-90633300D01*
X162990700Y-90795198D01*
X162995208Y-90798355D01*
X162995211Y-90798357D01*
X163028637Y-90821762D01*
X163178251Y-90926523D01*
X163183233Y-90928846D01*
X163183238Y-90928849D01*
X163217457Y-90944805D01*
X163270742Y-90991722D01*
X163290203Y-91059999D01*
X163269661Y-91127959D01*
X163217457Y-91173195D01*
X163183238Y-91189151D01*
X163183233Y-91189154D01*
X163178251Y-91191477D01*
X163085399Y-91256493D01*
X162995211Y-91319643D01*
X162995208Y-91319645D01*
X162990700Y-91322802D01*
X162828802Y-91484700D01*
X162825645Y-91489208D01*
X162825643Y-91489211D01*
X162811983Y-91508720D01*
X162697477Y-91672251D01*
X162695154Y-91677233D01*
X162695151Y-91677238D01*
X162677383Y-91715342D01*
X162600716Y-91879757D01*
X162599294Y-91885065D01*
X162599293Y-91885067D01*
X162542881Y-92095598D01*
X162541457Y-92100913D01*
X162521502Y-92329000D01*
X162541457Y-92557087D01*
X162542881Y-92562400D01*
X162542881Y-92562402D01*
X162591456Y-92743683D01*
X162600716Y-92778243D01*
X162603039Y-92783224D01*
X162603039Y-92783225D01*
X162695151Y-92980762D01*
X162695154Y-92980767D01*
X162697477Y-92985749D01*
X162749211Y-93059632D01*
X162823039Y-93165069D01*
X162828802Y-93173300D01*
X162990700Y-93335198D01*
X162995208Y-93338355D01*
X162995211Y-93338357D01*
X163004847Y-93345104D01*
X163178251Y-93466523D01*
X163183233Y-93468846D01*
X163183238Y-93468849D01*
X163217457Y-93484805D01*
X163270742Y-93531722D01*
X163290203Y-93599999D01*
X163269661Y-93667959D01*
X163217457Y-93713195D01*
X163183238Y-93729151D01*
X163183233Y-93729154D01*
X163178251Y-93731477D01*
X163108876Y-93780054D01*
X162995211Y-93859643D01*
X162995208Y-93859645D01*
X162990700Y-93862802D01*
X162828802Y-94024700D01*
X162825645Y-94029208D01*
X162825643Y-94029211D01*
X162770902Y-94107389D01*
X162697477Y-94212251D01*
X162695154Y-94217233D01*
X162695151Y-94217238D01*
X162675043Y-94260361D01*
X162600716Y-94419757D01*
X162599294Y-94425065D01*
X162599293Y-94425067D01*
X162566825Y-94546240D01*
X162541457Y-94640913D01*
X162521502Y-94869000D01*
X157528498Y-94869000D01*
X157508543Y-94640913D01*
X157483175Y-94546240D01*
X157450707Y-94425067D01*
X157450706Y-94425065D01*
X157449284Y-94419757D01*
X157374957Y-94260361D01*
X157354849Y-94217238D01*
X157354846Y-94217233D01*
X157352523Y-94212251D01*
X157279098Y-94107389D01*
X157224357Y-94029211D01*
X157224355Y-94029208D01*
X157221198Y-94024700D01*
X157059300Y-93862802D01*
X157054792Y-93859645D01*
X157054789Y-93859643D01*
X156941124Y-93780054D01*
X156871749Y-93731477D01*
X156866767Y-93729154D01*
X156866762Y-93729151D01*
X156832543Y-93713195D01*
X156779258Y-93666278D01*
X156759797Y-93598001D01*
X156780339Y-93530041D01*
X156832543Y-93484805D01*
X156866762Y-93468849D01*
X156866767Y-93468846D01*
X156871749Y-93466523D01*
X157045153Y-93345104D01*
X157054789Y-93338357D01*
X157054792Y-93338355D01*
X157059300Y-93335198D01*
X157221198Y-93173300D01*
X157226962Y-93165069D01*
X157300789Y-93059632D01*
X157352523Y-92985749D01*
X157354846Y-92980767D01*
X157354849Y-92980762D01*
X157446961Y-92783225D01*
X157446961Y-92783224D01*
X157449284Y-92778243D01*
X157458545Y-92743683D01*
X157507119Y-92562402D01*
X157507119Y-92562400D01*
X157508543Y-92557087D01*
X157528498Y-92329000D01*
X157508543Y-92100913D01*
X157507119Y-92095598D01*
X157450707Y-91885067D01*
X157450706Y-91885065D01*
X157449284Y-91879757D01*
X157372617Y-91715342D01*
X157354849Y-91677238D01*
X157354846Y-91677233D01*
X157352523Y-91672251D01*
X157238017Y-91508720D01*
X157224357Y-91489211D01*
X157224355Y-91489208D01*
X157221198Y-91484700D01*
X157059300Y-91322802D01*
X157054792Y-91319645D01*
X157054789Y-91319643D01*
X156964601Y-91256493D01*
X156871749Y-91191477D01*
X156866767Y-91189154D01*
X156866762Y-91189151D01*
X156832543Y-91173195D01*
X156779258Y-91126278D01*
X156759797Y-91058001D01*
X156780339Y-90990041D01*
X156832543Y-90944805D01*
X156866762Y-90928849D01*
X156866767Y-90928846D01*
X156871749Y-90926523D01*
X157021363Y-90821762D01*
X157054789Y-90798357D01*
X157054792Y-90798355D01*
X157059300Y-90795198D01*
X157221198Y-90633300D01*
X157225414Y-90627280D01*
X157349366Y-90450257D01*
X157352523Y-90445749D01*
X157354846Y-90440767D01*
X157354849Y-90440762D01*
X157446961Y-90243225D01*
X157446961Y-90243224D01*
X157449284Y-90238243D01*
X157508543Y-90017087D01*
X157528498Y-89789000D01*
X157508543Y-89560913D01*
X157507119Y-89555598D01*
X157450707Y-89345067D01*
X157450706Y-89345065D01*
X157449284Y-89339757D01*
X157440912Y-89321803D01*
X157354849Y-89137238D01*
X157354846Y-89137233D01*
X157352523Y-89132251D01*
X157247811Y-88982707D01*
X157224357Y-88949211D01*
X157224355Y-88949208D01*
X157221198Y-88944700D01*
X157059300Y-88782802D01*
X157054792Y-88779645D01*
X157054789Y-88779643D01*
X156976611Y-88724902D01*
X156871749Y-88651477D01*
X156866767Y-88649154D01*
X156866762Y-88649151D01*
X156832543Y-88633195D01*
X156779258Y-88586278D01*
X156759797Y-88518001D01*
X156780339Y-88450041D01*
X156832543Y-88404805D01*
X156866762Y-88388849D01*
X156866767Y-88388846D01*
X156871749Y-88386523D01*
X156976611Y-88313098D01*
X157054789Y-88258357D01*
X157054792Y-88258355D01*
X157059300Y-88255198D01*
X157221198Y-88093300D01*
X157352523Y-87905749D01*
X157354846Y-87900767D01*
X157354849Y-87900762D01*
X157446961Y-87703225D01*
X157446961Y-87703224D01*
X157449284Y-87698243D01*
X157508543Y-87477087D01*
X157528498Y-87249000D01*
X157508543Y-87020913D01*
X157507119Y-87015598D01*
X157450707Y-86805067D01*
X157450706Y-86805065D01*
X157449284Y-86799757D01*
X157382725Y-86657019D01*
X157354849Y-86597238D01*
X157354846Y-86597233D01*
X157352523Y-86592251D01*
X157241701Y-86433981D01*
X157224357Y-86409211D01*
X157224355Y-86409208D01*
X157221198Y-86404700D01*
X157059300Y-86242802D01*
X157054792Y-86239645D01*
X157054789Y-86239643D01*
X156975021Y-86183789D01*
X156871749Y-86111477D01*
X156866767Y-86109154D01*
X156866762Y-86109151D01*
X156832543Y-86093195D01*
X156779258Y-86046278D01*
X156759797Y-85978001D01*
X156780339Y-85910041D01*
X156832543Y-85864805D01*
X156866762Y-85848849D01*
X156866767Y-85848846D01*
X156871749Y-85846523D01*
X156976611Y-85773098D01*
X157054789Y-85718357D01*
X157054792Y-85718355D01*
X157059300Y-85715198D01*
X157221198Y-85553300D01*
X157352523Y-85365749D01*
X157354846Y-85360767D01*
X157354849Y-85360762D01*
X157446961Y-85163225D01*
X157446961Y-85163224D01*
X157449284Y-85158243D01*
X157460627Y-85115913D01*
X157507119Y-84942402D01*
X157507119Y-84942400D01*
X157508543Y-84937087D01*
X157528498Y-84709000D01*
X157508543Y-84480913D01*
X157489185Y-84408667D01*
X157450707Y-84265067D01*
X157450706Y-84265065D01*
X157449284Y-84259757D01*
X157439786Y-84239388D01*
X157354849Y-84057238D01*
X157354846Y-84057233D01*
X157352523Y-84052251D01*
X157221198Y-83864700D01*
X157059300Y-83702802D01*
X157054789Y-83699643D01*
X157050576Y-83696108D01*
X157051527Y-83694974D01*
X157011529Y-83644929D01*
X157004224Y-83574310D01*
X157036258Y-83510951D01*
X157097462Y-83474970D01*
X157114517Y-83471918D01*
X157125316Y-83470745D01*
X157261705Y-83419615D01*
X157378261Y-83332261D01*
X157465615Y-83215705D01*
X157516745Y-83079316D01*
X157523500Y-83017134D01*
X157523500Y-81320866D01*
X157516745Y-81258684D01*
X157465615Y-81122295D01*
X157378261Y-81005739D01*
X157261705Y-80918385D01*
X157125316Y-80867255D01*
X157063134Y-80860500D01*
X155366866Y-80860500D01*
X155304684Y-80867255D01*
X155168295Y-80918385D01*
X155051739Y-81005739D01*
X154964385Y-81122295D01*
X154913255Y-81258684D01*
X154906500Y-81320866D01*
X154906500Y-83017134D01*
X154913255Y-83079316D01*
X154964385Y-83215705D01*
X155051739Y-83332261D01*
X155168295Y-83419615D01*
X155304684Y-83470745D01*
X155315474Y-83471917D01*
X155317606Y-83472803D01*
X155320222Y-83473425D01*
X155320121Y-83473848D01*
X155381035Y-83499155D01*
X155421463Y-83557517D01*
X155423922Y-83628471D01*
X155387629Y-83689490D01*
X155378969Y-83696489D01*
X155375207Y-83699646D01*
X155370700Y-83702802D01*
X155208802Y-83864700D01*
X155077477Y-84052251D01*
X155075154Y-84057233D01*
X155075151Y-84057238D01*
X154990214Y-84239388D01*
X154980716Y-84259757D01*
X154979294Y-84265065D01*
X154979293Y-84265067D01*
X154940815Y-84408667D01*
X154921457Y-84480913D01*
X154901502Y-84709000D01*
X154921457Y-84937087D01*
X154922881Y-84942400D01*
X154922881Y-84942402D01*
X154969374Y-85115913D01*
X154980716Y-85158243D01*
X154983039Y-85163224D01*
X154983039Y-85163225D01*
X155075151Y-85360762D01*
X155075154Y-85360767D01*
X155077477Y-85365749D01*
X155208802Y-85553300D01*
X155370700Y-85715198D01*
X155375208Y-85718355D01*
X155375211Y-85718357D01*
X155453389Y-85773098D01*
X155558251Y-85846523D01*
X155563233Y-85848846D01*
X155563238Y-85848849D01*
X155597457Y-85864805D01*
X155650742Y-85911722D01*
X155670203Y-85979999D01*
X155649661Y-86047959D01*
X155597457Y-86093195D01*
X155563238Y-86109151D01*
X155563233Y-86109154D01*
X155558251Y-86111477D01*
X155454979Y-86183789D01*
X155375211Y-86239643D01*
X155375208Y-86239645D01*
X155370700Y-86242802D01*
X155208802Y-86404700D01*
X155205645Y-86409208D01*
X155205643Y-86409211D01*
X155188299Y-86433981D01*
X155077477Y-86592251D01*
X155075154Y-86597233D01*
X155075151Y-86597238D01*
X155047275Y-86657019D01*
X154980716Y-86799757D01*
X154979294Y-86805065D01*
X154979293Y-86805067D01*
X154922881Y-87015598D01*
X154921457Y-87020913D01*
X154901502Y-87249000D01*
X154921457Y-87477087D01*
X154980716Y-87698243D01*
X154983039Y-87703224D01*
X154983039Y-87703225D01*
X155075151Y-87900762D01*
X155075154Y-87900767D01*
X155077477Y-87905749D01*
X155208802Y-88093300D01*
X155370700Y-88255198D01*
X155375208Y-88258355D01*
X155375211Y-88258357D01*
X155453389Y-88313098D01*
X155558251Y-88386523D01*
X155563233Y-88388846D01*
X155563238Y-88388849D01*
X155597457Y-88404805D01*
X155650742Y-88451722D01*
X155670203Y-88519999D01*
X155649661Y-88587959D01*
X155597457Y-88633195D01*
X155563238Y-88649151D01*
X155563233Y-88649154D01*
X155558251Y-88651477D01*
X155453389Y-88724902D01*
X155375211Y-88779643D01*
X155375208Y-88779645D01*
X155370700Y-88782802D01*
X155208802Y-88944700D01*
X155205645Y-88949208D01*
X155205643Y-88949211D01*
X155182189Y-88982707D01*
X155077477Y-89132251D01*
X155075154Y-89137233D01*
X155075151Y-89137238D01*
X154989088Y-89321803D01*
X154980716Y-89339757D01*
X154979294Y-89345065D01*
X154979293Y-89345067D01*
X154922881Y-89555598D01*
X154921457Y-89560913D01*
X154901502Y-89789000D01*
X154921457Y-90017087D01*
X154980716Y-90238243D01*
X154983039Y-90243224D01*
X154983039Y-90243225D01*
X155075151Y-90440762D01*
X155075154Y-90440767D01*
X155077477Y-90445749D01*
X155080634Y-90450257D01*
X155204587Y-90627280D01*
X155208802Y-90633300D01*
X155370700Y-90795198D01*
X155375208Y-90798355D01*
X155375211Y-90798357D01*
X155408637Y-90821762D01*
X155558251Y-90926523D01*
X155563233Y-90928846D01*
X155563238Y-90928849D01*
X155597457Y-90944805D01*
X155650742Y-90991722D01*
X155670203Y-91059999D01*
X155649661Y-91127959D01*
X155597457Y-91173195D01*
X155563238Y-91189151D01*
X155563233Y-91189154D01*
X155558251Y-91191477D01*
X155465399Y-91256493D01*
X155375211Y-91319643D01*
X155375208Y-91319645D01*
X155370700Y-91322802D01*
X155208802Y-91484700D01*
X155205645Y-91489208D01*
X155205643Y-91489211D01*
X155191983Y-91508720D01*
X155077477Y-91672251D01*
X155075154Y-91677233D01*
X155075151Y-91677238D01*
X155057383Y-91715342D01*
X154980716Y-91879757D01*
X154979294Y-91885065D01*
X154979293Y-91885067D01*
X154922881Y-92095598D01*
X154921457Y-92100913D01*
X154901502Y-92329000D01*
X154921457Y-92557087D01*
X154922881Y-92562400D01*
X154922881Y-92562402D01*
X154971456Y-92743683D01*
X154980716Y-92778243D01*
X154983039Y-92783224D01*
X154983039Y-92783225D01*
X155075151Y-92980762D01*
X155075154Y-92980767D01*
X155077477Y-92985749D01*
X155129211Y-93059632D01*
X155203039Y-93165069D01*
X155208802Y-93173300D01*
X155370700Y-93335198D01*
X155375208Y-93338355D01*
X155375211Y-93338357D01*
X155384847Y-93345104D01*
X155558251Y-93466523D01*
X155563233Y-93468846D01*
X155563238Y-93468849D01*
X155597457Y-93484805D01*
X155650742Y-93531722D01*
X155670203Y-93599999D01*
X155649661Y-93667959D01*
X155597457Y-93713195D01*
X155563238Y-93729151D01*
X155563233Y-93729154D01*
X155558251Y-93731477D01*
X155488876Y-93780054D01*
X155375211Y-93859643D01*
X155375208Y-93859645D01*
X155370700Y-93862802D01*
X155208802Y-94024700D01*
X155205645Y-94029208D01*
X155205643Y-94029211D01*
X155150902Y-94107389D01*
X155077477Y-94212251D01*
X155075154Y-94217233D01*
X155075151Y-94217238D01*
X155055043Y-94260361D01*
X154980716Y-94419757D01*
X154979294Y-94425065D01*
X154979293Y-94425067D01*
X154946825Y-94546240D01*
X154921457Y-94640913D01*
X154901502Y-94869000D01*
X154921457Y-95097087D01*
X154922881Y-95102400D01*
X154922881Y-95102402D01*
X154978941Y-95311617D01*
X154980716Y-95318243D01*
X154983039Y-95323224D01*
X154983039Y-95323225D01*
X155075151Y-95520762D01*
X155075154Y-95520767D01*
X155077477Y-95525749D01*
X155080634Y-95530257D01*
X155199281Y-95699702D01*
X155208802Y-95713300D01*
X155370700Y-95875198D01*
X155375208Y-95878355D01*
X155375211Y-95878357D01*
X155422319Y-95911342D01*
X155558251Y-96006523D01*
X155563233Y-96008846D01*
X155563238Y-96008849D01*
X155597457Y-96024805D01*
X155650742Y-96071722D01*
X155670203Y-96139999D01*
X155649661Y-96207959D01*
X155597457Y-96253195D01*
X155563238Y-96269151D01*
X155563233Y-96269154D01*
X155558251Y-96271477D01*
X155483888Y-96323547D01*
X155375211Y-96399643D01*
X155375208Y-96399645D01*
X155370700Y-96402802D01*
X155208802Y-96564700D01*
X155205645Y-96569208D01*
X155205643Y-96569211D01*
X155188299Y-96593981D01*
X155077477Y-96752251D01*
X155075154Y-96757233D01*
X155075151Y-96757238D01*
X154986203Y-96947990D01*
X154980716Y-96959757D01*
X154979294Y-96965065D01*
X154979293Y-96965067D01*
X154940718Y-97109031D01*
X154921457Y-97180913D01*
X154901502Y-97409000D01*
X133897509Y-97409000D01*
X133895859Y-97401245D01*
X133920975Y-97334839D01*
X133948327Y-97308232D01*
X133971797Y-97291491D01*
X134127860Y-97180173D01*
X134286096Y-97022489D01*
X134345594Y-96939689D01*
X134413435Y-96845277D01*
X134416453Y-96841077D01*
X134450280Y-96772634D01*
X134513136Y-96645453D01*
X134513137Y-96645451D01*
X134515430Y-96640811D01*
X134580370Y-96427069D01*
X134609529Y-96205590D01*
X134610093Y-96182498D01*
X134611074Y-96142365D01*
X134611074Y-96142361D01*
X134611156Y-96139000D01*
X134592852Y-95916361D01*
X134538431Y-95699702D01*
X134449354Y-95494840D01*
X134352187Y-95344642D01*
X134330822Y-95311617D01*
X134330820Y-95311614D01*
X134328014Y-95307277D01*
X134324532Y-95303450D01*
X134180798Y-95145488D01*
X134149746Y-95081642D01*
X134156594Y-95024134D01*
X143783500Y-95024134D01*
X143790255Y-95086316D01*
X143841385Y-95222705D01*
X143928739Y-95339261D01*
X144045295Y-95426615D01*
X144181684Y-95477745D01*
X144243866Y-95484500D01*
X146840134Y-95484500D01*
X146902316Y-95477745D01*
X147038705Y-95426615D01*
X147155261Y-95339261D01*
X147242615Y-95222705D01*
X147293745Y-95086316D01*
X147300500Y-95024134D01*
X147300500Y-92427866D01*
X147293745Y-92365684D01*
X147242615Y-92229295D01*
X147155261Y-92112739D01*
X147038705Y-92025385D01*
X146902316Y-91974255D01*
X146840134Y-91967500D01*
X144243866Y-91967500D01*
X144181684Y-91974255D01*
X144045295Y-92025385D01*
X143928739Y-92112739D01*
X143841385Y-92229295D01*
X143790255Y-92365684D01*
X143783500Y-92427866D01*
X143783500Y-95024134D01*
X134156594Y-95024134D01*
X134158141Y-95011143D01*
X134203317Y-94956375D01*
X134229761Y-94942706D01*
X134336297Y-94902767D01*
X134344705Y-94899615D01*
X134461261Y-94812261D01*
X134548615Y-94695705D01*
X134599745Y-94559316D01*
X134606500Y-94497134D01*
X134606500Y-92700866D01*
X134599745Y-92638684D01*
X134548615Y-92502295D01*
X134461261Y-92385739D01*
X134344705Y-92298385D01*
X134208316Y-92247255D01*
X134146134Y-92240500D01*
X132349866Y-92240500D01*
X132287684Y-92247255D01*
X132151295Y-92298385D01*
X132034739Y-92385739D01*
X131947385Y-92502295D01*
X131896255Y-92638684D01*
X131889500Y-92700866D01*
X131889500Y-94497134D01*
X131896255Y-94559316D01*
X131947385Y-94695705D01*
X132034739Y-94812261D01*
X132151295Y-94899615D01*
X132159704Y-94902767D01*
X132159705Y-94902768D01*
X132268451Y-94943535D01*
X132325216Y-94986176D01*
X132349916Y-95052738D01*
X132334709Y-95122087D01*
X132315316Y-95148568D01*
X132188629Y-95281138D01*
X132185715Y-95285410D01*
X132185714Y-95285411D01*
X132100556Y-95410249D01*
X132062743Y-95465680D01*
X131968688Y-95668305D01*
X131908989Y-95883570D01*
X131885251Y-96105695D01*
X124841000Y-96105695D01*
X124841000Y-90170000D01*
X136227502Y-90170000D01*
X136247457Y-90398087D01*
X136248881Y-90403400D01*
X136248881Y-90403402D01*
X136297393Y-90584448D01*
X136306716Y-90619243D01*
X136309039Y-90624224D01*
X136309039Y-90624225D01*
X136401151Y-90821762D01*
X136401154Y-90821767D01*
X136403477Y-90826749D01*
X136415605Y-90844069D01*
X136518993Y-90991722D01*
X136534802Y-91014300D01*
X136696700Y-91176198D01*
X136701208Y-91179355D01*
X136701211Y-91179357D01*
X136779389Y-91234098D01*
X136884251Y-91307523D01*
X136889233Y-91309846D01*
X136889238Y-91309849D01*
X137085765Y-91401490D01*
X137091757Y-91404284D01*
X137097065Y-91405706D01*
X137097067Y-91405707D01*
X137307598Y-91462119D01*
X137307600Y-91462119D01*
X137312913Y-91463543D01*
X137541000Y-91483498D01*
X137769087Y-91463543D01*
X137774400Y-91462119D01*
X137774402Y-91462119D01*
X137984933Y-91405707D01*
X137984935Y-91405706D01*
X137990243Y-91404284D01*
X137996235Y-91401490D01*
X138192762Y-91309849D01*
X138192767Y-91309846D01*
X138197749Y-91307523D01*
X138302611Y-91234098D01*
X138380789Y-91179357D01*
X138380792Y-91179355D01*
X138385300Y-91176198D01*
X138547198Y-91014300D01*
X138563008Y-90991722D01*
X138666395Y-90844069D01*
X138678523Y-90826749D01*
X138680846Y-90821767D01*
X138680849Y-90821762D01*
X138772961Y-90624225D01*
X138772961Y-90624224D01*
X138775284Y-90619243D01*
X138784608Y-90584448D01*
X138824245Y-90436522D01*
X146418273Y-90436522D01*
X146465764Y-90613761D01*
X146469510Y-90624053D01*
X146561586Y-90821511D01*
X146567069Y-90831007D01*
X146692028Y-91009467D01*
X146699084Y-91017875D01*
X146853125Y-91171916D01*
X146861533Y-91178972D01*
X147039993Y-91303931D01*
X147049489Y-91309414D01*
X147246947Y-91401490D01*
X147257239Y-91405236D01*
X147429503Y-91451394D01*
X147443599Y-91451058D01*
X147447000Y-91443116D01*
X147447000Y-91437967D01*
X147955000Y-91437967D01*
X147958973Y-91451498D01*
X147967522Y-91452727D01*
X148144761Y-91405236D01*
X148155053Y-91401490D01*
X148352511Y-91309414D01*
X148362007Y-91303931D01*
X148540467Y-91178972D01*
X148548875Y-91171916D01*
X148702916Y-91017875D01*
X148709972Y-91009467D01*
X148834931Y-90831007D01*
X148840414Y-90821511D01*
X148932490Y-90624053D01*
X148936236Y-90613761D01*
X148982394Y-90441497D01*
X148982058Y-90427401D01*
X148974116Y-90424000D01*
X147973115Y-90424000D01*
X147957876Y-90428475D01*
X147956671Y-90429865D01*
X147955000Y-90437548D01*
X147955000Y-91437967D01*
X147447000Y-91437967D01*
X147447000Y-90442115D01*
X147442525Y-90426876D01*
X147441135Y-90425671D01*
X147433452Y-90424000D01*
X146433033Y-90424000D01*
X146419502Y-90427973D01*
X146418273Y-90436522D01*
X138824245Y-90436522D01*
X138833119Y-90403402D01*
X138833119Y-90403400D01*
X138834543Y-90398087D01*
X138854498Y-90170000D01*
X138834543Y-89941913D01*
X138824244Y-89903478D01*
X138822911Y-89898503D01*
X146419606Y-89898503D01*
X146419942Y-89912599D01*
X146427884Y-89916000D01*
X147428885Y-89916000D01*
X147444124Y-89911525D01*
X147445329Y-89910135D01*
X147447000Y-89902452D01*
X147447000Y-89897885D01*
X147955000Y-89897885D01*
X147959475Y-89913124D01*
X147960865Y-89914329D01*
X147968548Y-89916000D01*
X148968967Y-89916000D01*
X148982498Y-89912027D01*
X148983727Y-89903478D01*
X148936236Y-89726239D01*
X148932490Y-89715947D01*
X148840414Y-89518489D01*
X148834931Y-89508993D01*
X148709972Y-89330533D01*
X148702916Y-89322125D01*
X148548875Y-89168084D01*
X148540467Y-89161028D01*
X148362007Y-89036069D01*
X148352511Y-89030586D01*
X148155053Y-88938510D01*
X148144761Y-88934764D01*
X147972497Y-88888606D01*
X147958401Y-88888942D01*
X147955000Y-88896884D01*
X147955000Y-89897885D01*
X147447000Y-89897885D01*
X147447000Y-88902033D01*
X147443027Y-88888502D01*
X147434478Y-88887273D01*
X147257239Y-88934764D01*
X147246947Y-88938510D01*
X147049489Y-89030586D01*
X147039993Y-89036069D01*
X146861533Y-89161028D01*
X146853125Y-89168084D01*
X146699084Y-89322125D01*
X146692028Y-89330533D01*
X146567069Y-89508993D01*
X146561586Y-89518489D01*
X146469510Y-89715947D01*
X146465764Y-89726239D01*
X146419606Y-89898503D01*
X138822911Y-89898503D01*
X138776707Y-89726067D01*
X138776706Y-89726065D01*
X138775284Y-89720757D01*
X138772961Y-89715775D01*
X138680849Y-89518238D01*
X138680846Y-89518233D01*
X138678523Y-89513251D01*
X138557041Y-89339757D01*
X138550357Y-89330211D01*
X138550355Y-89330208D01*
X138547198Y-89325700D01*
X138385300Y-89163802D01*
X138380792Y-89160645D01*
X138380789Y-89160643D01*
X138209268Y-89040543D01*
X138197749Y-89032477D01*
X138192767Y-89030154D01*
X138192762Y-89030151D01*
X137995225Y-88938039D01*
X137995224Y-88938039D01*
X137990243Y-88935716D01*
X137984935Y-88934294D01*
X137984933Y-88934293D01*
X137774402Y-88877881D01*
X137774400Y-88877881D01*
X137769087Y-88876457D01*
X137541000Y-88856502D01*
X137312913Y-88876457D01*
X137307600Y-88877881D01*
X137307598Y-88877881D01*
X137097067Y-88934293D01*
X137097065Y-88934294D01*
X137091757Y-88935716D01*
X137086776Y-88938039D01*
X137086775Y-88938039D01*
X136889238Y-89030151D01*
X136889233Y-89030154D01*
X136884251Y-89032477D01*
X136872732Y-89040543D01*
X136701211Y-89160643D01*
X136701208Y-89160645D01*
X136696700Y-89163802D01*
X136534802Y-89325700D01*
X136531645Y-89330208D01*
X136531643Y-89330211D01*
X136524959Y-89339757D01*
X136403477Y-89513251D01*
X136401154Y-89518233D01*
X136401151Y-89518238D01*
X136309039Y-89715775D01*
X136306716Y-89720757D01*
X136305294Y-89726065D01*
X136305293Y-89726067D01*
X136257756Y-89903478D01*
X136247457Y-89941913D01*
X136227502Y-90170000D01*
X124841000Y-90170000D01*
X124841000Y-85344000D01*
X136227502Y-85344000D01*
X136247457Y-85572087D01*
X136248881Y-85577400D01*
X136248881Y-85577402D01*
X136284760Y-85711301D01*
X136306716Y-85793243D01*
X136309039Y-85798224D01*
X136309039Y-85798225D01*
X136401151Y-85995762D01*
X136401154Y-85995767D01*
X136403477Y-86000749D01*
X136534802Y-86188300D01*
X136696700Y-86350198D01*
X136701208Y-86353355D01*
X136701211Y-86353357D01*
X136768971Y-86400803D01*
X136884251Y-86481523D01*
X136889233Y-86483846D01*
X136889238Y-86483849D01*
X137086775Y-86575961D01*
X137091757Y-86578284D01*
X137097065Y-86579706D01*
X137097067Y-86579707D01*
X137307598Y-86636119D01*
X137307600Y-86636119D01*
X137312913Y-86637543D01*
X137541000Y-86657498D01*
X137769087Y-86637543D01*
X137774400Y-86636119D01*
X137774402Y-86636119D01*
X137984933Y-86579707D01*
X137984935Y-86579706D01*
X137990243Y-86578284D01*
X137995225Y-86575961D01*
X138192762Y-86483849D01*
X138192767Y-86483846D01*
X138197749Y-86481523D01*
X138313029Y-86400803D01*
X138380789Y-86353357D01*
X138380792Y-86353355D01*
X138385300Y-86350198D01*
X138547198Y-86188300D01*
X138678523Y-86000749D01*
X138680846Y-85995767D01*
X138680849Y-85995762D01*
X138772961Y-85798225D01*
X138772961Y-85798224D01*
X138775284Y-85793243D01*
X138797241Y-85711301D01*
X138833119Y-85577402D01*
X138833119Y-85577400D01*
X138834543Y-85572087D01*
X138854498Y-85344000D01*
X146387502Y-85344000D01*
X146407457Y-85572087D01*
X146408881Y-85577400D01*
X146408881Y-85577402D01*
X146444760Y-85711301D01*
X146466716Y-85793243D01*
X146469039Y-85798224D01*
X146469039Y-85798225D01*
X146561151Y-85995762D01*
X146561154Y-85995767D01*
X146563477Y-86000749D01*
X146694802Y-86188300D01*
X146856700Y-86350198D01*
X146861208Y-86353355D01*
X146861211Y-86353357D01*
X146928971Y-86400803D01*
X147044251Y-86481523D01*
X147049233Y-86483846D01*
X147049238Y-86483849D01*
X147246775Y-86575961D01*
X147251757Y-86578284D01*
X147257065Y-86579706D01*
X147257067Y-86579707D01*
X147467598Y-86636119D01*
X147467600Y-86636119D01*
X147472913Y-86637543D01*
X147701000Y-86657498D01*
X147929087Y-86637543D01*
X147934400Y-86636119D01*
X147934402Y-86636119D01*
X148144933Y-86579707D01*
X148144935Y-86579706D01*
X148150243Y-86578284D01*
X148155225Y-86575961D01*
X148352762Y-86483849D01*
X148352767Y-86483846D01*
X148357749Y-86481523D01*
X148473029Y-86400803D01*
X148540789Y-86353357D01*
X148540792Y-86353355D01*
X148545300Y-86350198D01*
X148707198Y-86188300D01*
X148838523Y-86000749D01*
X148840846Y-85995767D01*
X148840849Y-85995762D01*
X148932961Y-85798225D01*
X148932961Y-85798224D01*
X148935284Y-85793243D01*
X148957241Y-85711301D01*
X148993119Y-85577402D01*
X148993119Y-85577400D01*
X148994543Y-85572087D01*
X149014498Y-85344000D01*
X148994543Y-85115913D01*
X148948051Y-84942402D01*
X148936707Y-84900067D01*
X148936706Y-84900065D01*
X148935284Y-84894757D01*
X148932961Y-84889775D01*
X148840849Y-84692238D01*
X148840846Y-84692233D01*
X148838523Y-84687251D01*
X148707198Y-84499700D01*
X148545300Y-84337802D01*
X148540792Y-84334645D01*
X148540789Y-84334643D01*
X148441424Y-84265067D01*
X148357749Y-84206477D01*
X148352767Y-84204154D01*
X148352762Y-84204151D01*
X148155225Y-84112039D01*
X148155224Y-84112039D01*
X148150243Y-84109716D01*
X148144935Y-84108294D01*
X148144933Y-84108293D01*
X147934402Y-84051881D01*
X147934400Y-84051881D01*
X147929087Y-84050457D01*
X147701000Y-84030502D01*
X147472913Y-84050457D01*
X147467600Y-84051881D01*
X147467598Y-84051881D01*
X147257067Y-84108293D01*
X147257065Y-84108294D01*
X147251757Y-84109716D01*
X147246776Y-84112039D01*
X147246775Y-84112039D01*
X147049238Y-84204151D01*
X147049233Y-84204154D01*
X147044251Y-84206477D01*
X146960576Y-84265067D01*
X146861211Y-84334643D01*
X146861208Y-84334645D01*
X146856700Y-84337802D01*
X146694802Y-84499700D01*
X146563477Y-84687251D01*
X146561154Y-84692233D01*
X146561151Y-84692238D01*
X146469039Y-84889775D01*
X146466716Y-84894757D01*
X146465294Y-84900065D01*
X146465293Y-84900067D01*
X146453949Y-84942402D01*
X146407457Y-85115913D01*
X146387502Y-85344000D01*
X138854498Y-85344000D01*
X138834543Y-85115913D01*
X138788051Y-84942402D01*
X138776707Y-84900067D01*
X138776706Y-84900065D01*
X138775284Y-84894757D01*
X138772961Y-84889775D01*
X138680849Y-84692238D01*
X138680846Y-84692233D01*
X138678523Y-84687251D01*
X138547198Y-84499700D01*
X138385300Y-84337802D01*
X138380792Y-84334645D01*
X138380789Y-84334643D01*
X138281424Y-84265067D01*
X138197749Y-84206477D01*
X138192767Y-84204154D01*
X138192762Y-84204151D01*
X137995225Y-84112039D01*
X137995224Y-84112039D01*
X137990243Y-84109716D01*
X137984935Y-84108294D01*
X137984933Y-84108293D01*
X137774402Y-84051881D01*
X137774400Y-84051881D01*
X137769087Y-84050457D01*
X137541000Y-84030502D01*
X137312913Y-84050457D01*
X137307600Y-84051881D01*
X137307598Y-84051881D01*
X137097067Y-84108293D01*
X137097065Y-84108294D01*
X137091757Y-84109716D01*
X137086776Y-84112039D01*
X137086775Y-84112039D01*
X136889238Y-84204151D01*
X136889233Y-84204154D01*
X136884251Y-84206477D01*
X136800576Y-84265067D01*
X136701211Y-84334643D01*
X136701208Y-84334645D01*
X136696700Y-84337802D01*
X136534802Y-84499700D01*
X136403477Y-84687251D01*
X136401154Y-84692233D01*
X136401151Y-84692238D01*
X136309039Y-84889775D01*
X136306716Y-84894757D01*
X136305294Y-84900065D01*
X136305293Y-84900067D01*
X136293949Y-84942402D01*
X136247457Y-85115913D01*
X136227502Y-85344000D01*
X124841000Y-85344000D01*
X124841000Y-83706966D01*
X127700257Y-83706966D01*
X127730565Y-83841446D01*
X127733645Y-83851275D01*
X127813770Y-84048603D01*
X127818413Y-84057794D01*
X127929694Y-84239388D01*
X127935777Y-84247699D01*
X128075213Y-84408667D01*
X128082580Y-84415883D01*
X128246434Y-84551916D01*
X128254881Y-84557831D01*
X128438756Y-84665279D01*
X128448042Y-84669729D01*
X128647001Y-84745703D01*
X128656899Y-84748579D01*
X128760250Y-84769606D01*
X128774299Y-84768410D01*
X128778000Y-84758065D01*
X128778000Y-84757517D01*
X129286000Y-84757517D01*
X129290064Y-84771359D01*
X129303478Y-84773393D01*
X129310184Y-84772534D01*
X129320262Y-84770392D01*
X129524255Y-84709191D01*
X129533842Y-84705433D01*
X129725095Y-84611739D01*
X129733945Y-84606464D01*
X129907328Y-84482792D01*
X129915200Y-84476139D01*
X130066052Y-84325812D01*
X130072730Y-84317965D01*
X130197003Y-84145020D01*
X130202313Y-84136183D01*
X130296670Y-83945267D01*
X130300469Y-83935672D01*
X130362377Y-83731910D01*
X130364555Y-83721837D01*
X130365986Y-83710962D01*
X130363775Y-83696778D01*
X130350617Y-83693000D01*
X129304115Y-83693000D01*
X129288876Y-83697475D01*
X129287671Y-83698865D01*
X129286000Y-83706548D01*
X129286000Y-84757517D01*
X128778000Y-84757517D01*
X128778000Y-83711115D01*
X128773525Y-83695876D01*
X128772135Y-83694671D01*
X128764452Y-83693000D01*
X127715225Y-83693000D01*
X127701694Y-83696973D01*
X127700257Y-83706966D01*
X124841000Y-83706966D01*
X124841000Y-80865695D01*
X127669251Y-80865695D01*
X127669548Y-80870848D01*
X127669548Y-80870851D01*
X127677015Y-81000358D01*
X127682110Y-81088715D01*
X127683247Y-81093761D01*
X127683248Y-81093767D01*
X127698806Y-81162802D01*
X127731222Y-81306639D01*
X127815266Y-81513616D01*
X127931987Y-81704088D01*
X128078250Y-81872938D01*
X128250126Y-82015632D01*
X128323955Y-82058774D01*
X128372679Y-82110412D01*
X128385750Y-82180195D01*
X128359019Y-82245967D01*
X128318562Y-82279327D01*
X128310457Y-82283546D01*
X128301738Y-82289036D01*
X128131433Y-82416905D01*
X128123726Y-82423748D01*
X127976590Y-82577717D01*
X127970104Y-82585727D01*
X127850098Y-82761649D01*
X127845000Y-82770623D01*
X127755338Y-82963783D01*
X127751775Y-82973470D01*
X127696389Y-83173183D01*
X127697912Y-83181607D01*
X127710292Y-83185000D01*
X130350344Y-83185000D01*
X130363875Y-83181027D01*
X130365180Y-83171947D01*
X130343625Y-83086134D01*
X145942500Y-83086134D01*
X145949255Y-83148316D01*
X146000385Y-83284705D01*
X146087739Y-83401261D01*
X146204295Y-83488615D01*
X146340684Y-83539745D01*
X146402866Y-83546500D01*
X148999134Y-83546500D01*
X149061316Y-83539745D01*
X149197705Y-83488615D01*
X149314261Y-83401261D01*
X149401615Y-83284705D01*
X149452745Y-83148316D01*
X149459500Y-83086134D01*
X149459500Y-80781134D01*
X173266500Y-80781134D01*
X173273255Y-80843316D01*
X173324385Y-80979705D01*
X173411739Y-81096261D01*
X173528295Y-81183615D01*
X173664684Y-81234745D01*
X173726866Y-81241500D01*
X175523134Y-81241500D01*
X175585316Y-81234745D01*
X175721705Y-81183615D01*
X175838261Y-81096261D01*
X175925615Y-80979705D01*
X175948603Y-80918385D01*
X175969598Y-80862382D01*
X176012240Y-80805618D01*
X176078802Y-80780918D01*
X176148150Y-80796126D01*
X176182817Y-80824114D01*
X176211250Y-80856938D01*
X176383126Y-80999632D01*
X176576000Y-81112338D01*
X176580825Y-81114180D01*
X176580826Y-81114181D01*
X176624093Y-81130703D01*
X176784692Y-81192030D01*
X176789760Y-81193061D01*
X176789763Y-81193062D01*
X176897017Y-81214883D01*
X177003597Y-81236567D01*
X177008772Y-81236757D01*
X177008774Y-81236757D01*
X177221673Y-81244564D01*
X177221677Y-81244564D01*
X177226837Y-81244753D01*
X177231957Y-81244097D01*
X177231959Y-81244097D01*
X177443288Y-81217025D01*
X177443289Y-81217025D01*
X177448416Y-81216368D01*
X177453366Y-81214883D01*
X177657429Y-81153661D01*
X177657434Y-81153659D01*
X177662384Y-81152174D01*
X177862994Y-81053896D01*
X178044860Y-80924173D01*
X178053832Y-80915233D01*
X178188616Y-80780918D01*
X178203096Y-80766489D01*
X178287731Y-80648707D01*
X178330435Y-80589277D01*
X178333453Y-80585077D01*
X178397764Y-80454954D01*
X178430136Y-80389453D01*
X178430137Y-80389451D01*
X178432430Y-80384811D01*
X178497370Y-80171069D01*
X178526529Y-79949590D01*
X178528156Y-79883000D01*
X178509852Y-79660361D01*
X178455431Y-79443702D01*
X178366354Y-79238840D01*
X178245014Y-79051277D01*
X178094670Y-78886051D01*
X178090619Y-78882852D01*
X178090615Y-78882848D01*
X177923414Y-78750800D01*
X177923410Y-78750798D01*
X177919359Y-78747598D01*
X177723789Y-78639638D01*
X177718920Y-78637914D01*
X177718916Y-78637912D01*
X177518087Y-78566795D01*
X177518083Y-78566794D01*
X177513212Y-78565069D01*
X177508119Y-78564162D01*
X177508116Y-78564161D01*
X177298373Y-78526800D01*
X177298367Y-78526799D01*
X177293284Y-78525894D01*
X177219452Y-78524992D01*
X177075081Y-78523228D01*
X177075079Y-78523228D01*
X177069911Y-78523165D01*
X176849091Y-78556955D01*
X176636756Y-78626357D01*
X176438607Y-78729507D01*
X176434474Y-78732610D01*
X176434471Y-78732612D01*
X176264100Y-78860530D01*
X176259965Y-78863635D01*
X176203537Y-78922684D01*
X176179283Y-78948064D01*
X176117759Y-78983494D01*
X176046846Y-78980037D01*
X175989060Y-78938791D01*
X175970207Y-78905243D01*
X175928767Y-78794703D01*
X175925615Y-78786295D01*
X175838261Y-78669739D01*
X175721705Y-78582385D01*
X175585316Y-78531255D01*
X175523134Y-78524500D01*
X173726866Y-78524500D01*
X173664684Y-78531255D01*
X173528295Y-78582385D01*
X173411739Y-78669739D01*
X173324385Y-78786295D01*
X173273255Y-78922684D01*
X173266500Y-78984866D01*
X173266500Y-80781134D01*
X149459500Y-80781134D01*
X149459500Y-80489866D01*
X149452745Y-80427684D01*
X149401615Y-80291295D01*
X149314261Y-80174739D01*
X149197705Y-80087385D01*
X149061316Y-80036255D01*
X148999134Y-80029500D01*
X146402866Y-80029500D01*
X146340684Y-80036255D01*
X146204295Y-80087385D01*
X146087739Y-80174739D01*
X146000385Y-80291295D01*
X145949255Y-80427684D01*
X145942500Y-80489866D01*
X145942500Y-83086134D01*
X130343625Y-83086134D01*
X130323214Y-83004875D01*
X130319894Y-82995124D01*
X130234972Y-82799814D01*
X130230105Y-82790739D01*
X130114426Y-82611926D01*
X130108136Y-82603757D01*
X129964806Y-82446240D01*
X129957273Y-82439215D01*
X129790139Y-82307222D01*
X129781556Y-82301520D01*
X129744602Y-82281120D01*
X129694631Y-82230687D01*
X129679859Y-82161245D01*
X129704975Y-82094839D01*
X129732327Y-82068232D01*
X129755797Y-82051491D01*
X129911860Y-81940173D01*
X130070096Y-81782489D01*
X130129594Y-81699689D01*
X130197435Y-81605277D01*
X130200453Y-81601077D01*
X130244354Y-81512251D01*
X130297136Y-81405453D01*
X130297137Y-81405451D01*
X130299430Y-81400811D01*
X130355468Y-81216368D01*
X130362865Y-81192023D01*
X130362865Y-81192021D01*
X130364370Y-81187069D01*
X130393529Y-80965590D01*
X130394227Y-80937039D01*
X130395074Y-80902365D01*
X130395074Y-80902361D01*
X130395156Y-80899000D01*
X130376852Y-80676361D01*
X130322431Y-80459702D01*
X130233354Y-80254840D01*
X130128507Y-80092771D01*
X130114822Y-80071617D01*
X130114820Y-80071614D01*
X130112014Y-80067277D01*
X130108532Y-80063450D01*
X129964798Y-79905488D01*
X129933746Y-79841642D01*
X129942141Y-79771143D01*
X129987317Y-79716375D01*
X130013761Y-79702706D01*
X130120297Y-79662767D01*
X130128705Y-79659615D01*
X130245261Y-79572261D01*
X130332615Y-79455705D01*
X130383745Y-79319316D01*
X130390500Y-79257134D01*
X130390500Y-78359000D01*
X131528502Y-78359000D01*
X131548457Y-78587087D01*
X131549881Y-78592400D01*
X131549881Y-78592402D01*
X131599910Y-78779109D01*
X131607716Y-78808243D01*
X131610039Y-78813224D01*
X131610039Y-78813225D01*
X131702151Y-79010762D01*
X131702154Y-79010767D01*
X131704477Y-79015749D01*
X131835802Y-79203300D01*
X131997700Y-79365198D01*
X132002208Y-79368355D01*
X132002211Y-79368357D01*
X132080389Y-79423098D01*
X132185251Y-79496523D01*
X132190233Y-79498846D01*
X132190238Y-79498849D01*
X132359212Y-79577642D01*
X132392757Y-79593284D01*
X132398065Y-79594706D01*
X132398067Y-79594707D01*
X132608598Y-79651119D01*
X132608600Y-79651119D01*
X132613913Y-79652543D01*
X132842000Y-79672498D01*
X133070087Y-79652543D01*
X133075400Y-79651119D01*
X133075402Y-79651119D01*
X133285933Y-79594707D01*
X133285935Y-79594706D01*
X133291243Y-79593284D01*
X133324788Y-79577642D01*
X133493762Y-79498849D01*
X133493767Y-79498846D01*
X133498749Y-79496523D01*
X133603611Y-79423098D01*
X133681789Y-79368357D01*
X133681792Y-79368355D01*
X133686300Y-79365198D01*
X133848198Y-79203300D01*
X133979523Y-79015749D01*
X133981846Y-79010767D01*
X133981849Y-79010762D01*
X134073961Y-78813225D01*
X134073961Y-78813224D01*
X134076284Y-78808243D01*
X134084091Y-78779109D01*
X134134119Y-78592402D01*
X134134119Y-78592400D01*
X134135543Y-78587087D01*
X134155498Y-78359000D01*
X141688502Y-78359000D01*
X141708457Y-78587087D01*
X141709881Y-78592400D01*
X141709881Y-78592402D01*
X141759910Y-78779109D01*
X141767716Y-78808243D01*
X141770039Y-78813224D01*
X141770039Y-78813225D01*
X141862151Y-79010762D01*
X141862154Y-79010767D01*
X141864477Y-79015749D01*
X141995802Y-79203300D01*
X142157700Y-79365198D01*
X142162208Y-79368355D01*
X142162211Y-79368357D01*
X142240389Y-79423098D01*
X142345251Y-79496523D01*
X142350233Y-79498846D01*
X142350238Y-79498849D01*
X142519212Y-79577642D01*
X142552757Y-79593284D01*
X142558065Y-79594706D01*
X142558067Y-79594707D01*
X142768598Y-79651119D01*
X142768600Y-79651119D01*
X142773913Y-79652543D01*
X143002000Y-79672498D01*
X143230087Y-79652543D01*
X143235400Y-79651119D01*
X143235402Y-79651119D01*
X143445933Y-79594707D01*
X143445935Y-79594706D01*
X143451243Y-79593284D01*
X143484788Y-79577642D01*
X143653762Y-79498849D01*
X143653767Y-79498846D01*
X143658749Y-79496523D01*
X143763611Y-79423098D01*
X143841789Y-79368357D01*
X143841792Y-79368355D01*
X143846300Y-79365198D01*
X144008198Y-79203300D01*
X144139523Y-79015749D01*
X144141846Y-79010767D01*
X144141849Y-79010762D01*
X144233961Y-78813225D01*
X144233961Y-78813224D01*
X144236284Y-78808243D01*
X144244091Y-78779109D01*
X144294119Y-78592402D01*
X144294119Y-78592400D01*
X144295543Y-78587087D01*
X144315498Y-78359000D01*
X144295543Y-78130913D01*
X144236284Y-77909757D01*
X144233961Y-77904775D01*
X144141849Y-77707238D01*
X144141846Y-77707233D01*
X144139523Y-77702251D01*
X144008198Y-77514700D01*
X143846300Y-77352802D01*
X143841792Y-77349645D01*
X143841789Y-77349643D01*
X143706780Y-77255109D01*
X143658749Y-77221477D01*
X143653767Y-77219154D01*
X143653762Y-77219151D01*
X143456225Y-77127039D01*
X143456224Y-77127039D01*
X143451243Y-77124716D01*
X143445935Y-77123294D01*
X143445933Y-77123293D01*
X143235402Y-77066881D01*
X143235400Y-77066881D01*
X143230087Y-77065457D01*
X143002000Y-77045502D01*
X142773913Y-77065457D01*
X142768600Y-77066881D01*
X142768598Y-77066881D01*
X142558067Y-77123293D01*
X142558065Y-77123294D01*
X142552757Y-77124716D01*
X142547776Y-77127039D01*
X142547775Y-77127039D01*
X142350238Y-77219151D01*
X142350233Y-77219154D01*
X142345251Y-77221477D01*
X142297220Y-77255109D01*
X142162211Y-77349643D01*
X142162208Y-77349645D01*
X142157700Y-77352802D01*
X141995802Y-77514700D01*
X141864477Y-77702251D01*
X141862154Y-77707233D01*
X141862151Y-77707238D01*
X141770039Y-77904775D01*
X141767716Y-77909757D01*
X141708457Y-78130913D01*
X141688502Y-78359000D01*
X134155498Y-78359000D01*
X134135543Y-78130913D01*
X134076284Y-77909757D01*
X134073961Y-77904775D01*
X133981849Y-77707238D01*
X133981846Y-77707233D01*
X133979523Y-77702251D01*
X133848198Y-77514700D01*
X133686300Y-77352802D01*
X133681792Y-77349645D01*
X133681789Y-77349643D01*
X133546780Y-77255109D01*
X133498749Y-77221477D01*
X133493767Y-77219154D01*
X133493762Y-77219151D01*
X133296225Y-77127039D01*
X133296224Y-77127039D01*
X133291243Y-77124716D01*
X133285935Y-77123294D01*
X133285933Y-77123293D01*
X133075402Y-77066881D01*
X133075400Y-77066881D01*
X133070087Y-77065457D01*
X132842000Y-77045502D01*
X132613913Y-77065457D01*
X132608600Y-77066881D01*
X132608598Y-77066881D01*
X132398067Y-77123293D01*
X132398065Y-77123294D01*
X132392757Y-77124716D01*
X132387776Y-77127039D01*
X132387775Y-77127039D01*
X132190238Y-77219151D01*
X132190233Y-77219154D01*
X132185251Y-77221477D01*
X132137220Y-77255109D01*
X132002211Y-77349643D01*
X132002208Y-77349645D01*
X131997700Y-77352802D01*
X131835802Y-77514700D01*
X131704477Y-77702251D01*
X131702154Y-77707233D01*
X131702151Y-77707238D01*
X131610039Y-77904775D01*
X131607716Y-77909757D01*
X131548457Y-78130913D01*
X131528502Y-78359000D01*
X130390500Y-78359000D01*
X130390500Y-77460866D01*
X130383745Y-77398684D01*
X130332615Y-77262295D01*
X130245261Y-77145739D01*
X130128705Y-77058385D01*
X129992316Y-77007255D01*
X129930134Y-77000500D01*
X128133866Y-77000500D01*
X128071684Y-77007255D01*
X127935295Y-77058385D01*
X127818739Y-77145739D01*
X127731385Y-77262295D01*
X127680255Y-77398684D01*
X127673500Y-77460866D01*
X127673500Y-79257134D01*
X127680255Y-79319316D01*
X127731385Y-79455705D01*
X127818739Y-79572261D01*
X127935295Y-79659615D01*
X127943704Y-79662767D01*
X127943705Y-79662768D01*
X128052451Y-79703535D01*
X128109216Y-79746176D01*
X128133916Y-79812738D01*
X128118709Y-79882087D01*
X128099316Y-79908568D01*
X127983751Y-80029500D01*
X127972629Y-80041138D01*
X127969715Y-80045410D01*
X127969714Y-80045411D01*
X127941081Y-80087385D01*
X127846743Y-80225680D01*
X127831003Y-80259590D01*
X127756411Y-80420285D01*
X127752688Y-80428305D01*
X127692989Y-80643570D01*
X127669251Y-80865695D01*
X124841000Y-80865695D01*
X124841000Y-75818000D01*
X124861002Y-75749879D01*
X124914658Y-75703386D01*
X124967000Y-75692000D01*
X200915000Y-75692000D01*
X200983121Y-75712002D01*
G37*
G04 #@! TD.AperFunction*
M02*
