G04 #@! TF.GenerationSoftware,KiCad,Pcbnew,(6.0.10-0)*
G04 #@! TF.CreationDate,2023-03-01T17:49:15-06:00*
G04 #@! TF.ProjectId,monitor_subsystem,6d6f6e69-746f-4725-9f73-756273797374,rev?*
G04 #@! TF.SameCoordinates,Original*
G04 #@! TF.FileFunction,Soldermask,Bot*
G04 #@! TF.FilePolarity,Negative*
%FSLAX46Y46*%
G04 Gerber Fmt 4.6, Leading zero omitted, Abs format (unit mm)*
G04 Created by KiCad (PCBNEW (6.0.10-0)) date 2023-03-01 17:49:15*
%MOMM*%
%LPD*%
G01*
G04 APERTURE LIST*
G04 Aperture macros list*
%AMRoundRect*
0 Rectangle with rounded corners*
0 $1 Rounding radius*
0 $2 $3 $4 $5 $6 $7 $8 $9 X,Y pos of 4 corners*
0 Add a 4 corners polygon primitive as box body*
4,1,4,$2,$3,$4,$5,$6,$7,$8,$9,$2,$3,0*
0 Add four circle primitives for the rounded corners*
1,1,$1+$1,$2,$3*
1,1,$1+$1,$4,$5*
1,1,$1+$1,$6,$7*
1,1,$1+$1,$8,$9*
0 Add four rect primitives between the rounded corners*
20,1,$1+$1,$2,$3,$4,$5,0*
20,1,$1+$1,$4,$5,$6,$7,0*
20,1,$1+$1,$6,$7,$8,$9,0*
20,1,$1+$1,$8,$9,$2,$3,0*%
G04 Aperture macros list end*
%ADD10C,1.600000*%
%ADD11O,1.600000X1.600000*%
%ADD12R,2.500000X2.500000*%
%ADD13R,1.700000X1.700000*%
%ADD14O,1.700000X1.700000*%
%ADD15R,1.600000X1.600000*%
%ADD16R,2.000000X1.905000*%
%ADD17O,2.000000X1.905000*%
%ADD18C,3.200000*%
%ADD19RoundRect,0.250000X0.600000X0.600000X-0.600000X0.600000X-0.600000X-0.600000X0.600000X-0.600000X0*%
%ADD20C,1.700000*%
%ADD21C,1.500000*%
G04 APERTURE END LIST*
D10*
X150998000Y-125085000D03*
D11*
X161158000Y-125085000D03*
D12*
X147701000Y-81788000D03*
X132329000Y-132832000D03*
D13*
X174625000Y-79883000D03*
D14*
X177165000Y-79883000D03*
D12*
X194305000Y-123688000D03*
D13*
X189606000Y-112131000D03*
D14*
X189606000Y-114671000D03*
X189606000Y-117211000D03*
X189606000Y-119751000D03*
X189606000Y-122291000D03*
X189606000Y-124831000D03*
X189606000Y-127371000D03*
X189606000Y-129911000D03*
D15*
X156215000Y-82169000D03*
D11*
X156215000Y-84709000D03*
X156215000Y-87249000D03*
X156215000Y-89789000D03*
X156215000Y-92329000D03*
X156215000Y-94869000D03*
X156215000Y-97409000D03*
X156215000Y-99949000D03*
X156215000Y-102489000D03*
X156215000Y-105029000D03*
X156215000Y-107569000D03*
X156215000Y-110109000D03*
X156215000Y-112649000D03*
X156215000Y-115189000D03*
X163835000Y-115189000D03*
X163835000Y-112649000D03*
X163835000Y-110109000D03*
X163835000Y-107569000D03*
X163835000Y-105029000D03*
X163835000Y-102489000D03*
X163835000Y-99949000D03*
X163835000Y-97409000D03*
X163835000Y-94869000D03*
X163835000Y-92329000D03*
X163835000Y-89789000D03*
X163835000Y-87249000D03*
X163835000Y-84709000D03*
X163835000Y-82169000D03*
D16*
X146045000Y-126863000D03*
D17*
X146045000Y-124323000D03*
X146045000Y-121783000D03*
D18*
X197358000Y-141097000D03*
D13*
X129032000Y-78359000D03*
D14*
X129032000Y-80899000D03*
X129032000Y-83439000D03*
D10*
X160015000Y-120640000D03*
X162515000Y-120640000D03*
X170302000Y-94478000D03*
X170302000Y-91978000D03*
X143378000Y-110099000D03*
X140878000Y-110099000D03*
X151165000Y-120767000D03*
X153665000Y-120767000D03*
D18*
X197358000Y-71374000D03*
X127635000Y-71374000D03*
D19*
X178293500Y-97023000D03*
D20*
X175753500Y-97023000D03*
X178293500Y-94483000D03*
X175753500Y-94483000D03*
X178293500Y-91943000D03*
X175753500Y-91943000D03*
D12*
X194305000Y-119751000D03*
D10*
X143002000Y-78359000D03*
D11*
X132842000Y-78359000D03*
D10*
X137541000Y-90170000D03*
D11*
X147701000Y-90170000D03*
D13*
X137028000Y-132832000D03*
D14*
X137028000Y-130292000D03*
D13*
X133248000Y-93599000D03*
D14*
X133248000Y-96139000D03*
X133248000Y-98679000D03*
X133248000Y-101219000D03*
D10*
X187320000Y-97907000D03*
D11*
X187320000Y-87747000D03*
D12*
X194305000Y-115687000D03*
D13*
X134488000Y-124323000D03*
D14*
X137028000Y-124323000D03*
X139568000Y-124323000D03*
D12*
X168778000Y-118735000D03*
D21*
X149982000Y-105273000D03*
X149982000Y-110153000D03*
D10*
X150998000Y-130165000D03*
D11*
X161158000Y-130165000D03*
D12*
X145542000Y-93726000D03*
D10*
X137541000Y-85344000D03*
D11*
X147701000Y-85344000D03*
D10*
X143378000Y-105273000D03*
X140878000Y-105273000D03*
D18*
X127635000Y-141097000D03*
M02*
